<svg width="678" height="768" viewBox="0 0 678 768" fill="none" xmlns="http://www.w3.org/2000/svg">
<rect width="678" height="768" fill="#67BCF8"/>
<mask id="mask0" mask-type="alpha" maskUnits="userSpaceOnUse" x="0" y="0" width="678" height="768">
<rect width="678" height="768" fill="#67BCF8"/>
</mask>
<g mask="url(#mask0)">
<path d="M735.399 343.701C811.932 350.201 940.958 413.201 947.336 421.701L1000.81 770.201H119.705C147.996 744.201 220.767 683.301 285.525 647.701C366.473 603.201 431.472 516.911 447.421 491.201C463.611 465.104 528.546 408.023 548.974 394.201C573.504 377.604 658.867 337.201 735.399 343.701Z" fill="#3892D1"/>
<path d="M155.027 359.5C30.9074 197 -102.043 213.5 -114.799 203L-102.043 767.5H602.939C534.747 655.5 393.456 594 316.433 568.5C254.814 548.1 208.012 442 155.027 359.5Z" fill="#469BD7"/>
<path d="M561.871 770.475H629.103C627.809 762.096 622.526 763.57 621.826 750.583C621.475 744.05 627.413 735.951 626.911 727.308C626.484 720.217 619.633 712.971 619.1 704.871C618.628 697.563 624.459 689.463 623.896 681.596C623.363 674.149 616.421 667.011 615.812 659.268C615.203 651.526 620.927 643.535 620.257 635.9C619.588 628.266 612.523 621.268 611.762 613.743C611.001 606.218 616.543 597.683 615.69 590.282C614.792 582.415 607.514 575.635 606.555 568.404C605.459 560.335 610.62 551.724 609.402 544.772C607.88 536.254 600.146 530.078 598.502 523.794C595.457 512.079 595.837 500.783 592.229 500.039C588.392 499.263 587.509 510.326 584.617 522.708C583.094 528.915 575.482 535.214 574.295 543.748C573.275 550.653 578.664 559.063 577.781 567.023C576.989 574.207 569.895 581.112 569.21 588.932C568.555 596.287 574.31 604.449 573.777 612.067C573.244 619.686 566.347 626.668 565.875 634.24C565.403 641.812 571.341 649.757 570.93 657.267C570.519 664.777 563.759 672.193 563.409 679.579C563.044 687.337 569.103 695.282 568.799 702.528C568.479 710.55 561.81 717.92 561.567 724.934C561.278 733.452 567.413 741.319 567.215 747.805C566.804 761.894 560.486 758.977 560.258 770.304L561.871 770.475Z" fill="#0878C7"/>
<path d="M590.737 522.615V767.325" stroke="#263238" stroke-miterlimit="10"/>
<path d="M601.227 548.263L590.28 557.899L581.328 545.734" stroke="#263238" stroke-miterlimit="10"/>
<path d="M601.227 590.856L590.28 600.492L581.328 588.327" stroke="#263238" stroke-miterlimit="10"/>
<path d="M601.227 630.92L590.28 640.555L581.328 628.375" stroke="#263238" stroke-miterlimit="10"/>
<path d="M601.227 678.586L590.28 688.206L581.328 676.042" stroke="#263238" stroke-miterlimit="10"/>
<path d="M601.227 726.749L590.28 736.385L581.328 724.22" stroke="#263238" stroke-miterlimit="10"/>
<path d="M409.364 770.475H458.947C457.993 764.295 454.096 765.382 453.58 755.804C453.322 750.987 457.701 745.013 457.33 738.639C457.016 733.41 451.963 728.066 451.57 722.092C451.222 716.702 455.522 710.729 455.107 704.927C454.714 699.434 449.594 694.17 449.145 688.46C448.696 682.75 452.917 676.857 452.423 671.226C451.929 665.596 446.72 660.435 446.158 654.885C445.597 649.335 449.684 643.041 449.055 637.583C448.392 631.781 443.025 626.78 442.318 621.448C441.51 615.497 445.316 609.146 444.418 604.02C443.295 597.737 437.591 593.183 436.378 588.548C434.133 579.908 434.414 571.578 431.753 571.028C428.923 570.456 428.272 578.615 426.138 587.747C425.016 592.324 419.402 596.97 418.526 603.264C417.774 608.357 421.748 614.559 421.097 620.429C420.513 625.728 415.281 630.82 414.776 636.587C414.293 642.012 418.537 648.031 418.144 653.649C417.751 659.268 412.665 664.418 412.317 670.002C411.969 675.586 416.348 681.445 416.044 686.984C415.741 692.522 410.756 697.992 410.498 703.439C410.228 709.161 414.697 715.02 414.473 720.364C414.237 726.28 409.319 731.716 409.139 736.888C408.926 743.171 413.451 748.973 413.305 753.756C413.002 764.146 408.342 761.995 408.174 770.349L409.364 770.475Z" fill="#0878C7"/>
<path d="M430.652 587.678V768.152" stroke="#263238" stroke-miterlimit="10"/>
<path d="M438.388 606.594L430.315 613.701L423.713 604.729" stroke="#263238" stroke-miterlimit="10"/>
<path d="M438.388 638.006L430.315 645.113L423.713 636.141" stroke="#263238" stroke-miterlimit="10"/>
<path d="M438.388 667.553L430.315 674.659L423.713 665.676" stroke="#263238" stroke-miterlimit="10"/>
<path d="M438.388 702.707L430.315 709.802L423.713 700.83" stroke="#263238" stroke-miterlimit="10"/>
<path d="M438.388 738.227L430.315 745.333L423.713 736.362" stroke="#263238" stroke-miterlimit="10"/>
<path d="M22.7761 770.475H72.3592C71.4049 764.295 67.5087 765.382 66.9922 755.804C66.734 750.987 71.1129 745.013 70.7424 738.639C70.428 733.41 65.3754 728.066 64.9824 722.092C64.6343 716.702 68.9347 710.729 68.5192 704.927C68.1263 699.434 63.0063 694.17 62.5571 688.46C62.108 682.75 66.3298 676.857 65.8357 671.226C65.3417 665.596 60.1319 660.435 59.5705 654.885C59.0091 649.335 63.0961 643.041 62.4673 637.583C61.8049 631.781 56.4378 626.78 55.7305 621.448C54.922 615.497 58.7284 609.146 57.8301 604.02C56.7073 597.737 51.0035 593.183 49.7908 588.548C47.5452 579.908 47.8259 571.578 45.1649 571.028C42.3354 570.456 41.6842 578.615 39.5508 587.747C38.428 592.324 32.814 596.97 31.9382 603.264C31.1859 608.357 35.1607 614.559 34.5094 620.429C33.9256 625.728 28.6933 630.82 28.188 636.587C27.7052 642.012 31.9494 648.031 31.5564 653.649C31.1635 659.268 26.0771 664.418 25.7291 670.002C25.381 675.586 29.76 681.445 29.4568 686.984C29.1536 692.522 24.1684 697.992 23.9101 703.439C23.6407 709.161 28.1094 715.02 27.8849 720.364C27.6491 726.28 22.7312 731.716 22.5516 736.888C22.3382 743.171 26.8631 748.973 26.7172 753.756C26.414 764.146 21.7544 761.995 21.5859 770.349L22.7761 770.475Z" fill="#0878C7"/>
<path d="M44.0648 587.678V768.152" stroke="#263238" stroke-miterlimit="10"/>
<path d="M51.8011 606.594L43.7281 613.701L37.126 604.729" stroke="#263238" stroke-miterlimit="10"/>
<path d="M51.8011 638.006L43.7281 645.113L37.126 636.141" stroke="#263238" stroke-miterlimit="10"/>
<path d="M51.8011 667.553L43.7281 674.659L37.126 665.676" stroke="#263238" stroke-miterlimit="10"/>
<path d="M51.8011 702.707L43.7281 709.802L37.126 700.83" stroke="#263238" stroke-miterlimit="10"/>
<path d="M51.8011 738.227L43.7281 745.333L37.126 736.362" stroke="#263238" stroke-miterlimit="10"/>
<path d="M719.092 757.142L705.592 748L692.074 757.142L678.574 748L665.056 757.142L651.556 748L638.056 757.142L624.538 748L611.038 757.142L597.52 748L584.02 757.142L570.52 748L557.002 757.142L543.502 748L530.002 757.142L516.484 748L502.984 757.142L489.466 748L475.966 757.142L462.466 748L448.948 757.142L435.448 748L421.93 757.142L408.43 748L394.93 757.142L381.412 748L367.912 757.142L354.412 748L340.894 757.142L327.394 748L313.894 757.142L300.376 748L286.876 757.142L273.376 748L259.876 757.142L246.358 748L232.858 757.142L219.358 748L205.858 757.142L192.358 748L178.84 757.142L165.34 748L151.84 757.142L138.34 748L124.84 757.142L111.34 748L97.84 757.142L84.322 748L70.822 757.142L57.322 748L43.822 757.142L30.322 748L16.822 757.142L3.322 748L-10.178 757.142L-23.678 748L-37.178 757.142L-50.678 748L-62 755.673V795H721V755.853L719.092 757.142Z" fill="#0ABEC4"/>
</g>
<path d="M178.174 555.428C178.775 555.428 179.351 555.185 179.775 554.752C180.2 554.32 180.439 553.733 180.439 553.12L180.574 512.308C180.574 511.696 180.336 511.109 179.911 510.676C179.487 510.243 178.911 510 178.31 510C177.71 510 177.134 510.243 176.709 510.676C176.284 511.109 176.046 511.696 176.046 512.308L175.91 553.109C175.91 553.721 176.149 554.308 176.573 554.741C176.998 555.174 177.574 555.417 178.174 555.417V555.428Z" fill="white" stroke="#263238" stroke-miterlimit="10"/>
<path d="M135.05 510.6H210.464C213.19 510.6 215.4 512.852 215.4 515.631V535.131C215.4 537.91 213.19 540.162 210.464 540.162H135.05C132.324 540.162 130.114 537.91 130.114 535.131V515.631C130.114 512.852 132.324 510.6 135.05 510.6Z" fill="#0ABEC4" stroke="#263238" stroke-linecap="round" stroke-linejoin="round"/>
<path d="M134.099 510.635H211.415C212.527 510.691 213.572 511.196 214.32 512.038C215.067 512.88 215.456 513.989 215.4 515.123V519.346H130.102V515.123C130.075 514.561 130.157 513.999 130.343 513.468C130.529 512.938 130.816 512.451 131.187 512.034C131.558 511.617 132.007 511.279 132.506 511.039C133.006 510.799 133.547 510.661 134.099 510.635Z" fill="white" stroke="#263238" stroke-linecap="round" stroke-linejoin="round"/>
<path d="M124.894 538.985H220.619C223.346 538.985 225.556 541.238 225.556 544.016V567.071C225.556 569.849 223.346 572.102 220.619 572.102H124.894C122.168 572.102 119.958 569.849 119.958 567.071V544.016C119.958 541.238 122.168 538.985 124.894 538.985Z" fill="#255AAD" stroke="#263238" stroke-linecap="round" stroke-linejoin="round"/>
<path d="M124.894 538.986H220.676C221.983 538.989 223.236 539.52 224.159 540.463C225.083 541.406 225.601 542.684 225.601 544.016V548.713H119.913V543.982C119.917 543.32 120.05 542.666 120.303 542.057C120.556 541.447 120.924 540.895 121.387 540.43C121.849 539.966 122.397 539.6 122.999 539.352C123.601 539.104 124.245 538.979 124.894 538.986Z" fill="white" stroke="#263238" stroke-linecap="round" stroke-linejoin="round"/>
<path d="M187.549 551.99H183.201V553.767C183.201 555.805 182.407 557.759 180.993 559.201C179.579 560.642 177.661 561.451 175.661 561.451H168.981C166.981 561.451 165.063 560.642 163.649 559.201C162.235 557.759 161.441 555.805 161.441 553.767V551.701H157.388" stroke="#263238" stroke-width="3" stroke-linecap="round" stroke-linejoin="round"/>
<path d="M119.166 572H228.409C233.162 571.997 237.754 573.756 241.328 576.95C243.637 579.007 245.44 581.588 246.592 584.485L271.228 646.437C272.049 648.504 273.358 650.332 275.038 651.759C276.719 653.187 278.72 654.168 280.863 654.618L309.711 660.641C315.189 661.78 320.325 664.224 324.701 667.772C331.363 673.207 335.878 680.91 337.415 689.465L340.936 709.081C341.331 711.298 341.236 713.578 340.658 715.753C340.08 717.929 339.034 719.946 337.596 721.658C336.196 723.321 334.459 724.655 332.504 725.567C330.55 726.479 328.424 726.949 326.274 726.943H293.113L267.073 743.097H139.138L68.5583 732.712L53.1155 731.558C51.3067 731.436 49.5573 730.851 48.028 729.859C46.4987 728.867 45.2386 727.499 44.3638 725.881C42.1827 721.96 40.9088 717.584 40.639 713.085C40.254 703.092 42.9033 693.088 47.8056 683.476C52.7079 673.864 59.8859 672.699 69.3169 640.783C78.7478 608.866 82.9369 594.304 92.3678 583.539C101.799 572.773 119.166 572 119.166 572Z" fill="#0ABEC4" stroke="#263238" stroke-linecap="round" stroke-linejoin="round"/>
<path d="M265.204 663.72V728.337C265.204 730.58 264.33 732.732 262.774 734.318C261.217 735.904 259.106 736.795 256.905 736.795H157.274C155.727 736.795 154.198 736.46 152.787 735.814C151.376 735.168 150.116 734.224 149.089 733.045C147.302 731.003 146.315 728.362 146.315 725.625V666.778" stroke="#263238" stroke-linecap="round" stroke-linejoin="round"/>
<path d="M307.287 672.755H68.399" stroke="#263238" stroke-linecap="round" stroke-linejoin="round"/>
<path d="M151.24 677.566H163.309C163.909 677.566 164.485 677.323 164.91 676.89C165.334 676.458 165.573 675.871 165.573 675.259C165.573 674.647 165.334 674.06 164.91 673.627C164.485 673.194 163.909 672.951 163.309 672.951H151.24C150.639 672.951 150.063 673.194 149.639 673.627C149.214 674.06 148.975 674.647 148.975 675.259C148.975 675.562 149.034 675.862 149.148 676.142C149.262 676.422 149.428 676.676 149.639 676.89C149.849 677.105 150.099 677.275 150.373 677.391C150.648 677.507 150.942 677.566 151.24 677.566Z" fill="#263238" stroke="#263238" stroke-linecap="round" stroke-linejoin="round"/>
<path d="M213.883 576.406H217.506C223.521 576.408 229.389 578.298 234.313 581.817C239.237 585.337 242.978 590.317 245.029 596.079L266.223 655.758C266.448 656.395 266.52 657.078 266.432 657.75C266.343 658.421 266.098 659.061 265.716 659.615C265.334 660.17 264.827 660.622 264.237 660.935C263.648 661.248 262.993 661.411 262.329 661.412H155.01C154.068 661.412 153.135 661.223 152.265 660.855C151.395 660.487 150.604 659.948 149.939 659.269C149.273 658.589 148.745 657.783 148.386 656.895C148.026 656.008 147.842 655.057 147.844 654.096V585.833C147.842 584.595 148.08 583.37 148.543 582.226C149.007 581.083 149.687 580.043 150.545 579.168C151.403 578.292 152.422 577.597 153.544 577.124C154.666 576.65 155.868 576.406 157.082 576.406H213.883Z" fill="#70B2E2"/>
<path d="M158.406 621.176C158.406 621.176 147.447 630.211 144.583 636.858C141.718 643.504 137.79 662.37 137.79 662.37H204.271C204.271 662.37 186.541 641.6 179.238 635C171.936 628.4 158.406 621.176 158.406 621.176Z" fill="#2389CF"/>
<path d="M158.406 621.176C158.406 621.176 147.447 630.211 144.583 636.858C141.718 643.504 137.79 662.37 137.79 662.37H204.271C204.271 662.37 186.541 641.6 179.238 635C171.936 628.4 158.406 621.176 158.406 621.176Z" stroke="#263238" stroke-linecap="round" stroke-linejoin="round"/>
<path d="M204.271 662.37H171.789C172.06 655.7 172.989 642.085 176.114 638.715C177.902 636.765 180.959 637.781 183.858 639.569C192.179 648.235 204.271 662.37 204.271 662.37Z" stroke="#263238" stroke-linecap="round" stroke-linejoin="round"/>
<path d="M192.021 586.894C192.021 586.894 197.229 593.275 197.229 594.602C197.147 596.257 197.709 597.878 198.791 599.114C200.104 600.453 204.01 604.433 204.01 606.557C204.01 608.68 199.844 608.149 199.844 608.149C199.844 608.149 205.052 615.072 203.49 617.449C201.927 619.826 182.363 637.123 182.363 637.123L159.72 618.788L161.282 615.326C160.129 613.557 159.333 611.573 158.939 609.487C158.678 606.822 156.844 596.991 165.732 590.61C174.619 584.229 188.103 583.444 192.021 586.894Z" fill="#FFCC9D" stroke="#263238" stroke-linecap="round" stroke-linejoin="round"/>
<path d="M161.248 615.326C160.095 613.557 159.299 611.573 158.905 609.487C158.644 606.822 156.81 596.991 165.698 590.61C170.036 587.644 175.002 585.769 180.19 585.141C178.242 586.294 174.529 588.787 174.302 591.141C174.042 594.337 177.427 594.602 177.427 594.602C177.427 594.602 183.688 597.256 182.907 598.583C182.126 599.91 178.729 602.31 178.729 603.106C178.729 603.903 180.812 607.087 178.99 607.618C177.167 608.149 176.125 603.637 173.51 604.156C170.894 604.676 169.864 604.422 170.645 608.668C171.427 612.914 173.77 613.987 173.77 614.784C173.77 615.58 165.845 617.022 160.909 616.076L161.248 615.326Z" fill="#263238" stroke="#263238" stroke-linecap="round" stroke-linejoin="round"/>
<path d="M190.447 585.568C190.447 585.568 172.196 568.559 169.853 568.559C167.509 568.559 152.644 577.329 152.123 580.779C151.602 584.229 155.768 607.618 155.768 607.618L190.447 585.568Z" fill="white" stroke="#263238" stroke-linecap="round" stroke-linejoin="round"/>
<path d="M190.447 585.567L155.768 607.618C155.768 607.618 154.965 603.118 154.115 597.776L184.616 580.237C187.911 583.202 190.447 585.567 190.447 585.567Z" fill="#2389CF" stroke="#263238" stroke-linecap="round" stroke-linejoin="round"/>
<path d="M202.969 581.575C202.969 581.575 150.3 621.961 149.519 618.788C148.738 615.615 150.04 610.814 153.685 606.291C157.331 601.768 177.461 588.752 186.801 584.506C196.142 580.26 202.448 578.39 202.969 581.575Z" fill="white" stroke="#263238" stroke-linecap="round" stroke-linejoin="round"/>
<path d="M192.371 598.433C193.017 600.914 194.398 602.703 195.44 602.414C196.481 602.126 196.798 599.887 196.141 597.406C195.485 594.926 194.115 593.149 193.073 593.426C192.032 593.702 191.692 596.022 192.371 598.433Z" stroke="#263238" stroke-linecap="round" stroke-linejoin="round"/>
<path d="M192.349 598.433L176.114 604.964" stroke="#263238" stroke-linecap="round" stroke-linejoin="round"/>
<path d="M200.365 609.753C198.892 610.176 197.333 610.175 195.861 609.752C194.388 609.328 193.059 608.498 192.021 607.353" stroke="#263238" stroke-linecap="round" stroke-linejoin="round"/>
<path d="M192.802 605.76L190.447 608.945" stroke="#263238" stroke-linecap="round" stroke-linejoin="round"/>
<path d="M188.409 632.946L187.685 644.104L157.433 621.257L159.946 616.122L188.409 632.946Z" fill="#2389CF" stroke="#263238" stroke-linecap="round" stroke-linejoin="round"/>
<path d="M229.348 663.143L234.613 664.654L242.346 636.638C242.446 636.284 242.476 635.912 242.434 635.546C242.392 635.18 242.28 634.825 242.103 634.503C241.926 634.181 241.688 633.898 241.403 633.671C241.119 633.443 240.792 633.275 240.444 633.177C240.096 633.075 239.733 633.044 239.374 633.085C239.015 633.127 238.668 633.241 238.352 633.42C238.036 633.599 237.758 633.84 237.535 634.129C237.311 634.418 237.145 634.749 237.047 635.104L229.348 663.143Z" fill="#263238" stroke="#263238" stroke-linecap="round" stroke-linejoin="round"/>
<path d="M222.748 648.592C222.748 648.592 230.186 638.381 232.337 635.323C234.488 632.265 236.639 632.403 238.066 633.28C239.493 634.157 246.229 639.546 245.799 641.3C245.368 643.054 241.644 651.685 241.078 652.839C240.8 653.465 240.358 654 239.8 654.387C239.243 654.774 238.592 654.997 237.919 655.031C236.492 655.031 235.202 651.962 235.202 651.962H232.937C232.937 651.962 230.209 657.95 227.208 659.266C225.156 660.059 222.951 660.355 220.766 660.131L218.049 663.927H206.161L222.748 648.592Z" fill="#FFCC9D" stroke="#263238" stroke-linecap="round" stroke-linejoin="round"/>
<path d="M240.217 653.854C240.525 653.469 240.715 653.001 240.766 652.507C240.816 652.013 240.724 651.515 240.5 651.073C239.787 649.331 237.488 645.823 236.922 645.823C236.356 645.823 231.341 645.535 231.341 645.535" stroke="#263238" stroke-linecap="round" stroke-linejoin="round"/>
<path d="M242.357 648.592C242.357 648.592 239.787 642.904 238.496 642.327C237.206 641.75 231.907 641.738 231.907 641.738" stroke="#263238" stroke-linecap="round" stroke-linejoin="round"/>
<path d="M244.225 644.658C244.225 644.658 241.078 638.531 239.209 638.242C237.45 638.038 235.681 637.938 233.911 637.942" stroke="#263238" stroke-linecap="round" stroke-linejoin="round"/>
<path d="M213.883 576.406H217.506C223.521 576.408 229.389 578.298 234.313 581.817C239.237 585.337 242.978 590.317 245.029 596.079L266.223 655.758C266.448 656.395 266.52 657.078 266.432 657.75C266.343 658.421 266.098 659.061 265.716 659.615C265.334 660.17 264.827 660.622 264.237 660.935C263.648 661.248 262.993 661.411 262.329 661.412H155.01C154.068 661.412 153.135 661.223 152.265 660.855C151.395 660.487 150.604 659.948 149.939 659.269C149.273 658.589 148.745 657.783 148.386 656.895C148.026 656.008 147.842 655.057 147.844 654.096V585.833C147.842 584.595 148.08 583.37 148.543 582.226C149.007 581.083 149.687 580.043 150.545 579.168C151.403 578.292 152.422 577.597 153.544 577.124C154.666 576.65 155.868 576.406 157.082 576.406H213.883Z" stroke="#263238" stroke-linecap="round" stroke-linejoin="round"/>
<path d="M137.269 583.791V655.643C137.269 657.274 136.633 658.838 135.502 659.991C134.37 661.145 132.835 661.793 131.235 661.793H73.4939L90.4765 602.945C92.2179 596.899 95.5638 591.46 100.145 587.229C106.095 581.726 113.783 578.578 121.815 578.356L131.552 578.09C132.297 578.073 133.037 578.208 133.73 578.487C134.423 578.766 135.055 579.183 135.587 579.714C136.12 580.245 136.543 580.879 136.832 581.579C137.121 582.279 137.269 583.031 137.269 583.791Z" fill="#70B2E2"/>
<path d="M89.9216 604.814L134.959 660.454C133.9 661.314 132.588 661.785 131.235 661.793H110.176L82.8569 629.311L89.9216 604.814Z" fill="white" fill-opacity="0.2"/>
<path d="M76.1769 652.481L79.7659 640.031L96.8957 661.793H84.2493L76.1769 652.481Z" fill="white" fill-opacity="0.2"/>
<path d="M137.269 583.791V655.643C137.269 657.274 136.633 658.838 135.502 659.991C134.37 661.145 132.835 661.793 131.235 661.793H73.494L90.4765 602.945C92.2179 596.899 95.5638 591.46 100.145 587.229V587.229C106.095 581.726 113.783 578.578 121.815 578.356L131.552 578.09C132.297 578.073 133.037 578.208 133.73 578.487C134.423 578.766 135.055 579.183 135.587 579.714C136.12 580.245 136.543 580.879 136.832 581.579C137.121 582.279 137.269 583.031 137.269 583.791V583.791Z" stroke="#263238" stroke-linecap="round" stroke-linejoin="round"/>
<path d="M226.337 577.802C230.62 579.181 234.534 581.548 237.776 584.717C241.018 587.887 243.499 591.775 245.029 596.079L266.223 655.758C266.448 656.395 266.52 657.079 266.432 657.75C266.343 658.421 266.098 659.061 265.716 659.615C265.334 660.17 264.827 660.622 264.237 660.935C263.648 661.248 262.993 661.411 262.329 661.412H226.337V577.802Z" stroke="#263238" stroke-linecap="round" stroke-linejoin="round"/>
<path d="M340.55 707.775C340.55 707.775 344.456 710.636 344.456 714.098C344.456 717.56 342.192 722.175 339.927 722.948C337.663 723.722 337.21 720.352 337.21 720.352C337.21 720.352 340.403 712.206 340.55 707.775Z" fill="#263238" stroke="#263238" stroke-linecap="round" stroke-linejoin="round"/>
<path d="M332.446 673.593L335.794 672.948C337.533 672.612 339.209 673.777 339.538 675.549L343.538 697.102C343.866 698.874 342.724 700.583 340.985 700.918L337.636 701.563C335.898 701.898 334.222 700.734 333.893 698.962L329.893 677.408C329.564 675.636 330.707 673.928 332.446 673.593Z" fill="white" stroke="#263238" stroke-linecap="round" stroke-linejoin="round"/>
<path d="M40.2873 689.486H42.9252C45.8453 689.486 48.2125 691.898 48.2125 694.874V710.256C48.2125 713.232 45.8453 715.644 42.9252 715.644H40.2873C37.3672 715.644 35 713.232 35 710.256V694.874C35 691.898 37.3672 689.486 40.2873 689.486Z" fill="white" stroke="#263238" stroke-linecap="round" stroke-linejoin="round"/>
<path d="M301.252 767.569C281.762 767.569 265.963 751.466 265.963 731.603C265.963 711.739 281.762 695.636 301.252 695.636C320.742 695.636 336.542 711.739 336.542 731.603C336.542 751.466 320.742 767.569 301.252 767.569Z" fill="#263238"/>
<path d="M302.602 695.5L301.253 731.603L319.602 701L312.102 697L302.602 695.5ZM280.602 761L301.241 731.556L297.102 767.5L288.102 765L280.602 761Z" fill="white"/>
<path d="M301.252 767.569C281.762 767.569 265.963 751.466 265.963 731.603C265.963 711.739 281.762 695.636 301.252 695.636C320.742 695.636 336.542 711.739 336.542 731.603C336.542 751.466 320.742 767.569 301.252 767.569Z" stroke="#263238" stroke-linecap="round" stroke-linejoin="round"/>
<path d="M301.252 755.257C288.434 755.257 278.043 744.667 278.043 731.603C278.043 718.538 288.434 707.948 301.252 707.948C314.071 707.948 324.462 718.538 324.462 731.603C324.462 744.667 314.071 755.257 301.252 755.257Z" fill="#EFEFF0" stroke="#263238" stroke-linecap="round" stroke-linejoin="round"/>
<path d="M301.252 748.715C291.979 748.715 284.462 741.053 284.462 731.602C284.462 722.152 291.979 714.49 301.252 714.49C310.525 714.49 318.042 722.152 318.042 731.602C318.042 741.053 310.525 748.715 301.252 748.715Z" fill="#F9F9FA" stroke="#263238" stroke-linecap="round" stroke-linejoin="round"/>
<path d="M66.5399 732.215C66.5399 712.436 82.407 696.149 101.98 695.837C121.553 695.525 137.42 711.307 137.42 731.087C137.42 750.866 121.553 767.153 101.98 767.465C82.407 767.776 66.5399 751.994 66.5399 732.215Z" fill="#263238"/>
<path d="M68.6019 719L101.99 731.603L78.6019 704.5L72.1019 712L68.6019 719ZM123.602 760.5L101.968 731.603L134.102 746.5L129.602 754L123.602 760.5Z" fill="white"/>
<path d="M66.5399 732.215C66.5399 712.436 82.407 696.149 101.98 695.837C121.553 695.525 137.42 711.307 137.42 731.087C137.42 750.866 121.553 767.153 101.98 767.465C82.407 767.776 66.5399 751.994 66.5399 732.215Z" stroke="#263238" stroke-linecap="round" stroke-linejoin="round"/>
<path d="M80.9441 741.562C75.543 729.714 80.5885 715.648 92.2133 710.143C103.838 704.638 117.64 709.781 123.041 721.628C128.442 733.476 123.397 747.543 111.772 753.047C100.147 758.552 86.3451 753.41 80.9441 741.562Z" fill="#EFEFF0" stroke="#263238" stroke-linecap="round" stroke-linejoin="round"/>
<path d="M97.3309 748.016C88.4194 745.403 83.2736 735.922 85.8373 726.84C88.401 717.758 97.7035 712.513 106.615 715.126C115.526 717.739 120.672 727.22 118.109 736.302C115.545 745.384 106.242 750.629 97.3309 748.016Z" fill="#F9F9FA" stroke="#263238" stroke-linecap="round" stroke-linejoin="round"/>
<path d="M260.902 654.2C258.173 660.35 257.505 666.074 259.521 666.985C261.536 667.897 265.306 663.639 268.035 657.489C270.763 651.339 271.431 645.604 269.416 644.692C267.401 643.781 263.642 648.039 260.902 654.2Z" fill="#263238" stroke="#263238" stroke-linecap="round" stroke-linejoin="round"/>
</svg>
