<svg width="198" height="181" viewBox="0 0 198 181" fill="none" xmlns="http://www.w3.org/2000/svg">
<path opacity="0.7" d="M51.8537 149.382C51.8537 149.382 75.5985 166.252 105.727 158.519C135.856 150.786 157.32 124.646 175.266 103.917C193.212 83.1886 193.583 57.0692 176.919 40.4215C160.256 23.7737 142.215 36.3182 114.245 29.3051C86.2754 22.292 79.9364 16.1989 52.4788 25.491C25.0212 34.7831 10.3937 70.815 20.8113 103.467C31.2289 136.119 51.8537 149.382 51.8537 149.382Z" fill="#2389CF" fill-opacity="0.2"/>
<path d="M58.396 49.1935L40.2215 43.7326C39.5161 43.5207 38.7716 43.9176 38.5585 44.6192L35.3259 55.2629C35.1129 55.9644 35.5119 56.705 36.2173 56.9169L54.3918 62.3777C55.0972 62.5897 55.8417 62.1927 56.0548 61.4912L59.2874 50.8475C59.5004 50.1459 59.1014 49.4054 58.396 49.1935Z" stroke="#263238" stroke-width="1.00285" stroke-miterlimit="10"/>
<path d="M37.9172 46.2634L58.5774 52.4912" stroke="#263238" stroke-miterlimit="10"/>
<path d="M37.2883 48.3254L57.9523 54.5533" stroke="#263238" stroke-miterlimit="10"/>
<path d="M51.6648 58.4101C51.6122 58.5836 51.5956 58.7659 51.6157 58.9461C51.6359 59.1262 51.6926 59.3004 51.7823 59.4581C51.4726 59.6103 51.1163 59.6399 50.7855 59.5411C50.5748 59.4777 50.383 59.364 50.2268 59.2098C50.0706 59.0556 49.9548 58.8656 49.8895 58.6565C49.8243 58.4475 49.8117 58.2257 49.8527 58.0106C49.8937 57.7955 49.9871 57.5937 50.1247 57.4229C50.2624 57.2521 50.4401 57.1175 50.6422 57.0309C50.8443 56.9442 51.0647 56.9083 51.2841 56.9261C51.5034 56.9439 51.715 57.0149 51.9004 57.133C52.0857 57.2511 52.2391 57.4126 52.347 57.6033C52.185 57.6858 52.0411 57.7996 51.924 57.9381C51.8068 58.0767 51.7187 58.2372 51.6648 58.4101Z" stroke="#263238" stroke-miterlimit="10"/>
<path d="M54.2378 59.1861C54.1603 59.4393 54.009 59.6639 53.803 59.8316C53.5971 59.9993 53.3458 60.1025 53.0809 60.1281C52.816 60.1537 52.5494 60.1006 52.3149 59.9755C52.0803 59.8504 51.8884 59.6589 51.7632 59.4253C51.6381 59.1917 51.5854 58.9264 51.6119 58.663C51.6384 58.3996 51.7428 58.1499 51.9119 57.9455C52.0811 57.7411 52.3073 57.5912 52.5621 57.5148C52.8169 57.4383 53.0888 57.4388 53.3434 57.516C53.6846 57.6196 53.9705 57.8537 54.1382 58.1668C54.306 58.48 54.3418 58.8466 54.2378 59.1861Z" stroke="#263238" stroke-miterlimit="10"/>
<path d="M181.927 74.8861L166.899 70.3562C166.196 70.1442 165.453 70.5394 165.24 71.2388L162.606 79.8831C162.393 80.5825 162.79 81.3213 163.494 81.5332L178.521 86.0631C179.224 86.2751 179.967 85.88 180.18 85.1806L182.814 76.5362C183.027 75.8368 182.63 75.0981 181.927 74.8861Z" stroke="#263238" stroke-miterlimit="10"/>
<path d="M164.835 72.5696L182.41 77.8662" stroke="#263238" stroke-miterlimit="10"/>
<path d="M164.3 74.3259L181.871 79.6226" stroke="#263238" stroke-miterlimit="10"/>
<path d="M176.527 82.8909C176.482 83.038 176.467 83.1928 176.484 83.3458C176.501 83.4988 176.549 83.6467 176.626 83.7805C176.46 83.8608 176.277 83.8997 176.092 83.8939C175.908 83.8881 175.728 83.8377 175.567 83.7472C175.407 83.6566 175.271 83.5285 175.171 83.3741C175.072 83.2196 175.011 83.0433 174.996 82.8605C174.98 82.6776 175.009 82.4937 175.081 82.3246C175.152 82.1554 175.264 82.0062 175.407 81.8897C175.549 81.7732 175.718 81.6929 175.899 81.6559C176.08 81.6188 176.267 81.626 176.444 81.677C176.725 81.7611 176.963 81.9502 177.107 82.2047C176.969 82.2738 176.846 82.3702 176.746 82.4882C176.646 82.6062 176.572 82.7432 176.527 82.8909V82.8909Z" stroke="#263238" stroke-miterlimit="10"/>
<path d="M178.715 83.5625C178.648 83.7754 178.519 83.9639 178.344 84.1041C178.17 84.2443 177.958 84.3301 177.734 84.3506C177.511 84.3712 177.286 84.3255 177.089 84.2194C176.892 84.1133 176.73 83.9516 176.625 83.7545C176.52 83.5574 176.476 83.3338 176.498 83.1118C176.521 82.8898 176.609 82.6793 176.751 82.5068C176.893 82.3344 177.084 82.2077 177.298 82.1426C177.513 82.0776 177.742 82.0771 177.957 82.1413C178.101 82.1843 178.235 82.2554 178.351 82.3503C178.467 82.4453 178.564 82.5623 178.634 82.6945C178.705 82.8267 178.748 82.9714 178.762 83.1205C178.776 83.2695 178.76 83.4197 178.715 83.5625V83.5625Z" stroke="#263238" stroke-miterlimit="10"/>
<path d="M157.876 33.5866L135.938 43.5769L141.163 54.9294L163.102 44.9391L157.876 33.5866Z" stroke="#263238" stroke-miterlimit="10"/>
<path d="M161.216 43.3074L157.895 36.0956C157.585 36.2365 157.232 36.2493 156.912 36.1313C156.592 36.0133 156.333 35.7741 156.19 35.4661L138.456 43.5411C138.597 43.8496 138.61 44.2014 138.492 44.5194C138.373 44.8374 138.132 45.0956 137.823 45.2376L141.143 52.4493C141.297 52.3792 141.463 52.3399 141.632 52.3338C141.801 52.3277 141.969 52.3548 142.128 52.4137C142.286 52.4725 142.432 52.5619 142.555 52.6767C142.679 52.7915 142.779 52.9295 142.849 53.0826L160.579 45.0038C160.508 44.8509 160.469 44.6856 160.463 44.5175C160.457 44.3494 160.484 44.1817 160.543 44.0241C160.602 43.8665 160.692 43.722 160.807 43.599C160.923 43.476 161.062 43.3769 161.216 43.3074Z" stroke="#263238" stroke-miterlimit="10"/>
<path d="M151.528 46.8624C152.972 45.759 153.244 43.7 152.134 42.2635C151.025 40.827 148.955 40.557 147.511 41.6605C146.067 42.7639 145.795 44.8229 146.904 46.2594C148.014 47.6959 150.084 47.9659 151.528 46.8624Z" stroke="#263238" stroke-miterlimit="10"/>
<path d="M150.417 45.8481L150.663 46.3834L150.428 46.489L150.185 45.9612C149.77 46.1409 149.305 46.1702 148.87 46.0441V45.7161C149.254 45.8318 149.667 45.8118 150.038 45.6596L149.481 44.4382C148.904 44.5475 148.309 44.6304 148.025 44.0122C147.82 43.5673 147.964 43.032 148.654 42.6512L148.408 42.1121L148.643 42.0066L148.901 42.5532C149.242 42.4061 149.617 42.3565 149.985 42.41V42.7379C149.661 42.6915 149.33 42.7291 149.026 42.8473L149.594 44.0838C150.182 43.9669 150.807 43.8614 151.11 44.4872C151.3 44.9207 151.137 45.4673 150.417 45.8481ZM149.333 44.1102L148.795 42.9302C148.328 43.1903 148.226 43.5372 148.362 43.8312C148.522 44.2007 148.901 44.1856 149.329 44.1102H149.333ZM150.762 44.6417C150.595 44.2647 150.193 44.3024 149.746 44.3891L150.28 45.554C150.796 45.2826 150.894 44.9395 150.758 44.6417H150.762Z" fill="#263238"/>
<path d="M36.8048 85.3006L19.9348 86.8108L20.7245 95.538L37.5945 94.0279L36.8048 85.3006Z" stroke="#263238" stroke-width="1.00404" stroke-miterlimit="10"/>
<path d="M36.2388 92.2632L35.7612 86.7403C35.5236 86.7602 35.2878 86.6857 35.1052 86.5331C34.9227 86.3805 34.8083 86.1622 34.7871 85.926L21.2032 87.0947C21.2222 87.3308 21.1469 87.5648 20.9937 87.7462C20.8405 87.9275 20.6216 88.0415 20.3845 88.0635L20.8621 93.5864C20.9798 93.576 21.0985 93.5889 21.2112 93.6243C21.324 93.6596 21.4286 93.7168 21.5191 93.7924C21.6096 93.8681 21.6841 93.9607 21.7386 94.0651C21.793 94.1695 21.8261 94.2835 21.8362 94.4007L35.4201 93.232C35.4011 92.9959 35.4764 92.7619 35.6296 92.5806C35.7828 92.3992 36.0017 92.2852 36.2388 92.2632V92.2632Z" stroke="#263238" stroke-miterlimit="10"/>
<path d="M30.6107 89.9672C30.6502 90.4196 30.554 90.8736 30.3341 91.2716C30.1142 91.6696 29.7806 91.9938 29.3755 92.2033C28.9703 92.4127 28.5118 92.4978 28.058 92.448C27.6041 92.3982 27.1753 92.2156 26.8258 91.9234C26.4763 91.6312 26.2218 91.2424 26.0945 90.8062C25.9672 90.3701 25.9727 89.9062 26.1105 89.4732C26.2483 89.0403 26.5121 88.6576 26.8685 88.3738C27.225 88.09 27.658 87.9177 28.113 87.8787C28.4149 87.8523 28.7191 87.8854 29.0082 87.9762C29.2972 88.0669 29.5654 88.2135 29.7975 88.4075C30.0295 88.6015 30.2207 88.8391 30.3603 89.1067C30.4998 89.3744 30.5849 89.6668 30.6107 89.9672V89.9672Z" stroke="#263238" stroke-miterlimit="10"/>
<path d="M28.5255 91.4229L28.5596 91.8338H28.3815L28.3436 91.4267C28.0286 91.4475 27.7162 91.3582 27.4605 91.1741L27.5439 90.963C27.77 91.1265 28.0453 91.2089 28.3247 91.1967L28.2451 90.258C27.8395 90.1977 27.4264 90.111 27.3885 89.6397C27.3582 89.2967 27.578 88.9762 28.1238 88.8858L28.0897 88.4749H28.2678L28.3019 88.8782C28.5648 88.8615 28.8272 88.9177 29.0599 89.0403L28.9879 89.2552C28.7857 89.1507 28.5601 89.0988 28.3322 89.1044L28.4118 90.0507C28.825 90.111 29.2646 90.1901 29.3063 90.6689C29.329 91.0195 29.0903 91.34 28.5255 91.4229ZM28.2223 90.0243L28.1427 89.1308C27.7637 89.1949 27.6273 89.3985 27.6462 89.6247C27.6652 89.8509 27.9191 89.9753 28.2223 90.0243ZM29.0372 90.7104C29.0107 90.4276 28.7416 90.3334 28.427 90.3032L28.5028 91.1967C28.897 91.1326 29.0562 90.9366 29.0372 90.7104Z" fill="#263238"/>
<path d="M173.283 38.675C175.104 38.675 176.58 37.2066 176.58 35.3953C176.58 33.5839 175.104 32.1155 173.283 32.1155C171.462 32.1155 169.986 33.5839 169.986 35.3953C169.986 37.2066 171.462 38.675 173.283 38.675Z" stroke="#263238" stroke-miterlimit="10"/>
<path d="M173.431 37.2159V37.804H173.159V37.2196C172.707 37.2108 172.271 37.047 171.927 36.7559L172.075 36.4619C172.376 36.7251 172.758 36.8792 173.159 36.8992V35.5534C172.59 35.4139 172.022 35.2405 172.022 34.5619C172.022 34.0718 172.378 33.6458 173.159 33.5855V32.9861H173.416V33.5704C173.788 33.5783 174.15 33.6892 174.462 33.8908L174.334 34.1924C174.059 34.0161 173.743 33.9135 173.416 33.8946V35.2518C173.996 35.3913 174.61 35.5534 174.61 36.2432C174.625 36.7371 174.25 37.1706 173.431 37.2159ZM173.174 35.1839V33.9059C172.643 33.9512 172.416 34.2226 172.416 34.5468C172.401 34.9351 172.749 35.0784 173.159 35.1839H173.174ZM174.25 36.2621C174.25 35.8587 173.871 35.7192 173.431 35.6099V36.8992C173.996 36.8502 174.25 36.5901 174.25 36.2621Z" fill="#263238"/>
<path d="M151.565 79.2733C153.338 78.8578 154.436 77.0917 154.018 75.3286C153.6 73.5656 151.825 72.4731 150.052 72.8886C148.28 73.3041 147.181 75.0701 147.599 76.8332C148.017 78.5963 149.792 79.6887 151.565 79.2733Z" stroke="#263238" stroke-miterlimit="10"/>
<path d="M149.977 77.7033L149.67 78.2047L149.451 78.069L149.758 77.5714C149.376 77.3302 149.091 76.9632 148.954 76.5347L149.235 76.3613C149.353 76.7407 149.598 77.069 149.928 77.2924L150.641 76.1426C150.228 75.7317 149.83 75.2831 150.186 74.7063C150.444 74.2878 150.97 74.1106 151.675 74.4688L151.986 73.9636L152.206 74.0993L151.899 74.597C152.21 74.7984 152.46 75.0798 152.623 75.4113L152.354 75.6035C152.211 75.311 151.996 75.0594 151.728 74.8722L151.012 76.0295C151.437 76.4517 151.873 76.9079 151.509 77.496C151.247 77.9182 150.701 78.0879 149.977 77.7033ZM150.83 75.8184L151.501 74.7289C151.027 74.4914 150.682 74.597 150.512 74.8722C150.307 75.2228 150.523 75.5281 150.83 75.8372V75.8184ZM151.179 77.2962C151.391 76.9531 151.145 76.6402 150.823 76.316L150.148 77.4093C150.652 77.6883 151.005 77.6129 151.175 77.315L151.179 77.2962Z" fill="#263238"/>
<path d="M103.487 12.7717C103.758 13.3618 103.847 14.0184 103.743 14.6587C103.638 15.299 103.345 15.8941 102.901 16.3688C102.456 16.8435 101.881 17.1765 101.246 17.3257C100.611 17.4748 99.9464 17.4335 99.3354 17.2068C98.7244 16.9802 98.1947 16.5784 97.8132 16.0523C97.4317 15.5262 97.2157 14.8995 97.1923 14.2513C97.1689 13.603 97.3394 12.9625 97.682 12.4106C98.0246 11.8587 98.5241 11.4202 99.1172 11.1507C99.5111 10.9711 99.9367 10.8706 100.37 10.855C100.803 10.8393 101.234 10.9087 101.64 11.0593C102.046 11.2099 102.418 11.4386 102.735 11.7325C103.052 12.0263 103.308 12.3795 103.487 12.7717V12.7717Z" stroke="#263238" stroke-miterlimit="10"/>
<path d="M101.384 15.7239L101.63 16.2592L101.395 16.3686L101.145 15.837C100.73 16.0167 100.265 16.0461 99.83 15.92V15.592C100.213 15.707 100.623 15.6883 100.994 15.5392L100.433 14.3102C99.8565 14.4196 99.2614 14.4987 98.9772 13.8842C98.7725 13.4356 98.9165 12.9041 99.6101 12.5233L99.3638 11.9842L99.595 11.8787L99.8413 12.4102C100.182 12.2631 100.558 12.2135 100.925 12.267V12.5949C100.602 12.5493 100.271 12.5869 99.9664 12.7043L100.535 13.9408C101.122 13.8239 101.748 13.7221 102.051 14.3442C102.282 14.7965 102.108 15.3432 101.384 15.7239ZM100.3 13.986L99.7655 12.8211C99.2993 13.0812 99.197 13.4281 99.3335 13.7184C99.4964 14.0727 99.8717 14.0614 100.3 13.986ZM101.729 14.5176C101.558 14.1406 101.16 14.182 100.713 14.265L101.247 15.4299C101.744 15.1584 101.865 14.8192 101.729 14.5176Z" fill="#263238"/>
<path d="M92.3819 145.595C92.7888 146.481 92.9223 147.468 92.7655 148.43C92.6087 149.392 92.1687 150.286 91.5011 150.999C90.8334 151.712 89.9682 152.212 89.0147 152.437C88.0613 152.661 87.0624 152.598 86.1445 152.258C85.2265 151.917 84.4307 151.314 83.8577 150.523C83.2846 149.733 82.9601 148.791 82.925 147.817C82.89 146.844 83.1461 145.881 83.6609 145.052C84.1758 144.223 84.9262 143.564 85.8173 143.16C86.4091 142.891 87.0484 142.74 87.6986 142.717C88.3488 142.694 88.9972 142.799 89.6068 143.025C90.2164 143.251 90.7752 143.594 91.2513 144.035C91.7275 144.476 92.1117 145.006 92.3819 145.595V145.595Z" stroke="#263238" stroke-miterlimit="10"/>
<path d="M89.2172 150.036L89.5963 150.843L89.2438 151.002L88.8648 150.202C88.2419 150.474 87.5431 150.519 86.8901 150.33L86.9128 149.84C87.4881 150.011 88.1047 149.98 88.6601 149.754L87.8149 147.914C86.9545 148.076 86.0562 148.197 85.6317 147.273C85.321 146.602 85.5408 145.799 86.5793 145.226L86.2003 144.423L86.549 144.261L86.928 145.06C87.441 144.841 88.005 144.766 88.5577 144.845V145.335C88.0725 145.267 87.5779 145.324 87.1213 145.501L87.9703 147.356C88.8534 147.183 89.7933 147.028 90.2254 147.963C90.5514 148.645 90.3088 149.467 89.2172 150.036ZM87.595 147.424L86.7877 145.675C86.0941 146.052 85.9387 146.583 86.1434 147.028C86.386 147.56 86.9469 147.541 87.595 147.424ZM89.7403 148.227C89.4863 147.673 88.8837 147.718 88.2242 147.85L89.0277 149.599C89.7744 149.188 89.9449 148.675 89.7403 148.227Z" fill="#263238"/>
<path d="M21.4229 69.0295C20.6868 69.6726 19.7756 70.0841 18.8045 70.2121C17.8333 70.3401 16.8458 70.1789 15.9668 69.7487C15.0878 69.3185 14.3567 68.6388 13.8661 67.7954C13.3754 66.952 13.1472 65.9829 13.2102 65.0105C13.2733 64.0381 13.6248 63.1061 14.2203 62.3324C14.8158 61.5587 15.6286 60.978 16.5559 60.6637C17.4832 60.3494 18.4834 60.3157 19.4299 60.5667C20.3765 60.8178 21.227 61.3423 21.8739 62.0741C22.3036 62.5602 22.6328 63.1257 22.8427 63.7384C23.0526 64.351 23.139 64.9988 23.0972 65.6447C23.0553 66.2907 22.8858 66.922 22.5986 67.5028C22.3113 68.0836 21.9118 68.6023 21.4229 69.0295Z" stroke="#263238" stroke-miterlimit="10"/>
<path d="M16.2454 67.2955L15.5783 67.8799L15.3206 67.5896L15.9839 67.0128C15.5445 66.4956 15.2993 65.8426 15.2903 65.1656L15.7716 65.0449C15.7719 65.6388 15.9735 66.2153 16.3439 66.681L17.86 65.3465C17.4545 64.5737 17.0792 63.7519 17.86 63.0846C18.421 62.5983 19.2548 62.5757 20.1038 63.3975L20.7936 62.8169L21.0475 63.1034L20.3843 63.684C20.7371 64.1109 20.9652 64.626 21.0437 65.1731L20.5738 65.3277C20.4983 64.8456 20.3014 64.3904 20.0015 64.0044L18.4589 65.3503C18.8796 66.1382 19.3003 66.9902 18.5233 67.6725C17.9586 68.1626 17.0982 68.189 16.2454 67.2955ZM18.2921 64.9959L19.7437 63.7255C19.1676 63.1751 18.6067 63.1788 18.258 63.4993C17.8032 63.8838 17.9851 64.4191 18.2807 64.9959H18.2921ZM18.1367 67.2578C18.5991 66.8582 18.3831 66.2965 18.0647 65.6933L16.613 66.9638C17.2081 67.5707 17.7615 67.5934 18.1405 67.2691L18.1367 67.2578Z" fill="#263238"/>
<path d="M44.101 111.056C44.1539 109.742 43.1259 108.635 41.8051 108.582C40.4843 108.529 39.3707 109.552 39.3178 110.866C39.265 112.179 40.2929 113.287 41.6138 113.34C42.9346 113.392 44.0482 112.37 44.101 111.056Z" stroke="#263238" stroke-width="1.0008" stroke-miterlimit="10"/>
<path d="M42.3984 111.422L42.6713 111.75L42.531 111.867L42.2581 111.542C42.0017 111.747 41.6813 111.857 41.3523 111.852L41.2992 111.618C41.5885 111.625 41.8718 111.535 42.1027 111.362L41.4736 110.608C41.0946 110.792 40.6928 110.962 40.3744 110.585C40.147 110.313 40.147 109.91 40.5564 109.511L40.2797 109.183L40.4237 109.066L40.6966 109.39C40.9076 109.223 41.1607 109.118 41.4281 109.085L41.4963 109.311C41.262 109.343 41.0394 109.432 40.8482 109.571L41.4812 110.325C41.8602 110.133 42.2885 109.948 42.6182 110.325C42.8494 110.604 42.8418 111.018 42.3984 111.422ZM41.3144 110.412L40.7155 109.699C40.4427 109.97 40.4389 110.231 40.5867 110.412C40.7345 110.592 41.0301 110.543 41.3144 110.412ZM42.4173 110.513C42.2278 110.291 41.9549 110.385 41.6593 110.532L42.2581 111.245C42.55 110.958 42.5689 110.694 42.4173 110.51V110.513Z" fill="#263238"/>
<path d="M117.667 157.976C117.97 158.337 118.158 158.78 118.207 159.248C118.257 159.716 118.166 160.188 117.946 160.604C117.726 161.02 117.387 161.363 116.971 161.587C116.556 161.812 116.083 161.909 115.612 161.867C115.141 161.824 114.693 161.643 114.325 161.348C113.958 161.052 113.686 160.654 113.545 160.205C113.405 159.756 113.401 159.276 113.535 158.824C113.669 158.373 113.934 157.972 114.298 157.67C114.785 157.267 115.414 157.073 116.046 157.13C116.677 157.187 117.26 157.492 117.667 157.976V157.976Z" stroke="#263238" stroke-miterlimit="10"/>
<path d="M116.757 160.445L117.033 160.773L116.889 160.89L116.616 160.565C116.361 160.77 116.042 160.88 115.714 160.875L115.661 160.641C115.951 160.65 116.235 160.56 116.465 160.384L115.836 159.63C115.457 159.815 115.051 159.985 114.736 159.608C114.505 159.336 114.505 158.933 114.915 158.533L114.642 158.205L114.786 158.089L115.059 158.413C115.269 158.245 115.522 158.139 115.79 158.107L115.858 158.334C115.623 158.366 115.399 158.455 115.206 158.594L115.843 159.348C116.222 159.155 116.65 158.971 116.98 159.348C117.2 159.627 117.192 160.041 116.757 160.445ZM115.669 159.419L115.07 158.707C114.793 158.978 114.789 159.238 114.941 159.419C115.093 159.6 115.381 159.566 115.669 159.419ZM116.768 159.525C116.578 159.299 116.306 159.393 116.01 159.525L116.609 160.237C116.904 159.981 116.923 159.717 116.768 159.536V159.525Z" fill="#263238"/>
<path d="M52.2089 22.4546C52.3295 21.1463 51.361 19.9885 50.0457 19.8685C48.7304 19.7485 47.5663 20.7118 47.4457 22.0201C47.3251 23.3283 48.2936 24.4862 49.6089 24.6062C50.9242 24.7261 52.0883 23.7628 52.2089 22.4546Z" stroke="#263238" stroke-miterlimit="10"/>
<path d="M50.7626 23.184L51.0355 23.512L50.8915 23.6289L50.6186 23.3047C50.3639 23.5103 50.0444 23.6198 49.7165 23.6138L49.6635 23.3801C49.9528 23.3876 50.2361 23.2973 50.467 23.1237L49.8378 22.3698C49.4588 22.5545 49.0532 22.7241 48.7387 22.3471C48.5113 22.0757 48.5075 21.6723 48.9206 21.2727L48.6439 20.9447L48.7879 20.8279L49.0608 21.1521C49.2714 20.9847 49.5247 20.879 49.7923 20.8467L49.8606 21.0729C49.6263 21.1052 49.4037 21.1946 49.2124 21.333L49.8454 22.087C50.2244 21.8948 50.6527 21.71 50.9824 22.087C51.2061 22.366 51.1947 22.7807 50.7626 23.184ZM49.671 22.17L49.0722 21.4424C48.7993 21.7138 48.7917 21.9739 48.9433 22.1549C49.0949 22.3358 49.383 22.3057 49.671 22.17ZM50.774 22.2717C50.5845 22.0493 50.3078 22.1436 50.0159 22.2717L50.6148 22.9842C50.9066 22.7204 50.9256 22.4565 50.774 22.2717Z" fill="#263238"/>
<path opacity="0.2" d="M103.726 119.765C103.726 119.765 100.804 134.516 82.8805 137.86C82.8805 137.86 78.1996 141.573 76.6419 143.771C75.0841 145.969 66.7875 149.705 58.3354 161.361C49.8834 173.018 37.3 136.002 37.3 136.002L65.1122 100.075L103.726 119.765Z" fill="black" fill-opacity="0.7"/>
<path d="M119.656 50.5006C119.656 50.5006 129.321 45.7995 131.447 46.6101C133.574 47.4206 135.617 52.2837 127.487 56.9395C119.357 61.5953 121.783 70.2697 121.783 70.2697H127.581C127.581 70.2697 131.061 71.6797 132.414 73.493C133.767 75.3063 134.733 81.4888 135.507 83.5849C136.28 85.6809 135.886 87.7808 133.767 88.4631C133.767 88.4631 132.414 94.329 132.801 96.9302C133.187 99.5314 132.994 101.205 130.481 101.522C129.849 101.587 129.21 101.515 128.608 101.311C128.006 101.106 127.457 100.774 126.997 100.338C126.537 99.9008 126.179 99.3698 125.946 98.7815C125.713 98.1931 125.612 97.5615 125.648 96.9302L123.715 103.897L125.069 106.574C126.98 107.309 128.747 108.374 130.288 109.718C132.994 112.025 135.7 112.654 134.927 115.225C134.154 117.796 132.607 120.567 124.489 117.355C116.37 114.143 109.605 101.522 109.605 101.522L104.727 57.5125L119.656 50.5006Z" fill="white"/>
<path opacity="0.4" d="M129.829 75.7815C125.448 81.7228 130.295 88.5651 130.295 88.5651C130.295 88.5651 127.263 90.2465 127.176 94.5366C127.142 96.3198 127.593 98.8116 128.131 101.119C127.343 100.749 126.685 100.151 126.243 99.4042C125.801 98.6573 125.595 97.7953 125.652 96.9305L123.715 103.897L125.069 106.57C126.492 107.112 127.834 107.846 129.056 108.753C127.854 111.497 127.487 114.89 127.593 118.389C126.537 118.11 125.5 117.765 124.489 117.356C116.37 114.14 109.605 101.522 109.605 101.522L104.727 57.509L119.656 50.5008C119.656 50.5008 124.936 47.9335 128.552 46.9194C128.271 50.2822 128.931 53.7617 129.408 55.6994C128.792 56.1484 128.15 56.5624 127.487 56.9397C119.368 61.5955 121.783 70.27 121.783 70.27H127.585C127.585 70.27 130.89 71.6121 132.308 73.3575C131.338 74.0066 130.498 74.8284 129.829 75.7815Z" fill="#92E3A9"/>
<path d="M104.556 112.673C104.556 112.673 94.0422 133.178 75.0914 137.83C75.0914 137.83 74.3675 141.886 71.161 143.628C69.4479 144.555 62.5346 154.858 56.4666 164.264L22.8555 143.756C24.9249 141.72 27.2824 139.375 29.6778 136.929C36.6895 129.819 44.1713 121.849 46.4606 117.906C48.5073 114.4 51.0959 108.315 53.3511 102.596C56.2392 95.2828 58.5891 88.5649 58.5891 88.5649L69.7928 76.1771L87.4057 56.6982L88.1637 59.1901L104.556 112.673Z" fill="white"/>
<path opacity="0.4" d="M87.4207 56.6982L104.556 112.673C104.556 112.673 94.0421 133.177 75.0913 137.83C75.0913 137.83 74.3674 141.886 71.1609 143.628C69.6221 144.461 63.8952 152.849 58.354 161.346C60.4083 154.334 66.355 143.156 66.355 143.156C62.5383 138.659 63.6526 133.92 65.1801 135.27C66.7075 136.619 70.5469 140.412 70.7895 140.649C69.1029 138.674 68.7125 135.579 68.7125 135.579C68.7125 135.579 73.4426 138.708 73.8254 133.694C74.2082 128.68 70.9904 116.428 70.9904 116.428L62.5421 84.2107L87.4207 56.6982Z" fill="#08367E" fill-opacity="0.26"/>
<path d="M104.727 57.5125L119.656 50.5006C119.656 50.5006 129.321 45.7995 131.447 46.6101C133.574 47.4206 135.617 52.2837 127.487 56.9395C119.357 61.5953 121.783 70.2697 121.783 70.2697H127.581C127.581 70.2697 131.061 71.6797 132.414 73.493C133.767 75.3063 134.733 81.4888 135.507 83.5849C136.28 85.6809 135.886 87.7808 133.767 88.4631C133.767 88.4631 132.414 94.329 132.801 96.9302C133.187 99.5314 132.994 101.205 130.481 101.522C129.849 101.587 129.21 101.515 128.608 101.311C128.006 101.106 127.457 100.774 126.997 100.338C126.537 99.9008 126.179 99.3698 125.946 98.7815C125.713 98.1931 125.612 97.5615 125.648 96.9302L123.715 103.897L125.069 106.574C126.98 107.309 128.747 108.374 130.288 109.718C132.994 112.025 135.7 112.654 134.927 115.225C134.154 117.796 132.607 120.567 124.489 117.355C116.37 114.143 109.605 101.522 109.605 101.522" stroke="#263238" stroke-linecap="round" stroke-linejoin="round"/>
<path d="M133.767 88.4632C130.867 89.2436 127.487 88.6668 126.228 83.5624C124.97 78.458 127.487 73.0068 129.128 72.5054" stroke="#263238" stroke-linecap="round" stroke-linejoin="round"/>
<path d="M125.649 96.9305C125.649 96.9305 125.455 90.3671 127.874 88.7461" stroke="#263238" stroke-linecap="round" stroke-linejoin="round"/>
<path opacity="0.4" d="M55.14 129.528C55.14 129.528 48.0562 128.65 46.4757 125.498C45.1681 122.889 38.0805 132.661 29.6929 136.928C36.7047 129.818 44.1864 121.849 46.4757 117.906C48.5224 114.4 51.1111 108.315 53.3662 102.596C53.2525 107.339 50.7131 114.599 51.437 118.381C50.6613 118.585 49.9977 119.084 49.5898 119.772C49.1819 120.459 49.0625 121.278 49.2577 122.052C49.7997 125.057 55.14 129.528 55.14 129.528Z" fill="#08367E" fill-opacity="0.26"/>
<path d="M104.556 112.673C104.556 112.673 94.0421 133.178 75.0875 137.83C75.0875 137.83 74.3674 141.886 71.1609 143.628C69.4477 144.555 62.5383 154.858 56.4626 164.264" stroke="#263238" stroke-linecap="round" stroke-linejoin="round"/>
<path d="M22.8555 143.756C30.9512 135.798 43.3943 123.18 46.4757 117.906C51.1376 109.925 58.6042 88.5611 58.6042 88.5611L87.4094 56.6982" stroke="#263238" stroke-linecap="round" stroke-linejoin="round"/>
<path d="M70.9714 81.0327C70.9714 81.0327 75.3983 84.976 76.6567 88.5724" stroke="#263238" stroke-linecap="round" stroke-linejoin="round"/>
<path d="M123.226 23.5986H75.5952C74.1865 23.5986 73.0444 24.7345 73.0444 26.1358V126.991C73.0444 128.392 74.1865 129.528 75.5952 129.528H123.226C124.635 129.528 125.777 128.392 125.777 126.991V26.1358C125.777 24.7345 124.635 23.5986 123.226 23.5986Z" fill="#0C4399"/>
<path d="M109.863 26.4824L108.854 28.3183C108.748 28.5176 108.589 28.6844 108.395 28.8012C108.201 28.918 107.978 28.9804 107.751 28.9818H91.0748C90.8483 28.9806 90.6262 28.9192 90.4316 28.8038C90.237 28.6885 90.0769 28.5235 89.9681 28.3259L88.9637 26.4899C88.8557 26.2916 88.6959 26.1259 88.5011 26.0104C88.3063 25.8949 88.0837 25.834 87.8569 25.834H76.2022C76.0361 25.8345 75.8718 25.8676 75.7186 25.9313C75.5654 25.9951 75.4264 26.0883 75.3095 26.2057C75.1926 26.323 75.1001 26.4621 75.0374 26.615C74.9747 26.768 74.9429 26.9317 74.9439 27.0969V126.244C74.9439 126.577 75.0763 126.895 75.3122 127.131C75.5481 127.366 75.8681 127.499 76.2022 127.5H122.616C122.783 127.501 122.948 127.469 123.102 127.406C123.256 127.344 123.396 127.251 123.514 127.135C123.632 127.018 123.725 126.879 123.789 126.727C123.853 126.574 123.886 126.41 123.886 126.244V27.0969C123.886 26.7639 123.753 26.4446 123.517 26.2092C123.28 25.9738 122.959 25.8415 122.624 25.8415H110.973C110.747 25.8394 110.525 25.8977 110.329 26.0105C110.134 26.1233 109.973 26.2863 109.863 26.4824Z" fill="#70B2E2" stroke="#0C4399" stroke-linecap="round" stroke-linejoin="round"/>
<path d="M95.7937 27.3721C96.1684 27.3721 96.4721 27.07 96.4721 26.6973C96.4721 26.3246 96.1684 26.0225 95.7937 26.0225C95.419 26.0225 95.1152 26.3246 95.1152 26.6973C95.1152 27.07 95.419 27.3721 95.7937 27.3721Z" stroke="white" stroke-miterlimit="10"/>
<path d="M103.703 26.6976C103.702 26.7802 103.677 26.8607 103.63 26.9291C103.583 26.9974 103.517 27.0504 103.44 27.0815C103.363 27.1126 103.279 27.1204 103.198 27.1038C103.116 27.0872 103.042 27.0471 102.983 26.9884C102.925 26.9297 102.885 26.8552 102.869 26.7741C102.853 26.693 102.862 26.6091 102.894 26.5329C102.926 26.4566 102.98 26.3915 103.049 26.3457C103.118 26.2998 103.199 26.2754 103.282 26.2754C103.338 26.2754 103.393 26.2863 103.444 26.3076C103.495 26.3289 103.542 26.36 103.581 26.3993C103.62 26.4385 103.651 26.4851 103.672 26.5363C103.693 26.5875 103.703 26.6423 103.703 26.6976V26.6976Z" stroke="white" stroke-miterlimit="10"/>
<path d="M101.815 26.4331H97.6915C97.6568 26.4331 97.6225 26.44 97.5905 26.4533C97.5585 26.4666 97.5295 26.4861 97.5052 26.5106C97.4809 26.5352 97.4617 26.5643 97.4488 26.5963C97.4358 26.6283 97.4295 26.6625 97.43 26.697C97.43 26.766 97.4575 26.8321 97.5066 26.8809C97.5556 26.9297 97.6221 26.9571 97.6915 26.9571H101.815C101.885 26.9571 101.951 26.9297 102 26.8809C102.049 26.8321 102.077 26.766 102.077 26.697C102.077 26.6625 102.071 26.6283 102.058 26.5963C102.045 26.5643 102.026 26.5352 102.001 26.5106C101.977 26.4861 101.948 26.4666 101.916 26.4533C101.884 26.44 101.85 26.4331 101.815 26.4331Z" fill="white"/>
<path opacity="0.5" d="M123.56 47.7412H75.2581V93.5639H123.56V47.7412Z" fill="white"/>
<path d="M88.599 40.4231V41.2185C88.599 42.2024 88.1252 42.7265 87.155 42.7265H86.6964V45.0298H85.7261V38.9038H87.155C88.1252 38.9038 88.599 39.4391 88.599 40.4231ZM86.7039 39.7822V41.8594H87.1625C87.4695 41.8594 87.6363 41.7199 87.6363 41.2826V40.359C87.6363 39.9217 87.4695 39.7822 87.1625 39.7822H86.7039Z" fill="#263238"/>
<path d="M92.0759 45.0412H91.0981L90.9275 43.929H89.7412L89.5706 45.0412H88.6799L89.6692 38.9038H91.0867L92.0759 45.0412ZM89.8625 43.0959H90.7986L90.34 39.9933H90.3211L89.8625 43.0959Z" fill="#263238"/>
<path d="M92.9994 43.0092L91.7751 38.9038H92.8061L93.5376 41.701H93.5565L94.288 38.9038H95.2128L93.9886 43.0092V45.0412H93.0183L92.9994 43.0092Z" fill="#263238"/>
<path d="M97.627 43.2618H97.646L98.2979 38.9038H99.6472V45.0412H98.73V40.6417L98.078 45.0412H97.1608L96.4559 40.702V45.0412H95.5728V38.9038H96.922L97.627 43.2618Z" fill="#263238"/>
<path d="M101.323 41.4899H102.661V42.3683H101.331V44.1665H103.006V45.0412H100.353V38.9038H103.006V39.7822H101.331L101.323 41.4899Z" fill="#263238"/>
<path d="M104.479 40.5965H104.46V45.0412H103.588V38.9038H104.805L105.783 42.5794V38.9038H106.647V45.0412H105.654L104.479 40.5965Z" fill="#263238"/>
<path d="M107.081 38.9038H110.079V39.7822H109.063V45.0412H108.093V39.7822H107.081V38.9038Z" fill="#263238"/>
<path d="M111.806 38.8364C112.746 38.8364 113.232 39.3981 113.232 40.3783V40.5706H112.314V40.318C112.314 39.8769 112.14 39.711 111.829 39.711C111.518 39.711 111.348 39.8769 111.348 40.318C111.348 40.7591 111.541 41.0983 112.174 41.6487C112.985 42.3612 113.243 42.8664 113.243 43.5676C113.243 44.5515 112.746 45.1132 111.795 45.1132C110.844 45.1132 110.351 44.5515 110.351 43.5676V43.1906H111.268V43.6317C111.268 44.069 111.462 44.2273 111.769 44.2273C112.076 44.2273 112.273 44.069 112.273 43.6317C112.273 43.1944 112.079 42.8513 111.443 42.2972C110.632 41.5884 110.378 41.0795 110.378 40.3783C110.378 39.3981 110.863 38.8364 111.806 38.8364Z" fill="#263238"/>
<path d="M119.69 53.2944H79.1279V59.3224H119.69V53.2944Z" fill="white" stroke="#263238" stroke-linecap="round" stroke-linejoin="round"/>
<path d="M119.69 64.6001H79.1279V70.6281H119.69V64.6001Z" fill="white" stroke="#263238" stroke-linecap="round" stroke-linejoin="round"/>
<path d="M119.69 74.8799H79.1279V80.9079H119.69V74.8799Z" fill="white" stroke="#263238" stroke-linecap="round" stroke-linejoin="round"/>
<path d="M98.3327 83.106H79.1279V90.1631H98.3327V83.106Z" fill="white" stroke="#263238" stroke-linecap="round" stroke-linejoin="round"/>
<path d="M119.694 83.106H100.489V90.1631H119.694V83.106Z" fill="white" stroke="#263238" stroke-linecap="round" stroke-linejoin="round"/>
<path d="M81.6557 52.2421V52.4042H80.386V50.6211H81.6178V50.7832H80.5793V51.4203H81.5041V51.5786H80.5793V52.2421H81.6557Z" fill="#263238"/>
<path d="M84.287 51.6272V52.4038H84.0899V51.6498C84.0899 51.3671 83.9458 51.2201 83.7108 51.2201C83.6476 51.2174 83.5845 51.2285 83.526 51.2525C83.4675 51.2766 83.4149 51.313 83.372 51.3593C83.3291 51.4055 83.2968 51.4606 83.2774 51.5205C83.2581 51.5805 83.2521 51.6439 83.2598 51.7064V52.4076H83.0779V51.6536C83.0779 51.3709 82.9339 51.2238 82.6989 51.2238C82.6356 51.2212 82.5725 51.2322 82.514 51.2563C82.4555 51.2803 82.403 51.3167 82.3601 51.363C82.3171 51.4093 82.2848 51.4643 82.2655 51.5243C82.2461 51.5842 82.2401 51.6477 82.2478 51.7102V52.4113H82.0659V51.073H82.2403V51.3181C82.2921 51.2348 82.3656 51.167 82.453 51.1218C82.5404 51.0767 82.6385 51.0559 82.7368 51.0617C82.8361 51.0534 82.9355 51.0762 83.0212 51.1269C83.1068 51.1776 83.1743 51.2537 83.2143 51.3445C83.2695 51.2538 83.3483 51.1797 83.4424 51.1299C83.5365 51.0802 83.6423 51.0566 83.7487 51.0617C83.8234 51.0567 83.8982 51.0682 83.9678 51.0953C84.0375 51.1224 84.1003 51.1645 84.1517 51.2185C84.2031 51.2725 84.2419 51.3371 84.2653 51.4078C84.2886 51.4785 84.296 51.5534 84.287 51.6272Z" fill="#263238"/>
<path d="M85.7987 51.5744V52.4038H85.6243V52.1964C85.5732 52.2711 85.5031 52.3309 85.4213 52.37C85.3394 52.409 85.2486 52.4259 85.1581 52.4188C84.8549 52.4188 84.6692 52.2605 84.6692 52.0419C84.6692 51.8232 84.8018 51.6649 85.1884 51.6649H85.6054V51.5819C85.6054 51.352 85.4727 51.2276 85.2263 51.2276C85.063 51.2251 84.9042 51.2813 84.7791 51.3859L84.6957 51.2502C84.8528 51.1294 85.0467 51.0655 85.2453 51.0692C85.3167 51.0576 85.3898 51.0623 85.4591 51.0828C85.5284 51.1034 85.5921 51.1394 85.6454 51.188C85.6987 51.2367 85.7402 51.2967 85.7667 51.3637C85.7933 51.4306 85.8042 51.5027 85.7987 51.5744ZM85.6167 52.0042V51.7817H85.1922C84.9307 51.7817 84.8473 51.8835 84.8473 52.023C84.8473 52.1625 84.9724 52.2756 85.1884 52.2756C85.2775 52.2782 85.3652 52.2535 85.4397 52.205C85.5143 52.1565 85.5721 52.0864 85.6054 52.0042H85.6167Z" fill="#263238"/>
<path d="M86.249 50.6433C86.25 50.609 86.2644 50.5764 86.2892 50.5524C86.314 50.5285 86.3471 50.5151 86.3817 50.5151C86.4159 50.5151 86.4486 50.5286 86.4728 50.5527C86.497 50.5767 86.5105 50.6093 86.5105 50.6433C86.5105 50.6773 86.497 50.7099 86.4728 50.7339C86.4486 50.758 86.4159 50.7715 86.3817 50.7715C86.3471 50.7715 86.314 50.7581 86.2892 50.7342C86.2644 50.7103 86.25 50.6777 86.249 50.6433ZM86.2907 51.0655H86.4726V52.4038H86.2907V51.0655Z" fill="#263238"/>
<path d="M86.9814 50.5151H87.1624V52.4001H86.9814V50.5151Z" fill="#263238"/>
<path d="M82.9106 56.8793V57.0414H81.6409V55.2583H82.8727V55.4204H81.8152V56.0537H82.7438V56.2158H81.8152V56.8793H82.9106Z" fill="#263238"/>
<path d="M85.5407 56.2567V57.0333H85.3588V56.2793C85.3588 55.9966 85.2148 55.8496 84.9798 55.8496C84.9167 55.8463 84.8537 55.8569 84.7952 55.8805C84.7366 55.9041 84.684 55.9401 84.641 55.9861C84.598 56.0321 84.5657 56.0869 84.5463 56.1467C84.5269 56.2065 84.5209 56.2698 84.5287 56.3321V57.0371H84.3468V56.2831C84.3468 56.0004 84.2028 55.8533 83.9678 55.8533C83.9047 55.8501 83.8417 55.8606 83.7832 55.8842C83.7247 55.9078 83.6721 55.9439 83.6291 55.9899C83.5861 56.0359 83.5537 56.0907 83.5343 56.1505C83.5149 56.2103 83.5089 56.2735 83.5168 56.3359V57.0408H83.3311V55.6988H83.5054V55.9438C83.558 55.8615 83.6317 55.7946 83.7191 55.7502C83.8064 55.7058 83.904 55.6854 84.0019 55.6912C84.101 55.684 84.2 55.7073 84.2854 55.7578C84.3708 55.8084 84.4386 55.8839 84.4795 55.974C84.5344 55.883 84.6131 55.8087 84.7072 55.7589C84.8014 55.7091 84.9074 55.6857 85.0139 55.6912C85.0876 55.688 85.1611 55.7007 85.2293 55.7285C85.2976 55.7564 85.3589 55.7987 85.4091 55.8525C85.4592 55.9063 85.4969 55.9704 85.5197 56.0402C85.5424 56.11 85.5496 56.1839 85.5407 56.2567Z" fill="#263238"/>
<path d="M87.0496 56.2045V57.0339H86.8753V56.8265C86.8249 56.9007 86.7554 56.9601 86.6741 56.9986C86.5928 57.037 86.5026 57.0531 86.4129 57.0452C86.1097 57.0452 85.9202 56.8868 85.9202 56.6682C85.9202 56.4495 86.0566 56.2912 86.4432 56.2912H86.8715V56.212C86.8715 55.9821 86.7388 55.8577 86.4925 55.8577C86.328 55.8556 86.1682 55.9117 86.0414 56.016L85.9619 55.8803C86.1178 55.7572 86.3125 55.6931 86.5114 55.6993C86.5817 55.6902 86.6531 55.6967 86.7205 55.7184C86.7879 55.7401 86.8495 55.7765 86.9011 55.8249C86.9526 55.8732 86.9926 55.9324 87.0183 55.998C87.044 56.0637 87.0547 56.1342 87.0496 56.2045ZM86.8715 56.6305V56.4118H86.447C86.1855 56.4118 86.1021 56.5136 86.1021 56.6531C86.1021 56.7926 86.2272 56.9057 86.4432 56.9057C86.5347 56.9109 86.6255 56.8871 86.7025 56.8376C86.7795 56.7881 86.8387 56.7156 86.8715 56.6305Z" fill="#263238"/>
<path d="M87.5002 55.2689C87.5012 55.2345 87.5156 55.2019 87.5404 55.178C87.5652 55.154 87.5984 55.1407 87.6329 55.1407C87.6501 55.1402 87.6673 55.1431 87.6834 55.1493C87.6995 55.1555 87.7141 55.1649 87.7265 55.1769C87.7389 55.1888 87.7487 55.2031 87.7554 55.2189C87.7621 55.2347 87.7656 55.2517 87.7656 55.2689C87.7656 55.3038 87.7516 55.3374 87.7267 55.3622C87.7018 55.3869 87.6681 55.4008 87.6329 55.4008C87.5977 55.4008 87.564 55.3869 87.5391 55.3622C87.5142 55.3374 87.5002 55.3038 87.5002 55.2689ZM87.5419 55.6911H87.7239V57.0332H87.5419V55.6911Z" fill="#263238"/>
<path d="M88.2358 55.1406H88.413V57.0256H88.2358V55.1406Z" fill="#263238"/>
<path d="M90.153 56.2569V57.0335H89.971V56.2795C89.9791 56.2238 89.9745 56.167 89.9576 56.1133C89.9407 56.0596 89.912 56.0104 89.8734 55.9691C89.8349 55.9279 89.7876 55.8958 89.735 55.8752C89.6823 55.8545 89.6257 55.8458 89.5693 55.8498C89.5047 55.8444 89.4397 55.8533 89.379 55.8758C89.3183 55.8983 89.2634 55.9339 89.2181 55.98C89.1728 56.0261 89.1384 56.0816 89.1172 56.1425C89.096 56.2034 89.0886 56.2682 89.0955 56.3323V57.0373H88.9136V55.6952H89.0879V55.944C89.1428 55.8601 89.219 55.7921 89.3089 55.7471C89.3988 55.702 89.4991 55.6815 89.5996 55.6877C89.6755 55.6816 89.7517 55.6924 89.8229 55.7191C89.8941 55.7458 89.9585 55.7879 90.0114 55.8424C90.0643 55.8968 90.1044 55.9622 90.1289 56.0339C90.1534 56.1055 90.1616 56.1817 90.153 56.2569Z" fill="#263238"/>
<path d="M91.67 56.2045V57.0339H91.4956V56.8265C91.4452 56.9007 91.3758 56.9601 91.2944 56.9986C91.2131 57.037 91.1229 57.0531 91.0332 57.0452C90.7262 57.0452 90.5405 56.8869 90.5405 56.6682C90.5405 56.4495 90.6732 56.2912 91.0598 56.2912H91.4881V56.212C91.4881 55.9821 91.3592 55.8577 91.1091 55.8577C90.9457 55.8552 90.7869 55.9114 90.6618 56.016L90.5784 55.8803C90.7346 55.7578 90.9292 55.6938 91.128 55.6993C91.1985 55.6896 91.2704 55.6957 91.3382 55.7171C91.4061 55.7385 91.4683 55.7748 91.5203 55.8232C91.5722 55.8716 91.6126 55.931 91.6385 55.997C91.6644 56.063 91.6752 56.1339 91.67 56.2045ZM91.4881 56.6305V56.4118H91.0674C90.8058 56.4118 90.7187 56.5136 90.7187 56.6531C90.7187 56.7926 90.8437 56.9057 91.0598 56.9057C91.1519 56.9118 91.2436 56.8883 91.3213 56.8388C91.3991 56.7893 91.4588 56.7163 91.4919 56.6305H91.4881Z" fill="#263238"/>
<path d="M94.3906 56.2566V57.0332H94.2087V56.2792C94.2087 55.9965 94.0646 55.8495 93.8296 55.8495C93.7666 55.8462 93.7036 55.8568 93.645 55.8804C93.5865 55.904 93.5339 55.94 93.4909 55.986C93.4479 56.032 93.4156 56.0869 93.3962 56.1466C93.3768 56.2064 93.3708 56.2697 93.3786 56.332V57.037H93.1853V56.283C93.1853 56.0003 93.0413 55.8532 92.8063 55.8532C92.7432 55.85 92.6802 55.8605 92.6217 55.8841C92.5632 55.9077 92.5106 55.9438 92.4676 55.9898C92.4246 56.0358 92.3922 56.0906 92.3728 56.1504C92.3534 56.2102 92.3474 56.2735 92.3553 56.3358V57.0407H92.1733V55.6987H92.3477V55.9437C92.4003 55.8614 92.474 55.7945 92.5613 55.7501C92.6486 55.7057 92.7463 55.6853 92.8442 55.6911C92.9435 55.6828 93.0429 55.7056 93.1286 55.7563C93.2142 55.807 93.2818 55.8831 93.3218 55.9739C93.377 55.8832 93.4558 55.8091 93.5498 55.7593C93.6439 55.7096 93.7497 55.686 93.8562 55.6911C93.9305 55.6867 94.0049 55.6986 94.074 55.726C94.1432 55.7533 94.2055 55.7955 94.2565 55.8494C94.3075 55.9034 94.3459 55.9678 94.3691 56.0382C94.3923 56.1085 94.3996 56.1831 94.3906 56.2566Z" fill="#263238"/>
<path d="M96.0622 56.4186H94.9251C94.9348 56.55 94.9966 56.6722 95.0967 56.7584C95.1969 56.8447 95.3274 56.8878 95.4595 56.8785C95.5372 56.8806 95.6144 56.8658 95.6858 56.8352C95.7571 56.8046 95.8209 56.7589 95.8727 56.7013L95.975 56.8182C95.8783 56.9192 95.7537 56.9895 95.617 57.0204C95.4802 57.0513 95.3373 57.0414 95.2062 56.9919C95.0751 56.9424 94.9616 56.8555 94.8799 56.7421C94.7982 56.6287 94.752 56.4939 94.747 56.3545C94.7423 56.2661 94.756 56.1776 94.7871 56.0947C94.8183 56.0117 94.8663 55.9361 94.9282 55.8724C94.9901 55.8087 95.0645 55.7584 95.1468 55.7246C95.2291 55.6908 95.3175 55.6742 95.4065 55.6759C95.4952 55.6742 95.5833 55.6907 95.6652 55.7246C95.7471 55.7585 95.821 55.8089 95.8823 55.8727C95.9436 55.9365 95.9909 56.0123 96.0212 56.0952C96.0515 56.1781 96.0642 56.2664 96.0584 56.3545C96.0584 56.3545 96.0622 56.3997 96.0622 56.4186ZM94.9251 56.2829H95.8803C95.8803 56.1569 95.8299 56.0361 95.7404 55.947C95.6508 55.8579 95.5294 55.8079 95.4027 55.8079C95.276 55.8079 95.1546 55.8579 95.065 55.947C94.9755 56.0361 94.9251 56.1569 94.9251 56.2829Z" fill="#263238"/>
<path d="M98.7006 56.358C98.7006 56.7915 98.5376 57.0441 98.2723 57.0441C98.2349 57.0462 98.1975 57.0406 98.1623 57.0276C98.1272 57.0147 98.0951 56.9947 98.0681 56.9689C98.0411 56.943 98.0197 56.912 98.0052 56.8776C97.9908 56.8432 97.9837 56.8062 97.9843 56.7689C97.9315 56.8561 97.8562 56.9276 97.7662 56.976C97.6762 57.0244 97.5748 57.0479 97.4726 57.0441C97.2977 57.0441 97.1299 56.975 97.0063 56.852C96.8826 56.729 96.8131 56.5621 96.8131 56.3882C96.8131 56.2142 96.8826 56.0473 97.0063 55.9243C97.1299 55.8013 97.2977 55.7322 97.4726 55.7322C97.5735 55.7279 97.6738 55.7504 97.763 55.7975C97.8523 55.8445 97.9274 55.9144 97.9805 55.9999V55.7473H98.1472V56.7124C98.1472 56.8556 98.2192 56.9084 98.3064 56.9084C98.4618 56.9084 98.5642 56.7124 98.5642 56.3693C98.5682 56.2331 98.5435 56.0976 98.4916 55.9715C98.4397 55.8454 98.3617 55.7316 98.2627 55.6374C98.1637 55.5433 98.046 55.4708 97.917 55.4248C97.7881 55.3788 97.6509 55.3602 97.5143 55.3703C97.3789 55.3703 97.2448 55.3968 97.1198 55.4483C96.9947 55.4999 96.881 55.5754 96.7853 55.6706C96.6896 55.7658 96.6136 55.8789 96.5618 56.0033C96.51 56.1277 96.4834 56.261 96.4834 56.3957C96.4834 56.5304 96.51 56.6637 96.5618 56.7881C96.6136 56.9125 96.6896 57.0255 96.7853 57.1208C96.881 57.216 96.9947 57.2915 97.1198 57.343C97.2448 57.3946 97.3789 57.4211 97.5143 57.4211C97.685 57.4207 97.8534 57.382 98.007 57.308L98.0487 57.4324C97.8816 57.5106 97.699 57.5505 97.5143 57.5493C97.2067 57.5493 96.9117 57.4277 96.6942 57.2114C96.4767 56.9951 96.3545 56.7016 96.3545 56.3957C96.3545 56.0897 96.4767 55.7963 96.6942 55.58C96.9117 55.3637 97.2067 55.2421 97.5143 55.2421C97.6675 55.2311 97.8213 55.2519 97.9659 55.3033C98.1106 55.3546 98.2429 55.4353 98.3545 55.5403C98.466 55.6452 98.5544 55.7721 98.614 55.9129C98.6736 56.0537 98.7031 56.2053 98.7006 56.358ZM97.9805 56.3844C97.9864 56.3172 97.9783 56.2495 97.9565 56.1856C97.9347 56.1217 97.8999 56.063 97.854 56.0132C97.8082 55.9634 97.7525 55.9237 97.6904 55.8965C97.6284 55.8693 97.5613 55.8553 97.4934 55.8553C97.4256 55.8553 97.3585 55.8693 97.2964 55.8965C97.2343 55.9237 97.1786 55.9634 97.1328 56.0132C97.087 56.063 97.0521 56.1217 97.0304 56.1856C97.0086 56.2495 97.0004 56.3172 97.0064 56.3844C97.0004 56.4516 97.0086 56.5193 97.0304 56.5832C97.0521 56.6471 97.087 56.7058 97.1328 56.7556C97.1786 56.8053 97.2343 56.8451 97.2964 56.8723C97.3585 56.8994 97.4256 56.9135 97.4934 56.9135C97.5613 56.9135 97.6284 56.8994 97.6904 56.8723C97.7525 56.8451 97.8082 56.8053 97.854 56.7556C97.8999 56.7058 97.9347 56.6471 97.9565 56.5832C97.9783 56.5193 97.9864 56.4516 97.9805 56.3844Z" fill="#263238"/>
<path d="M100.254 56.4188H99.1174C99.1213 56.4842 99.1381 56.5482 99.1669 56.6071C99.1956 56.666 99.2358 56.7187 99.2851 56.7622C99.3344 56.8056 99.3919 56.8389 99.4541 56.8602C99.5164 56.8815 99.5823 56.8904 99.648 56.8863C99.7257 56.8884 99.8029 56.8737 99.8742 56.8431C99.9456 56.8125 100.009 56.7668 100.061 56.7091L100.163 56.826C100.067 56.927 99.9422 56.9973 99.8054 57.0283C99.6687 57.0592 99.5258 57.0492 99.3947 56.9997C99.2636 56.9502 99.1501 56.8633 99.0684 56.7499C98.9867 56.6365 98.9405 56.5017 98.9355 56.3623C98.9308 56.2739 98.9444 56.1854 98.9756 56.1025C99.0068 56.0195 99.0548 55.9439 99.1167 55.8802C99.1786 55.8165 99.253 55.7662 99.3353 55.7324C99.4175 55.6986 99.506 55.682 99.595 55.6837C99.6837 55.682 99.7718 55.6986 99.8537 55.7324C99.9356 55.7663 100.01 55.8168 100.071 55.8805C100.132 55.9443 100.179 56.0201 100.21 56.103C100.24 56.186 100.253 56.2742 100.247 56.3623C100.247 56.3623 100.254 56.4 100.254 56.4188ZM99.1174 56.2831H100.073C100.073 56.1571 100.022 56.0363 99.9326 55.9473C99.8431 55.8582 99.7216 55.8081 99.595 55.8081C99.4683 55.8081 99.3468 55.8582 99.2573 55.9473C99.1677 56.0363 99.1174 56.1571 99.1174 56.2831Z" fill="#263238"/>
<path d="M102.854 56.2568V57.0334H102.66V56.2794C102.66 55.9967 102.516 55.8496 102.281 55.8496C102.218 55.8464 102.155 55.857 102.097 55.8805C102.038 55.9041 101.986 55.9402 101.943 55.9862C101.9 56.0322 101.867 56.087 101.848 56.1468C101.829 56.2066 101.823 56.2699 101.83 56.3322V57.0372H101.648V56.2832C101.648 56.0004 101.504 55.8534 101.269 55.8534C101.206 55.8502 101.143 55.8607 101.085 55.8843C101.026 55.9079 100.974 55.944 100.931 55.99C100.888 56.036 100.855 56.0908 100.836 56.1506C100.817 56.2104 100.811 56.2736 100.818 56.336V57.0409H100.636V55.6988H100.811V55.9439C100.863 55.8619 100.936 55.7952 101.023 55.7508C101.109 55.7063 101.206 55.6858 101.304 55.6913C101.403 55.6839 101.503 55.707 101.589 55.7575C101.675 55.8081 101.743 55.8836 101.785 55.9741C101.839 55.8831 101.917 55.8087 102.01 55.7588C102.104 55.709 102.21 55.6856 102.316 55.6913C102.39 55.6863 102.465 55.6978 102.535 55.7249C102.604 55.752 102.667 55.794 102.718 55.848C102.77 55.9021 102.809 55.9667 102.832 56.0374C102.855 56.108 102.863 56.183 102.854 56.2568Z" fill="#263238"/>
<path d="M104.363 56.2046V57.0339H104.178V56.8266C104.127 56.9005 104.058 56.9597 103.976 56.9981C103.895 57.0365 103.805 57.0528 103.715 57.0452C103.408 57.0452 103.223 56.8869 103.223 56.6683C103.223 56.4496 103.355 56.2913 103.742 56.2913H104.178V56.2121C104.178 55.9821 104.049 55.8577 103.799 55.8577C103.635 55.8552 103.477 55.9114 103.352 56.0161L103.268 55.8804C103.424 55.7579 103.619 55.6938 103.818 55.6994C103.889 55.689 103.961 55.6946 104.029 55.7158C104.097 55.7369 104.16 55.7731 104.213 55.8216C104.265 55.8701 104.306 55.9297 104.332 55.996C104.358 56.0623 104.369 56.1336 104.363 56.2046ZM104.182 56.6306V56.4119H103.761C103.499 56.4119 103.412 56.5137 103.412 56.6532C103.412 56.7927 103.537 56.9058 103.753 56.9058C103.844 56.9102 103.934 56.886 104.01 56.8365C104.087 56.7871 104.145 56.715 104.178 56.6306H104.182Z" fill="#263238"/>
<path d="M104.818 55.2687C104.818 55.2426 104.826 55.2171 104.84 55.1954C104.855 55.1737 104.876 55.1568 104.9 55.1468C104.924 55.1368 104.951 55.1342 104.977 55.1393C105.002 55.1443 105.026 55.1569 105.045 55.1754C105.063 55.1938 105.076 55.2173 105.081 55.2429C105.086 55.2685 105.083 55.295 105.073 55.3192C105.063 55.3433 105.046 55.3639 105.024 55.3784C105.003 55.3929 104.977 55.4006 104.951 55.4006C104.916 55.4006 104.882 55.3867 104.857 55.362C104.832 55.3372 104.818 55.3037 104.818 55.2687ZM104.856 55.6909H105.038V57.033H104.856V55.6909Z" fill="#263238"/>
<path d="M105.545 55.1406H105.726V57.0256H105.545V55.1406Z" fill="#263238"/>
<path d="M106.118 56.9053C106.118 56.8873 106.121 56.8695 106.128 56.8528C106.134 56.8361 106.144 56.8209 106.157 56.8082C106.17 56.7955 106.185 56.7855 106.202 56.7789C106.219 56.7722 106.237 56.7691 106.255 56.7696C106.291 56.7696 106.326 56.7839 106.351 56.8093C106.377 56.8348 106.391 56.8693 106.391 56.9053C106.391 56.9417 106.377 56.9766 106.351 57.0026C106.326 57.0287 106.291 57.0438 106.255 57.0448C106.236 57.0448 106.218 57.0412 106.202 57.0341C106.185 57.027 106.17 57.0167 106.157 57.0037C106.144 56.9907 106.134 56.9753 106.127 56.9584C106.121 56.9415 106.118 56.9234 106.118 56.9053Z" fill="#263238"/>
<path d="M106.602 56.3625C106.6 56.2716 106.616 56.1813 106.65 56.097C106.684 56.0127 106.735 55.9363 106.8 55.8726C106.865 55.8089 106.943 55.7592 107.028 55.7267C107.114 55.6943 107.205 55.6797 107.296 55.6839C107.4 55.6771 107.504 55.6979 107.597 55.7443C107.691 55.7907 107.77 55.8609 107.827 55.9478L107.69 56.0382C107.648 55.9777 107.591 55.9282 107.525 55.8941C107.459 55.86 107.386 55.8422 107.311 55.8422C107.18 55.8533 107.057 55.9132 106.968 56.0099C106.879 56.1065 106.829 56.233 106.829 56.3643C106.829 56.4956 106.879 56.6221 106.968 56.7188C107.057 56.8155 107.18 56.8753 107.311 56.8865C107.386 56.8872 107.459 56.8696 107.525 56.8355C107.591 56.8013 107.648 56.7515 107.69 56.6904L107.827 56.7809C107.769 56.8672 107.69 56.937 107.597 56.9833C107.504 57.0296 107.4 57.0508 107.296 57.0448C107.205 57.049 107.113 57.0343 107.027 57.0016C106.942 56.9689 106.864 56.9189 106.799 56.8548C106.734 56.7907 106.683 56.7139 106.649 56.6291C106.615 56.5444 106.599 56.4536 106.602 56.3625Z" fill="#263238"/>
<path d="M108.024 56.362C108.024 56.2271 108.064 56.0952 108.139 55.9829C108.215 55.8707 108.322 55.7833 108.447 55.7316C108.572 55.68 108.71 55.6665 108.843 55.6928C108.977 55.7191 109.099 55.7841 109.195 55.8795C109.291 55.975 109.356 56.0966 109.382 56.2289C109.409 56.3613 109.395 56.4985 109.343 56.6232C109.291 56.7478 109.204 56.8544 109.091 56.9294C108.978 57.0044 108.845 57.0444 108.71 57.0444C108.619 57.0475 108.528 57.032 108.443 56.9989C108.359 56.9657 108.282 56.9156 108.217 56.8515C108.153 56.7875 108.103 56.7111 108.069 56.6268C108.036 56.5426 108.02 56.4525 108.024 56.362ZM109.21 56.362C109.207 56.2628 109.174 56.1667 109.116 56.0859C109.058 56.0051 108.977 55.9433 108.884 55.9083C108.79 55.8733 108.689 55.8666 108.591 55.8892C108.494 55.9118 108.406 55.9626 108.338 56.0352C108.27 56.1077 108.225 56.1988 108.209 56.2968C108.192 56.3948 108.206 56.4953 108.247 56.5857C108.289 56.676 108.356 56.7521 108.441 56.8042C108.526 56.8563 108.625 56.8822 108.725 56.8785C108.791 56.8776 108.857 56.8633 108.917 56.8366C108.978 56.8099 109.033 56.7713 109.078 56.723C109.123 56.6748 109.158 56.618 109.181 56.5559C109.204 56.4939 109.213 56.4279 109.21 56.362Z" fill="#263238"/>
<path d="M111.989 56.2568V57.0334H111.807V56.2794C111.807 55.9967 111.663 55.8496 111.428 55.8496C111.365 55.8464 111.302 55.857 111.244 55.8805C111.185 55.9041 111.132 55.9402 111.089 55.9862C111.046 56.0322 111.014 56.087 110.995 56.1468C110.975 56.2066 110.969 56.2699 110.977 56.3322V57.0372H110.795V56.2832C110.795 56.0004 110.651 55.8534 110.416 55.8534C110.353 55.8502 110.29 55.8607 110.232 55.8843C110.173 55.9079 110.12 55.944 110.077 55.99C110.034 56.036 110.002 56.0908 109.983 56.1506C109.963 56.2104 109.957 56.2736 109.965 56.336V57.0409H109.783V55.6988H109.958V55.9439C110.01 55.8619 110.083 55.7952 110.169 55.7508C110.256 55.7063 110.353 55.6858 110.45 55.6913C110.55 55.6839 110.65 55.707 110.736 55.7575C110.822 55.8081 110.89 55.8836 110.932 55.9741C110.986 55.8834 111.064 55.8092 111.157 55.7594C111.251 55.7096 111.356 55.686 111.462 55.6913C111.536 55.688 111.609 55.7008 111.678 55.7286C111.746 55.7565 111.807 55.7988 111.857 55.8526C111.908 55.9064 111.945 55.9705 111.968 56.0403C111.991 56.1101 111.998 56.184 111.989 56.2568Z" fill="#263238"/>
<path d="M81.9628 67.6459L82.2812 67.8269L82.2243 67.9324L81.9022 67.7477V68.1247H81.7847V67.7477L81.4625 67.9324L81.4019 67.8269L81.724 67.6459L81.4019 67.4687L81.4625 67.3594L81.7847 67.5479V67.1709H81.9022V67.5479L82.2243 67.3594L82.2812 67.4687L81.9628 67.6459Z" fill="#263238"/>
<path d="M83.0047 67.6459L83.323 67.8269L83.2624 67.9324L82.944 67.7477V68.1247H82.8228V67.7477L82.5044 67.9324L82.4399 67.8269L82.7621 67.6459L82.4399 67.4687L82.5044 67.3594L82.8228 67.5479V67.1709H82.9516V67.5479L83.27 67.3594L83.3306 67.4687L83.0047 67.6459Z" fill="#263238"/>
<path d="M84.0437 67.6459L84.3621 67.8269L84.3015 67.9324L83.9831 67.7477V68.1247H83.8656V67.7477L83.5472 67.9324L83.4866 67.8269L83.8049 67.6459L83.4866 67.4687L83.5472 67.3594L83.8656 67.5479V67.1709H83.9831V67.5479L84.3015 67.3594L84.3621 67.4687L84.0437 67.6459Z" fill="#263238"/>
<path d="M85.0824 67.6459L85.4008 67.8269L85.3439 67.9324L85.0218 67.7477V68.1247H84.9043V67.7477L84.5821 67.9324L84.5215 67.8269L84.8437 67.6459L84.5215 67.4687L84.5821 67.3594L84.9043 67.5479V67.1709H85.0218V67.5479L85.3439 67.3594L85.4008 67.4687L85.0824 67.6459Z" fill="#263238"/>
<path d="M86.1245 67.6459L86.4429 67.8269L86.3823 67.9324L86.0639 67.7477V68.1247H85.9426V67.7477L85.6242 67.9324L85.5598 67.8269L85.882 67.6459L85.5598 67.4687L85.6242 67.3594L85.9426 67.5479V67.1709H86.0639V67.5479L86.3823 67.3594L86.4429 67.4687L86.1245 67.6459Z" fill="#263238"/>
<path d="M87.1636 67.6459L87.482 67.8269L87.4213 67.9324L87.103 67.7477V68.1247H86.9855V67.7477L86.6671 67.9324L86.6064 67.8269L86.9248 67.6459L86.6064 67.4687L86.6671 67.3594L86.9855 67.5479V67.1709H87.1219V67.5479L87.4403 67.3594L87.5009 67.4687L87.1636 67.6459Z" fill="#263238"/>
<path d="M88.2016 67.6459L88.5199 67.8269L88.4631 67.9324L88.1409 67.7477V68.1247H88.0234V67.7477L87.7013 67.9324L87.6406 67.8269L87.9628 67.6459L87.6406 67.4687L87.7013 67.3594L88.0234 67.5479V67.1709H88.1409V67.5479L88.4631 67.3594L88.5199 67.4687L88.2016 67.6459Z" fill="#263238"/>
<path d="M89.2447 67.6459L89.563 67.8269L89.5024 67.9324L89.1802 67.7477V68.1247H89.0627V67.7477L88.7444 67.9324L88.6799 67.8269L89.0021 67.6459L88.6799 67.4687L88.7444 67.3594L89.0627 67.5479V67.1709H89.1802V67.5479L89.5024 67.3594L89.563 67.4687L89.2447 67.6459Z" fill="#263238"/>
<path d="M90.2827 67.6459L90.6011 67.8269L90.5405 67.9324L90.2221 67.7477V68.1247H90.1046V67.7477L89.7862 67.9324L89.7256 67.8269L90.044 67.6459L89.7256 67.4687L89.7862 67.3594L90.1046 67.5479V67.1709H90.2221V67.5479L90.5405 67.3594L90.6011 67.4687L90.2827 67.6459Z" fill="#263238"/>
<path d="M91.321 67.6459L91.6393 67.8269L91.5825 67.9324L91.2603 67.7477V68.1247H91.1428V67.7477L90.8206 67.9324L90.76 67.8269L91.0784 67.6459L90.76 67.4687L90.8206 67.3594L91.1428 67.5479V67.1709H91.2603V67.5479L91.5825 67.3594L91.6393 67.4687L91.321 67.6459Z" fill="#263238"/>
<path d="M92.3631 67.6459L92.6777 67.8269L92.6208 67.9324L92.2986 67.7477V68.1247H92.1811V67.7477L91.8628 67.9324L91.7983 67.8269L92.1205 67.6459L91.7983 67.4687L91.8628 67.3594L92.1811 67.5479V67.1709H92.2986V67.5479L92.6208 67.3594L92.6777 67.4687L92.3631 67.6459Z" fill="#263238"/>
<path d="M81.7921 62.5338C81.7921 62.9108 81.5155 63.1446 81.0606 63.1446H80.5793V63.7063H80.386V61.9307H81.0568C81.5155 61.9307 81.7921 62.1569 81.7921 62.5338ZM81.6026 62.5338C81.6026 62.2473 81.4131 62.0852 81.0531 62.0852H80.5793V62.9787H81.0568C81.4131 62.9862 81.6026 62.8241 81.6026 62.5338Z" fill="#263238"/>
<path d="M83.168 62.8847V63.7141H82.9937V63.5067C82.9424 63.5809 82.8722 63.6403 82.7903 63.6787C82.7084 63.7171 82.6177 63.7332 82.5275 63.7254C82.2243 63.7254 82.0386 63.5708 82.0386 63.3484C82.0386 63.126 82.1712 62.9714 82.5578 62.9714H82.9861V62.8922C82.9861 62.6623 82.8535 62.5379 82.6071 62.5379C82.4437 62.5353 82.2849 62.5916 82.1599 62.6962L82.0765 62.5605C82.2327 62.438 82.4272 62.3739 82.626 62.3795C82.6966 62.3698 82.7684 62.3758 82.8363 62.3973C82.9041 62.4187 82.9663 62.455 83.0183 62.5034C83.0703 62.5518 83.1107 62.6112 83.1366 62.6772C83.1625 62.7431 83.1732 62.814 83.168 62.8847ZM82.9861 63.3107V63.092H82.573C82.3115 63.092 82.2281 63.1938 82.2281 63.3333C82.2281 63.4728 82.3532 63.5859 82.5692 63.5859C82.6588 63.5887 82.7471 63.5637 82.8218 63.5144C82.8965 63.4651 82.9539 63.3939 82.9861 63.3107Z" fill="#263238"/>
<path d="M83.4749 63.5633L83.5544 63.42C83.6954 63.5185 83.8635 63.5712 84.0358 63.5708C84.2897 63.5708 84.3959 63.4841 84.3959 63.3484C84.3959 63.0016 83.5241 63.2768 83.5241 62.7452C83.5241 62.5266 83.7136 62.3682 84.0547 62.3682C84.2223 62.3661 84.3873 62.4091 84.5323 62.4926L84.4527 62.6359C84.3344 62.5594 84.1958 62.5201 84.0547 62.5228C83.8122 62.5228 83.7061 62.6171 83.7061 62.7452C83.7061 63.1222 84.5778 62.8357 84.5778 63.3484C84.5778 63.5821 84.3731 63.7254 84.0206 63.7254C83.8258 63.7317 83.6343 63.6748 83.4749 63.5633Z" fill="#263238"/>
<path d="M84.7258 63.5633L84.8092 63.4201C84.9485 63.519 85.1156 63.5717 85.2868 63.5709C85.5445 63.5709 85.6658 63.4842 85.6658 63.3484C85.6658 63.0016 84.7941 63.2768 84.7941 62.7453C84.7941 62.5266 84.9836 62.3683 85.3285 62.3683C85.4949 62.3657 85.6588 62.4087 85.8022 62.4927L85.7226 62.6359C85.6098 62.5628 85.4783 62.5236 85.3436 62.5228C85.0973 62.5228 84.9911 62.6171 84.9911 62.7453C84.9911 63.1222 85.8629 62.8357 85.8629 63.3484C85.8629 63.5822 85.6582 63.7254 85.3095 63.7254C85.102 63.74 84.8958 63.6827 84.7258 63.5633Z" fill="#263238"/>
<path d="M88.1179 62.3755L87.6062 63.7138H87.4356L87.0111 62.6168L86.5866 63.7138H86.4123L85.9082 62.3755H86.0825L86.5033 63.5064L86.9353 62.3755H87.0945L87.5228 63.5064L87.9511 62.3755H88.1179Z" fill="#263238"/>
<path d="M88.217 63.0427C88.217 62.9077 88.2572 62.7758 88.3326 62.6636C88.408 62.5514 88.5151 62.4639 88.6404 62.4123C88.7658 62.3606 88.9037 62.3471 89.0368 62.3735C89.1699 62.3998 89.2921 62.4648 89.3881 62.5602C89.484 62.6556 89.5493 62.7772 89.5758 62.9096C89.6023 63.0419 89.5887 63.1791 89.5368 63.3038C89.4849 63.4285 89.3969 63.5351 89.2841 63.61C89.1713 63.685 89.0387 63.725 88.903 63.725C88.812 63.7282 88.7214 63.7127 88.6367 63.6795C88.5521 63.6464 88.4752 63.5962 88.4108 63.5322C88.3465 63.4682 88.2961 63.3917 88.2627 63.3075C88.2294 63.2233 88.2138 63.1332 88.217 63.0427ZM89.4033 63.0427C89.4033 62.9107 89.3506 62.7841 89.2567 62.6908C89.1629 62.5975 89.0357 62.5451 88.903 62.5451C88.7703 62.5451 88.643 62.5975 88.5492 62.6908C88.4554 62.7841 88.4027 62.9107 88.4027 63.0427C88.4027 63.1747 88.4554 63.3012 88.5492 63.3946C88.643 63.4879 88.7703 63.5403 88.903 63.5403C89.0357 63.5403 89.1629 63.4879 89.2567 63.3946C89.3506 63.3012 89.4033 63.1747 89.4033 63.0427Z" fill="#263238"/>
<path d="M90.6382 62.3643V62.5339H90.5927C90.5287 62.531 90.4649 62.5423 90.4057 62.5667C90.3466 62.5912 90.2936 62.6283 90.2506 62.6755C90.2075 62.7226 90.1754 62.7787 90.1566 62.8395C90.1378 62.9004 90.1327 62.9647 90.1416 63.0277V63.7101H89.9597V62.3718H90.153V62.6319C90.1987 62.545 90.269 62.4733 90.3552 62.4257C90.4415 62.3782 90.5398 62.3568 90.6382 62.3643Z" fill="#263238"/>
<path d="M92.181 61.8251V63.71H92.0066V63.4461C91.9526 63.5339 91.876 63.6057 91.7847 63.6541C91.6934 63.7025 91.5907 63.7257 91.4874 63.7213C91.3147 63.7085 91.1533 63.6313 91.0355 63.5051C90.9178 63.3789 90.8523 63.213 90.8523 63.0408C90.8523 62.8686 90.9178 62.7028 91.0355 62.5766C91.1533 62.4504 91.3147 62.3732 91.4874 62.3604C91.5883 62.3566 91.6885 62.3789 91.7782 62.4251C91.8679 62.4714 91.944 62.54 91.999 62.6243V61.8213L92.181 61.8251ZM92.0028 63.0427C91.9976 62.9456 91.9639 62.8521 91.9059 62.7738C91.8479 62.6955 91.7681 62.6359 91.6763 62.6022C91.5846 62.5686 91.4849 62.5624 91.3897 62.5845C91.2944 62.6066 91.2078 62.6559 91.1404 62.7264C91.0731 62.797 91.028 62.8856 91.0108 62.9813C90.9935 63.0771 91.0049 63.1757 91.0434 63.2651C91.0819 63.3545 91.1459 63.4308 91.2275 63.4844C91.3091 63.538 91.4047 63.5666 91.5025 63.5667C91.5708 63.5679 91.6387 63.555 91.7017 63.5288C91.7647 63.5025 91.8215 63.4635 91.8686 63.4142C91.9156 63.3649 91.9519 63.3065 91.975 63.2425C91.9981 63.1786 92.0076 63.1105 92.0028 63.0427Z" fill="#263238"/>
<path d="M94.8762 77.2368V79.0237H94.7018V77.4027H94.2773V77.2368H94.8762Z" fill="#263238"/>
<path d="M96.5283 78.8496V79.0155H95.27V78.8836L96.028 78.156C96.2289 77.96 96.2706 77.8393 96.2706 77.7187C96.2706 77.5113 96.1227 77.3832 95.8499 77.3832C95.7585 77.3773 95.6669 77.3923 95.5822 77.4269C95.4975 77.4615 95.4218 77.5149 95.3609 77.583L95.2283 77.4699C95.3091 77.3834 95.408 77.3156 95.518 77.2713C95.628 77.227 95.7465 77.2073 95.865 77.2135C96.244 77.2135 96.4601 77.3982 96.4601 77.6961C96.4542 77.8048 96.4248 77.9109 96.3737 78.0073C96.3227 78.1036 96.2513 78.1877 96.1644 78.254L95.5542 78.8496H96.5283Z" fill="#263238"/>
<path d="M97.9461 78.5035C97.9461 78.8013 97.7263 79.0313 97.2942 79.0313C97.0579 79.0386 96.8276 78.9564 96.6499 78.8013L96.7371 78.6543C96.8887 78.7928 97.0885 78.8671 97.2942 78.8616C97.5937 78.8616 97.7566 78.7259 97.7566 78.5035C97.7566 78.2811 97.605 78.1491 97.2715 78.1491H97.1426V78.0134L97.6391 77.3952H96.7219V77.2368H97.859V77.3688L97.3549 77.9908C97.7528 78.0172 97.9461 78.217 97.9461 78.5035Z" fill="#263238"/>
<path d="M99.7271 78.5447H99.367V79.0159H99.1851V78.5447H98.1731V78.4127L99.1244 77.229H99.3291L98.4119 78.3675H99.1889V77.9528H99.367V78.3675H99.7271V78.5447Z" fill="#263238"/>
<path d="M101.785 78.4875C101.785 78.7928 101.573 79.0303 101.133 79.0303C100.897 79.0373 100.667 78.9552 100.489 78.8004L100.58 78.6533C100.653 78.7225 100.739 78.7765 100.833 78.8121C100.928 78.8477 101.028 78.8642 101.129 78.8607C101.436 78.8607 101.595 78.7137 101.595 78.4837C101.595 78.2537 101.451 78.1067 100.997 78.1067H100.618L100.712 77.2095H101.694V77.3753H100.872L100.811 77.9408H101.042C101.58 77.9597 101.785 78.1746 101.785 78.4875Z" fill="#263238"/>
<path d="M103.366 78.4807C103.365 78.558 103.348 78.6343 103.316 78.7047C103.285 78.7752 103.238 78.8383 103.181 78.8901C103.123 78.9418 103.055 78.9811 102.981 79.0053C102.907 79.0296 102.829 79.0384 102.752 79.0311C102.274 79.0311 102.017 78.6993 102.017 78.1376C102.017 77.5759 102.35 77.214 102.835 77.214C102.984 77.2083 103.132 77.2422 103.264 77.312L103.188 77.459C103.082 77.3987 102.961 77.3699 102.839 77.3761C102.46 77.3761 102.202 77.6211 102.202 78.1074C102.202 78.1489 102.202 78.1979 102.202 78.2507C102.255 78.1526 102.334 78.0716 102.432 78.0174C102.529 77.9632 102.64 77.9382 102.752 77.9453C102.828 77.9357 102.906 77.9424 102.98 77.9649C103.054 77.9873 103.122 78.0251 103.18 78.0757C103.238 78.1263 103.284 78.1885 103.317 78.2583C103.349 78.3281 103.365 78.4039 103.366 78.4807ZM103.184 78.4807C103.184 78.2432 103.01 78.1037 102.733 78.1037C102.677 78.0969 102.621 78.1014 102.567 78.1168C102.514 78.1323 102.464 78.1585 102.421 78.1937C102.377 78.229 102.342 78.2726 102.316 78.3219C102.29 78.3712 102.275 78.4252 102.271 78.4807C102.271 78.6767 102.434 78.8576 102.744 78.8576C102.798 78.8663 102.854 78.8633 102.906 78.8488C102.959 78.8343 103.008 78.8086 103.05 78.7735C103.091 78.7384 103.125 78.6947 103.148 78.6455C103.171 78.5962 103.184 78.5426 103.184 78.4882V78.4807Z" fill="#263238"/>
<path d="M104.821 77.2368V77.3688L104.063 79.0237H103.862L104.601 77.4027H103.68V77.7344H103.499V77.2368H104.821Z" fill="#263238"/>
<path d="M106.395 78.5183C106.395 78.835 106.126 79.031 105.697 79.031C105.269 79.031 105.008 78.835 105.008 78.5183C105.006 78.4168 105.04 78.3179 105.103 78.2378C105.165 78.1577 105.253 78.1011 105.353 78.0772C105.27 78.0551 105.197 78.0058 105.146 77.9374C105.095 77.8689 105.069 77.7853 105.072 77.7002C105.072 77.41 105.318 77.229 105.697 77.229C106.076 77.229 106.33 77.41 106.33 77.7002C106.329 77.7854 106.3 77.8679 106.249 77.9357C106.197 78.0036 106.124 78.0531 106.042 78.0772C106.143 78.1002 106.232 78.1564 106.296 78.2365C106.36 78.3166 106.395 78.416 106.395 78.5183ZM106.205 78.5183C106.205 78.2996 106.016 78.1602 105.697 78.1602C105.379 78.1602 105.193 78.2996 105.193 78.5183C105.193 78.7369 105.379 78.8953 105.697 78.8953C106.016 78.8953 106.205 78.7445 106.205 78.5145V78.5183ZM105.694 78.0131C105.974 78.0131 106.141 77.8887 106.141 77.6927C106.141 77.4967 105.963 77.3723 105.694 77.3723C105.425 77.3723 105.25 77.4929 105.25 77.6927C105.25 77.8925 105.417 78.0131 105.694 78.0131Z" fill="#263238"/>
<path d="M108.615 78.1074C108.615 78.7143 108.282 79.031 107.793 79.031C107.645 79.0362 107.499 79.0023 107.368 78.933L107.444 78.786C107.55 78.8463 107.671 78.875 107.793 78.8689C108.172 78.8689 108.426 78.6201 108.426 78.1375C108.429 78.0899 108.429 78.042 108.426 77.9943C108.375 78.0927 108.296 78.1742 108.199 78.2284C108.102 78.2827 107.991 78.3075 107.88 78.2997C107.804 78.3081 107.727 78.3006 107.654 78.2776C107.582 78.2546 107.514 78.2166 107.457 78.1662C107.4 78.1157 107.354 78.0539 107.323 77.9846C107.291 77.9154 107.274 77.8404 107.274 77.7643C107.274 77.687 107.291 77.6107 107.323 77.5402C107.355 77.4698 107.401 77.4067 107.459 77.3549C107.517 77.3032 107.585 77.2639 107.658 77.2396C107.732 77.2154 107.81 77.2066 107.888 77.2139C108.346 77.2139 108.615 77.5457 108.615 78.1074ZM108.361 77.753C108.361 77.557 108.198 77.376 107.888 77.376C107.833 77.3672 107.777 77.3704 107.724 77.3854C107.671 77.4003 107.621 77.4267 107.58 77.4626C107.538 77.4986 107.504 77.5432 107.481 77.5933C107.459 77.6435 107.447 77.698 107.448 77.753C107.448 77.9905 107.622 78.13 107.899 78.13C108.008 78.1384 108.117 78.1035 108.201 78.0329C108.284 77.9623 108.337 77.8618 108.346 77.753H108.361Z" fill="#263238"/>
<path d="M109.373 77.2368V79.0237H109.188V77.4027H108.763V77.2368H109.373Z" fill="#263238"/>
<path d="M109.798 78.1219C109.798 77.5527 110.101 77.2134 110.514 77.2134C110.927 77.2134 111.231 77.5527 111.231 78.1219C111.231 78.6912 110.931 79.0305 110.514 79.0305C110.097 79.0305 109.798 78.6912 109.798 78.1219ZM111.041 78.1219C111.041 77.6469 110.829 77.3679 110.514 77.3679C110.2 77.3679 109.987 77.6318 109.987 78.1219C109.987 78.612 110.203 78.8759 110.514 78.8759C110.825 78.8759 111.041 78.5969 111.041 78.1219Z" fill="#263238"/>
<path d="M111.989 77.2368V79.0237H111.803V77.4027H111.379V77.2368H111.989Z" fill="#263238"/>
<path d="M113.585 77.2368V79.0237H113.399V77.4027H112.975V77.2368H113.585Z" fill="#263238"/>
<path d="M114.504 77.2368V79.0237H114.322V77.4027H113.898V77.2368H114.504Z" fill="#263238"/>
<path d="M116.158 78.85V79.0158H114.899V78.8839L115.657 78.1563C115.858 77.9603 115.9 77.8396 115.9 77.719C115.9 77.5117 115.752 77.3835 115.479 77.3835C115.388 77.3776 115.296 77.3926 115.212 77.4272C115.127 77.4618 115.051 77.5152 114.99 77.5833L114.858 77.4702C114.939 77.3841 115.038 77.3166 115.148 77.2724C115.258 77.2281 115.376 77.2081 115.494 77.2138C115.873 77.2138 116.089 77.3986 116.089 77.6964C116.084 77.8051 116.054 77.9113 116.003 78.0076C115.952 78.1039 115.881 78.1881 115.794 78.2543L115.168 78.85H116.158Z" fill="#263238"/>
<path d="M116.885 77.2368V79.0237H116.684V77.4027H116.263V77.2368H116.885Z" fill="#263238"/>
<path d="M86.6633 76.8216V76.5502C86.6633 76.4242 86.613 76.3034 86.5234 76.2143C86.4339 76.1252 86.3124 76.0752 86.1858 76.0752H81.3457C81.2191 76.0752 81.0976 76.1252 81.008 76.2143C80.9185 76.3034 80.8682 76.4242 80.8682 76.5502V76.8216H86.6633Z" fill="#263238"/>
<path d="M80.8682 77.1943V79.1924C80.8682 79.3183 80.9185 79.4392 81.008 79.5282C81.0976 79.6173 81.2191 79.6674 81.3457 79.6674H86.1858C86.3124 79.6674 86.4339 79.6173 86.5234 79.5282C86.613 79.4392 86.6633 79.3183 86.6633 79.1924V77.1943H80.8682Z" fill="#263238"/>
<path d="M80.9404 87.7168C80.9404 87.1475 81.2399 86.812 81.6568 86.812C82.0737 86.812 82.3731 87.1475 82.3731 87.7168C82.3731 88.286 82.0699 88.6253 81.6568 88.6253C81.2436 88.6253 80.9404 88.286 80.9404 87.7168ZM82.1836 87.7168C82.1836 87.2418 81.9676 86.9628 81.6568 86.9628C81.346 86.9628 81.1299 87.2267 81.1299 87.7168C81.1299 88.2069 81.3422 88.4708 81.6568 88.4708C81.9714 88.4708 82.195 88.1956 82.195 87.7168H82.1836Z" fill="#263238"/>
<path d="M84.0132 88.1122C84.0132 88.4289 83.7441 88.6249 83.3158 88.6249C82.8876 88.6249 82.626 88.4289 82.626 88.1122C82.6244 88.011 82.6577 87.9123 82.7205 87.8327C82.7833 87.7531 82.8717 87.6974 82.9709 87.6749C82.8905 87.649 82.8203 87.5987 82.77 87.5311C82.7197 87.4635 82.6919 87.382 82.6905 87.2979C82.6905 87.0076 82.9368 86.8267 83.3158 86.8267C83.6949 86.8267 83.9488 87.0076 83.9488 87.2979C83.9466 87.3823 83.918 87.4639 83.8671 87.5314C83.8161 87.599 83.7454 87.6491 83.6645 87.6749C83.7641 87.6972 83.853 87.7528 83.9164 87.8324C83.9798 87.9119 84.014 88.0107 84.0132 88.1122ZM83.8237 88.1122C83.8237 87.8935 83.6342 87.7578 83.3158 87.7578C82.9975 87.7578 82.8118 87.8935 82.8118 88.1122C82.8118 88.3308 83.0013 88.4892 83.3158 88.4892C83.6304 88.4892 83.8237 88.3308 83.8237 88.1084V88.1122ZM83.331 87.607C83.6115 87.607 83.7782 87.4826 83.7782 87.2904C83.7782 87.0981 83.6001 86.9661 83.331 86.9661C83.0619 86.9661 82.8876 87.0868 82.8876 87.2866C82.8876 87.4864 83.0392 87.607 83.331 87.607Z" fill="#263238"/>
<path d="M84.9196 86.4648H85.0864L84.2374 88.8625H84.0896L84.9196 86.4648Z" fill="#263238"/>
<path d="M86.3635 88.4444V88.6103H85.1052V88.4783L85.8632 87.7545C86.0641 87.5547 86.102 87.4341 86.102 87.3134C86.102 87.1061 85.958 86.9779 85.6851 86.9779C85.5931 86.9721 85.501 86.987 85.4157 87.0216C85.3303 87.0562 85.254 87.1096 85.1923 87.1777L85.0635 87.0646C85.1443 86.9784 85.2433 86.9111 85.3534 86.8674C85.4635 86.8237 85.5819 86.8048 85.7002 86.812C86.0792 86.812 86.2915 86.993 86.2915 87.2908C86.2876 87.3996 86.2594 87.5061 86.2089 87.6026C86.1585 87.6991 86.0869 87.7832 85.9996 87.8488L85.3894 88.4444H86.3635Z" fill="#263238"/>
<path d="M87.8001 88.0823C87.8001 88.3877 87.5879 88.6252 87.1482 88.6252C86.912 88.6322 86.6818 88.55 86.5039 88.3952L86.5949 88.2482C86.668 88.3174 86.7543 88.3714 86.8486 88.407C86.943 88.4426 87.0436 88.4591 87.1444 88.4555C87.4514 88.4555 87.6106 88.3085 87.6106 88.0785C87.6106 87.8486 87.4704 87.7016 87.0118 87.7016H86.6328L86.7237 86.8081H87.7054V86.9702H86.8829L86.8223 87.5395H87.0535C87.5955 87.5583 87.8001 87.7694 87.8001 88.0823Z" fill="#263238"/>
<path d="M81.7774 85.6775V85.7792H80.989V84.6709H81.747V84.7765H81.1027V85.1534H81.6788V85.2552H81.1027V85.6661L81.7774 85.6775Z" fill="#263238"/>
<path d="M82.7355 85.7792L82.3792 85.2892L82.0002 85.7792H81.8638L82.2883 85.21L81.9092 84.6709H82.0419L82.3792 85.1233L82.7128 84.6709H82.8378L82.4588 85.2062L82.8833 85.7792H82.7355Z" fill="#263238"/>
<path d="M83.9181 85.0517C83.9181 85.2854 83.7438 85.4286 83.4633 85.4286H83.1639V85.7792H83.0464V84.6709H83.4633C83.7438 84.6709 83.9181 84.8142 83.9181 85.0517ZM83.8006 85.0517C83.8006 84.8745 83.6831 84.7727 83.4595 84.7727H83.1639V85.3269H83.4595C83.6831 85.3269 83.8006 85.2251 83.8006 85.0517Z" fill="#263238"/>
<path d="M84.6084 84.6709H85.0594C85.2072 84.6709 85.3489 84.7293 85.4534 84.8332C85.5579 84.9371 85.6166 85.0781 85.6166 85.2251C85.6166 85.372 85.5579 85.513 85.4534 85.6169C85.3489 85.7209 85.2072 85.7792 85.0594 85.7792H84.6084V84.6709ZM85.0518 85.6775C85.1725 85.6775 85.2882 85.6298 85.3735 85.545C85.4588 85.4601 85.5067 85.345 85.5067 85.2251C85.5067 85.1051 85.4588 84.99 85.3735 84.9052C85.2882 84.8203 85.1725 84.7727 85.0518 84.7727H84.7259V85.6775H85.0518Z" fill="#263238"/>
<path d="M86.53 85.2625V85.779H86.4201V85.647C86.3894 85.6941 86.3463 85.7319 86.2956 85.7565C86.2448 85.7811 86.1883 85.7915 86.1321 85.7865C85.9464 85.7865 85.8289 85.6885 85.8289 85.5452C85.8289 85.402 85.9122 85.3077 86.151 85.3077H86.4163V85.2587C86.4196 85.2277 86.4157 85.1964 86.4048 85.1671C86.394 85.1379 86.3766 85.1115 86.3539 85.09C86.3312 85.0685 86.3038 85.0525 86.2739 85.0432C86.244 85.0339 86.2123 85.0315 86.1813 85.0363C86.0791 85.0346 85.9796 85.0694 85.9009 85.1343L85.8516 85.0514C85.9484 84.975 86.0692 84.935 86.1927 84.9383C86.2376 84.9316 86.2834 84.9353 86.3265 84.9491C86.3697 84.9629 86.4091 84.9863 86.4417 85.0177C86.4744 85.049 86.4993 85.0874 86.5146 85.1298C86.5299 85.1723 86.5352 85.2177 86.53 85.2625ZM86.4163 85.5264V85.3907H86.1548C85.9918 85.3907 85.9388 85.4547 85.9388 85.5415C85.9388 85.6282 86.0184 85.696 86.151 85.696C86.2072 85.7 86.2632 85.686 86.3109 85.6562C86.3586 85.6264 86.3955 85.5822 86.4163 85.5301V85.5264Z" fill="#263238"/>
<path d="M87.277 85.7259C87.2288 85.7674 87.1664 85.7889 87.1027 85.7862C87.0698 85.7897 87.0365 85.7859 87.0053 85.775C86.9741 85.7642 86.9457 85.7466 86.9221 85.7235C86.8986 85.7004 86.8804 85.6725 86.8691 85.6416C86.8577 85.6107 86.8533 85.5777 86.8563 85.5449V85.0398H86.7085V84.9455H86.8563V84.7759H86.97V84.9568H87.224V85.0511H86.97V85.5299C86.967 85.5497 86.9687 85.5699 86.9747 85.589C86.9808 85.6082 86.9912 85.6257 87.005 85.6402C87.0189 85.6547 87.036 85.6659 87.0548 85.6729C87.0737 85.68 87.094 85.6826 87.114 85.6806C87.1593 85.6815 87.2034 85.6669 87.2391 85.6392L87.277 85.7259Z" fill="#263238"/>
<path d="M88.1827 85.3986H87.5005C87.5063 85.4799 87.5442 85.5557 87.606 85.6094C87.6678 85.663 87.7483 85.6903 87.8302 85.6851C87.8786 85.6871 87.9269 85.6783 87.9715 85.6594C88.0161 85.6404 88.0558 85.6119 88.0879 85.5757L88.1524 85.6511C88.111 85.6957 88.0605 85.7309 88.0043 85.7543C87.948 85.7778 87.8873 85.7888 87.8264 85.7869C87.769 85.79 87.7115 85.7813 87.6577 85.7611C87.6038 85.7409 87.5548 85.7098 87.5138 85.6697C87.4728 85.6296 87.4406 85.5814 87.4194 85.5282C87.3982 85.475 87.3883 85.418 87.3905 85.3609C87.3874 85.3062 87.3956 85.2515 87.4147 85.2001C87.4337 85.1487 87.4631 85.1018 87.5012 85.0622C87.5392 85.0226 87.585 84.9912 87.6357 84.9699C87.6865 84.9487 87.741 84.938 87.7961 84.9386C87.8521 84.9343 87.9084 84.9424 87.9609 84.9624C88.0134 84.9823 88.0607 85.0137 88.0995 85.0541C88.1384 85.0945 88.1677 85.143 88.1853 85.196C88.203 85.2491 88.2085 85.3054 88.2016 85.3609L88.1827 85.3986ZM87.4815 85.3119H88.0766C88.0683 85.2391 88.0334 85.172 87.9785 85.1232C87.9236 85.0744 87.8526 85.0475 87.779 85.0475C87.7054 85.0475 87.6344 85.0744 87.5795 85.1232C87.5247 85.172 87.4898 85.2391 87.4815 85.3119Z" fill="#263238"/>
<path d="M102.107 86.8267V88.6098H101.925V86.9888H101.501V86.8267H102.107Z" fill="#263238"/>
<path d="M103.76 88.4442V88.6101H102.501V88.4781L103.259 87.7543C103.46 87.5545 103.502 87.4339 103.502 87.3132C103.502 87.1059 103.354 86.9777 103.081 86.9777C102.99 86.9719 102.898 86.9868 102.814 87.0215C102.729 87.0561 102.653 87.1095 102.592 87.1775L102.46 87.0644C102.541 86.9786 102.64 86.9116 102.75 86.8679C102.86 86.8243 102.978 86.8052 103.096 86.8118C103.475 86.8118 103.692 86.9928 103.692 87.2906C103.686 87.3993 103.656 87.5055 103.605 87.6018C103.554 87.6981 103.483 87.7823 103.396 87.8486L102.786 88.4442H103.76Z" fill="#263238"/>
<path d="M105.177 88.0971C105.177 88.3949 104.958 88.6249 104.525 88.6249C104.289 88.6323 104.059 88.5501 103.881 88.3949L103.972 88.2479C104.046 88.3176 104.133 88.3718 104.228 88.4075C104.323 88.4431 104.424 88.4593 104.525 88.4552C104.825 88.4552 104.988 88.3195 104.988 88.0971C104.988 87.8747 104.836 87.7427 104.503 87.7427H104.374V87.607L104.87 86.9888H103.953V86.8267H105.09V86.9548L104.582 87.5882C104.984 87.6108 105.177 87.8106 105.177 88.0971Z" fill="#263238"/>
<path d="M101.563 85.2256C101.561 85.1498 101.576 85.0745 101.605 85.0044C101.634 84.9343 101.677 84.8709 101.732 84.8179C101.787 84.765 101.852 84.7237 101.923 84.6966C101.994 84.6695 102.07 84.657 102.146 84.6601C102.221 84.6577 102.296 84.6708 102.366 84.6987C102.436 84.7266 102.499 84.7687 102.552 84.8222L102.48 84.8976C102.437 84.8546 102.385 84.8207 102.329 84.798C102.272 84.7753 102.211 84.7643 102.15 84.7657C102.086 84.7599 102.022 84.7675 101.961 84.7878C101.9 84.8082 101.844 84.841 101.796 84.8841C101.749 84.9272 101.711 84.9797 101.685 85.0381C101.659 85.0966 101.646 85.1598 101.646 85.2237C101.646 85.2876 101.659 85.3508 101.685 85.4093C101.711 85.4678 101.749 85.5202 101.796 85.5633C101.844 85.6064 101.9 85.6392 101.961 85.6596C102.022 85.68 102.086 85.6875 102.15 85.6818C102.211 85.684 102.272 85.6735 102.329 85.6507C102.386 85.628 102.437 85.5936 102.48 85.5498L102.552 85.6252C102.499 85.6798 102.435 85.7226 102.365 85.7505C102.294 85.7785 102.218 85.791 102.142 85.7873C102.067 85.7904 101.991 85.7781 101.92 85.7512C101.85 85.7242 101.785 85.6832 101.731 85.6306C101.677 85.5781 101.634 85.515 101.605 85.4454C101.576 85.3757 101.561 85.301 101.563 85.2256Z" fill="#263238"/>
<path d="M104.321 84.6709L103.942 85.7792H103.817L103.491 84.833L103.165 85.7792H103.04L102.661 84.6709H102.782L103.105 85.6247L103.438 84.6709H103.548L103.874 85.6284L104.2 84.6709H104.321Z" fill="#263238"/>
<path d="M92.1664 98.1891H91.1658L90.9498 98.6679H90.7527L91.5714 96.8848H91.7609L92.5795 98.6679H92.3787L92.1664 98.1891ZM92.0944 98.0383L91.6699 97.0808L91.2378 98.0383H92.0944Z" fill="#263238"/>
<path d="M92.6896 97.9963C92.6864 97.9052 92.7022 97.8144 92.736 97.7297C92.7698 97.6449 92.8209 97.5681 92.8861 97.504C92.9512 97.4399 93.0291 97.3899 93.1146 97.3572C93.2002 97.3245 93.2917 97.3098 93.3832 97.314C93.487 97.3079 93.5906 97.3295 93.6833 97.3765C93.7759 97.4236 93.8542 97.4944 93.9101 97.5817L93.7774 97.6721C93.7349 97.6111 93.6783 97.5611 93.6124 97.5263C93.5464 97.4915 93.473 97.473 93.3984 97.4723C93.2587 97.4723 93.1247 97.5275 93.0259 97.6258C92.9271 97.7241 92.8715 97.8574 92.8715 97.9963C92.8715 98.1353 92.9271 98.2686 93.0259 98.3669C93.1247 98.4652 93.2587 98.5204 93.3984 98.5204C93.4726 98.5198 93.5457 98.5017 93.6116 98.4677C93.6775 98.4336 93.7343 98.3845 93.7774 98.3243L93.9101 98.4148C93.8532 98.5008 93.7745 98.5705 93.6821 98.6168C93.5896 98.6631 93.4866 98.6844 93.3832 98.6787C93.2917 98.6829 93.2002 98.6682 93.1146 98.6355C93.0291 98.6028 92.9512 98.5528 92.8861 98.4887C92.8209 98.4246 92.7698 98.3478 92.736 98.263C92.7022 98.1783 92.6864 98.0875 92.6896 97.9963Z" fill="#263238"/>
<path d="M94.9899 98.5849C94.91 98.65 94.8089 98.6835 94.7057 98.6792C94.655 98.6825 94.6043 98.675 94.5568 98.6573C94.5093 98.6395 94.4661 98.6118 94.4302 98.5761C94.3944 98.5404 94.3666 98.4975 94.3487 98.4503C94.3308 98.403 94.3233 98.3525 94.3267 98.3022V97.4804H94.0879V97.3258H94.3229V97.0317H94.5048V97.3258H94.9179V97.4804H94.5048V98.2796C94.5 98.3119 94.5027 98.3448 94.5127 98.3759C94.5226 98.407 94.5396 98.4355 94.5622 98.4591C94.5849 98.4827 94.6126 98.5009 94.6434 98.5122C94.6742 98.5236 94.7071 98.5278 94.7398 98.5246C94.8126 98.5258 94.8836 98.5018 94.9407 98.4567L94.9899 98.5849Z" fill="#263238"/>
<path d="M95.2817 96.9039C95.2817 96.8689 95.2957 96.8354 95.3206 96.8106C95.3455 96.7859 95.3792 96.772 95.4144 96.772C95.4496 96.772 95.4833 96.7859 95.5082 96.8106C95.5331 96.8354 95.547 96.8689 95.547 96.9039C95.547 96.9389 95.5331 96.9725 95.5082 96.9972C95.4833 97.022 95.4496 97.0359 95.4144 97.0359C95.3792 97.0359 95.3455 97.022 95.3206 96.9972C95.2957 96.9725 95.2817 96.9389 95.2817 96.9039ZM95.3234 97.3261H95.5054V98.6682H95.3234V97.3261Z" fill="#263238"/>
<path d="M95.8726 97.9968C95.8726 97.862 95.9127 97.7302 95.988 97.6181C96.0632 97.506 96.1701 97.4185 96.2952 97.3668C96.4204 97.315 96.5581 97.3013 96.6911 97.3273C96.824 97.3533 96.9463 97.4179 97.0424 97.513C97.1385 97.608 97.2041 97.7293 97.231 97.8614C97.2579 97.9935 97.2448 98.1306 97.1935 98.2553C97.1422 98.3801 97.0548 98.4869 96.9425 98.5623C96.8302 98.6377 96.6979 98.6784 96.5624 98.6791C96.4713 98.6823 96.3805 98.6668 96.2956 98.6337C96.2108 98.6005 96.1336 98.5504 96.069 98.4865C96.0044 98.4226 95.9536 98.3461 95.9198 98.2619C95.886 98.1777 95.87 98.0874 95.8726 97.9968ZM97.0589 97.9968C97.0537 97.8995 97.0199 97.8059 96.9617 97.7275C96.9035 97.6491 96.8235 97.5895 96.7315 97.556C96.6395 97.5224 96.5397 97.5165 96.4444 97.5389C96.349 97.5613 96.2624 97.611 96.1952 97.6819C96.128 97.7528 96.0833 97.8418 96.0665 97.9377C96.0496 98.0337 96.0615 98.1325 96.1006 98.2218C96.1397 98.3111 96.2043 98.3871 96.2864 98.4402C96.3685 98.4934 96.4645 98.5214 96.5624 98.5208C96.6304 98.5215 96.6978 98.5082 96.7604 98.4817C96.8229 98.4552 96.8793 98.4161 96.926 98.3669C96.9726 98.3176 97.0085 98.2594 97.0314 98.1957C97.0542 98.132 97.0636 98.0643 97.0589 97.9968Z" fill="#263238"/>
<path d="M98.8712 97.8912V98.6678H98.6893V97.9138C98.6968 97.8581 98.6917 97.8014 98.6743 97.7478C98.657 97.6943 98.6277 97.6453 98.5889 97.6044C98.55 97.5636 98.5024 97.5319 98.4496 97.5117C98.3968 97.4916 98.3401 97.4834 98.2837 97.4878C98.2195 97.483 98.1549 97.4924 98.0947 97.5152C98.0345 97.5379 97.98 97.5736 97.9352 97.6196C97.8903 97.6657 97.8562 97.721 97.8352 97.7816C97.8142 97.8422 97.8069 97.9066 97.8138 97.9704V98.6753H97.6318V97.3333H97.8062V97.5934C97.8608 97.509 97.937 97.4405 98.0268 97.3948C98.1167 97.3491 98.2171 97.3279 98.3179 97.3333C98.3925 97.3281 98.4674 97.3391 98.5374 97.3654C98.6074 97.3917 98.6708 97.4328 98.7234 97.4858C98.776 97.5388 98.8164 97.6025 98.8419 97.6724C98.8674 97.7424 98.8774 97.817 98.8712 97.8912Z" fill="#263238"/>
<path d="M100.25 97.0467V97.7479H101.175V97.91H100.25V98.664H100.061V96.8809H101.289V97.043L100.25 97.0467Z" fill="#263238"/>
<path d="M101.577 96.9039C101.577 96.8689 101.591 96.8354 101.616 96.8106C101.641 96.7859 101.675 96.772 101.71 96.772C101.745 96.772 101.779 96.7859 101.804 96.8106C101.828 96.8354 101.842 96.8689 101.842 96.9039C101.842 96.9389 101.828 96.9725 101.804 96.9972C101.779 97.022 101.745 97.0359 101.71 97.0359C101.675 97.0359 101.641 97.022 101.616 96.9972C101.591 96.9725 101.577 96.9389 101.577 96.9039ZM101.615 97.3261H101.797V98.6682H101.615V97.3261Z" fill="#263238"/>
<path d="M103.552 97.3254V98.5054C103.566 98.5963 103.558 98.6892 103.53 98.7766C103.501 98.864 103.452 98.9434 103.387 99.0085C103.321 99.0735 103.241 99.1222 103.153 99.1508C103.066 99.1793 102.972 99.1868 102.881 99.1727C102.653 99.1825 102.43 99.1102 102.252 98.9691L102.343 98.8296C102.492 98.9521 102.68 99.0176 102.873 99.0143C103.214 99.0143 103.37 98.856 103.37 98.528V98.3471C103.312 98.4315 103.234 98.4999 103.142 98.5454C103.051 98.591 102.949 98.6123 102.847 98.6072C102.757 98.614 102.666 98.6023 102.581 98.5727C102.496 98.5431 102.417 98.4963 102.351 98.4352C102.285 98.3742 102.232 98.3002 102.196 98.2179C102.16 98.1356 102.141 98.0467 102.141 97.9569C102.141 97.8671 102.16 97.7782 102.196 97.6959C102.232 97.6136 102.285 97.5396 102.351 97.4785C102.417 97.4175 102.496 97.3707 102.581 97.3411C102.666 97.3115 102.757 97.2997 102.847 97.3066C102.951 97.3024 103.054 97.3249 103.147 97.3717C103.24 97.4186 103.319 97.4883 103.377 97.5742V97.3179L103.552 97.3254ZM103.377 97.9625C103.38 97.8613 103.353 97.7614 103.298 97.6758C103.244 97.5901 103.165 97.5226 103.072 97.4817C102.979 97.4409 102.876 97.4286 102.775 97.4465C102.675 97.4644 102.583 97.5117 102.509 97.5822C102.436 97.6528 102.386 97.7434 102.365 97.8425C102.344 97.9416 102.353 98.0447 102.392 98.1386C102.43 98.2324 102.495 98.3128 102.58 98.3695C102.664 98.4261 102.764 98.4563 102.866 98.4564C102.932 98.4606 102.998 98.451 103.061 98.4284C103.123 98.4057 103.18 98.3704 103.229 98.3247C103.277 98.279 103.315 98.2239 103.34 98.1629C103.366 98.1019 103.378 98.0362 103.377 97.9701V97.9625Z" fill="#263238"/>
<path d="M105.276 97.3254V98.6675H105.101V98.4225C105.051 98.5046 104.98 98.5717 104.894 98.6168C104.809 98.6619 104.713 98.6833 104.616 98.6788C104.539 98.686 104.461 98.676 104.388 98.6494C104.315 98.6228 104.248 98.5803 104.194 98.525C104.14 98.4698 104.098 98.4031 104.073 98.33C104.048 98.2568 104.039 98.1789 104.048 98.102V97.3254H104.23V98.0794C104.222 98.1354 104.226 98.1926 104.243 98.2466C104.26 98.3006 104.29 98.3501 104.328 98.3914C104.367 98.4327 104.415 98.4647 104.468 98.4851C104.521 98.5055 104.579 98.5137 104.635 98.5092C104.699 98.5123 104.763 98.5016 104.822 98.4779C104.881 98.4541 104.934 98.4178 104.978 98.3716C105.021 98.3253 105.054 98.2701 105.074 98.2099C105.094 98.1497 105.101 98.0859 105.094 98.0228V97.3179L105.276 97.3254Z" fill="#263238"/>
<path d="M106.452 97.3145V97.4917H106.406C106.342 97.4889 106.277 97.5002 106.218 97.5248C106.158 97.5495 106.105 97.5869 106.062 97.6344C106.018 97.6819 105.986 97.7383 105.967 97.7997C105.948 97.861 105.942 97.9257 105.951 97.9893V98.6717H105.77V97.3296H105.944V97.5935C105.991 97.502 106.065 97.4266 106.155 97.3769C106.245 97.3272 106.349 97.3055 106.452 97.3145Z" fill="#263238"/>
<path d="M107.967 98.0535H106.83C106.833 98.1189 106.85 98.1829 106.879 98.2418C106.908 98.3007 106.948 98.3534 106.997 98.3968C107.047 98.4402 107.104 98.4736 107.166 98.4949C107.229 98.5162 107.294 98.525 107.36 98.5209C107.438 98.523 107.515 98.5083 107.586 98.4777C107.658 98.4471 107.722 98.4014 107.773 98.3438L107.876 98.4606C107.779 98.5616 107.654 98.632 107.518 98.6629C107.381 98.6938 107.238 98.6839 107.107 98.6344C106.976 98.5849 106.862 98.498 106.781 98.3846C106.699 98.2712 106.653 98.1363 106.648 97.9969C106.643 97.9083 106.657 97.8197 106.688 97.7366C106.719 97.6534 106.767 97.5775 106.829 97.5136C106.89 97.4496 106.965 97.3989 107.047 97.3647C107.129 97.3305 107.218 97.3134 107.307 97.3146C107.396 97.3128 107.485 97.3295 107.567 97.3636C107.649 97.3977 107.723 97.4485 107.784 97.5127C107.846 97.5769 107.893 97.6531 107.923 97.7365C107.953 97.8199 107.965 97.9086 107.959 97.9969C107.959 97.9969 107.967 98.0309 107.967 98.0535ZM106.83 97.9178H107.785C107.785 97.7918 107.734 97.671 107.645 97.5819C107.555 97.4928 107.434 97.4428 107.307 97.4428C107.18 97.4428 107.059 97.4928 106.969 97.5819C106.88 97.671 106.83 97.7918 106.83 97.9178Z" fill="#263238"/>
<path d="M92.969 105.819V106.603H92.2678V105.849C91.6414 105.83 91.0331 105.635 90.5129 105.288L90.892 104.436C91.2968 104.717 91.7684 104.889 92.2602 104.933V103.765C91.4756 103.572 90.6039 103.316 90.6039 102.313C90.6039 101.559 91.1459 100.934 92.2602 100.805V100.029H92.9614V100.783C93.4652 100.811 93.955 100.959 94.3903 101.213L94.0378 102.072C93.7075 101.877 93.3417 101.749 92.9614 101.695V102.886C93.7422 103.067 94.6025 103.327 94.6025 104.315C94.6101 105.058 94.0757 105.687 92.969 105.819ZM92.2678 102.728V101.74C91.8888 101.823 91.7447 102.027 91.7447 102.257C91.7447 102.487 91.957 102.63 92.2678 102.728ZM93.4768 104.413C93.4768 104.168 93.2722 104.036 92.969 103.931V104.896C93.3214 104.82 93.4768 104.639 93.4768 104.413Z" fill="#263238"/>
<path d="M98.7609 104.839V105.767H95.0389V105.031L96.934 103.244C97.3737 102.83 97.4495 102.581 97.4495 102.34C97.4495 101.963 97.1804 101.733 96.6611 101.733C96.4638 101.725 96.2677 101.766 96.0899 101.851C95.9121 101.937 95.7582 102.064 95.6416 102.223L94.8115 101.691C95.0359 101.39 95.3321 101.149 95.6735 100.989C96.0149 100.83 96.3908 100.758 96.7672 100.779C97.8664 100.779 98.5979 101.341 98.5979 102.23C98.5979 102.705 98.4615 103.139 97.7716 103.776L96.6346 104.839H98.7609Z" fill="#263238"/>
<path d="M99.2192 103.316C99.2192 101.699 100.121 100.779 101.33 100.779C102.539 100.779 103.441 101.699 103.441 103.316C103.441 104.934 102.547 105.85 101.33 105.85C100.114 105.85 99.2192 104.934 99.2192 103.316ZM102.297 103.316C102.297 102.185 101.918 101.741 101.33 101.741C100.743 101.741 100.375 102.201 100.375 103.316C100.375 104.432 100.754 104.888 101.33 104.888C101.906 104.888 102.282 104.429 102.282 103.316H102.297Z" fill="#263238"/>
<path d="M103.999 103.316C103.999 101.699 104.901 100.779 106.11 100.779C107.319 100.779 108.222 101.699 108.222 103.316C108.222 104.934 107.327 105.85 106.11 105.85C104.894 105.85 103.999 104.934 103.999 103.316ZM107.073 103.316C107.073 102.185 106.694 101.741 106.11 101.741C105.527 101.741 105.151 102.201 105.151 103.316C105.151 104.432 105.53 104.888 106.11 104.888C106.69 104.888 107.073 104.429 107.073 103.316Z" fill="#263238"/>
<path d="M107.266 118.245H91.5524C90.5777 118.244 89.6431 117.858 88.9539 117.172C88.2646 116.487 87.877 115.557 87.876 114.588C87.876 113.618 88.2632 112.687 88.9526 112.001C89.6419 111.314 90.577 110.928 91.5524 110.927H107.266C107.75 110.927 108.228 111.022 108.674 111.206C109.121 111.39 109.526 111.66 109.867 112C110.209 112.34 110.48 112.743 110.664 113.187C110.849 113.631 110.943 114.107 110.943 114.588C110.943 115.558 110.556 116.488 109.866 117.174C109.177 117.859 108.241 118.245 107.266 118.245Z" fill="#0C4399"/>
<path d="M94.3678 114.181C94.3678 114.641 94.0343 114.917 93.4847 114.917H92.901V115.595H92.6736V113.446H93.4847C94.0343 113.461 94.3678 113.737 94.3678 114.181ZM94.1366 114.181C94.1366 113.838 93.9092 113.642 93.4771 113.642H92.901V114.717H93.4771C93.9092 114.732 94.1366 114.536 94.1366 114.181Z" fill="white"/>
<path d="M96.0238 114.607V115.61H95.8153V115.357C95.7542 115.447 95.6701 115.52 95.5714 115.567C95.4728 115.614 95.3633 115.634 95.2544 115.625C94.8753 115.625 94.6631 115.436 94.6631 115.153C94.6631 114.871 94.8223 114.697 95.2885 114.697H95.8039V114.599C95.8039 114.324 95.6485 114.173 95.3453 114.173C95.1479 114.17 94.9559 114.237 94.8033 114.362L94.7048 114.2C94.8934 114.052 95.1281 113.975 95.3681 113.981C95.4548 113.969 95.5432 113.976 95.6267 114.002C95.7101 114.029 95.7863 114.074 95.8496 114.135C95.9128 114.195 95.9613 114.269 95.9915 114.351C96.0217 114.433 96.0327 114.52 96.0238 114.607ZM95.8039 115.123V114.859H95.296C94.9815 114.859 94.8791 114.984 94.8791 115.15C94.8791 115.316 95.0307 115.455 95.2885 115.455C95.3988 115.462 95.5085 115.434 95.6013 115.374C95.6941 115.314 95.7651 115.226 95.8039 115.123Z" fill="white"/>
<path d="M97.9539 113.992L97.1428 115.802C97.0064 116.119 96.8358 116.22 96.6046 116.22C96.4606 116.22 96.3222 116.165 96.218 116.066L96.3204 115.904C96.3585 115.943 96.4044 115.975 96.4553 115.996C96.5061 116.018 96.5608 116.028 96.616 116.028C96.7638 116.028 96.8623 115.96 96.9533 115.757L97.0253 115.598L96.2976 113.985H96.5288L97.139 115.361L97.7341 113.992H97.9539Z" fill="white"/>
<path d="M99.8081 115.625V115.979H99.6527V115.628C99.3807 115.626 99.1185 115.527 98.9136 115.349L99.0045 115.172C99.1837 115.331 99.4128 115.423 99.6527 115.432V114.626C99.3115 114.543 98.9666 114.437 98.9666 114.03C98.9666 113.736 99.1789 113.48 99.6527 113.446V113.091H99.8081V113.427C100.03 113.431 100.247 113.496 100.433 113.615L100.358 113.796C100.192 113.693 100.003 113.632 99.8081 113.619V114.433C100.157 114.516 100.524 114.614 100.524 115.025C100.524 115.338 100.297 115.598 99.8081 115.625ZM99.6527 114.411V113.657C99.3343 113.683 99.1903 113.845 99.1903 114.034C99.1903 114.222 99.3987 114.343 99.6527 114.411ZM100.297 115.055C100.297 114.81 100.073 114.727 99.8081 114.678V115.432C100.145 115.406 100.297 115.251 100.297 115.055Z" fill="white"/>
<path d="M102.305 115.414V115.61H100.789V115.455L101.687 114.577C101.93 114.339 101.975 114.2 101.975 114.045C101.975 113.796 101.801 113.645 101.471 113.645C101.361 113.64 101.251 113.658 101.149 113.699C101.047 113.74 100.955 113.803 100.88 113.883L100.72 113.747C100.817 113.645 100.935 113.565 101.066 113.512C101.197 113.46 101.337 113.436 101.478 113.442C101.914 113.442 102.195 113.664 102.195 114.022C102.189 114.154 102.155 114.282 102.093 114.398C102.031 114.514 101.944 114.615 101.839 114.693L101.103 115.414H102.305Z" fill="white"/>
<path d="M102.57 114.536C102.57 113.85 102.93 113.442 103.431 113.442C103.931 113.442 104.295 113.85 104.295 114.536C104.295 115.222 103.916 115.629 103.431 115.629C102.946 115.629 102.57 115.222 102.57 114.536ZM104.067 114.536C104.067 113.963 103.81 113.646 103.431 113.646C103.052 113.646 102.794 113.963 102.794 114.536C102.794 115.109 103.055 115.425 103.431 115.425C103.806 115.425 104.067 115.109 104.067 114.536Z" fill="white"/>
<path d="M104.613 114.536C104.613 113.85 104.992 113.442 105.477 113.442C105.962 113.442 106.341 113.85 106.341 114.536C106.341 115.222 105.962 115.629 105.477 115.629C104.992 115.629 104.613 115.222 104.613 114.536ZM106.129 114.536C106.129 113.963 105.871 113.646 105.496 113.646C105.12 113.646 104.859 113.963 104.859 114.536C104.859 115.109 105.117 115.425 105.496 115.425C105.875 115.425 106.11 115.109 106.11 114.536H106.129Z" fill="white"/>
<path d="M75.6333 106.732C76.2018 115.422 72.1539 125.099 72.1539 125.099L50.2885 118.976L46.4756 117.906C50.2657 112.67 52.0699 102.355 51.0806 94.0087C51.0048 93.3791 50.9593 92.7872 50.9252 92.2218C50.5462 85.338 53.4229 83.3249 55.8524 80.2826C58.5055 76.9877 64.4106 64.5472 64.4106 61.6029C64.4106 58.6586 71.8204 51.4507 70.1716 43.2701C70.1716 43.2701 72.4116 41.8865 74.663 43.0212C75.6863 43.5339 76.7059 44.5631 77.5283 46.4707C79.4575 50.953 76.7476 63.6236 74.4432 66.7299L70.0049 85.0062C70.0049 85.0062 71.502 87.5735 72.9726 92.2331C74.4344 96.944 75.3276 101.811 75.6333 106.732Z" fill="white"/>
<path opacity="0.4" d="M50.9256 92.2212C52.165 95.5952 53.4801 97.876 53.3664 102.603C53.2527 107.331 50.7133 114.607 51.4373 118.388C51.0237 118.509 50.6376 118.709 50.3002 118.976L46.4873 117.905C50.2775 112.669 52.0816 102.355 51.0923 94.0081C51.0052 93.3785 50.9597 92.7867 50.9256 92.2212Z" fill="#08367E" fill-opacity="0.26"/>
<path opacity="0.4" d="M74.4436 66.7292L70.0053 85.0055C70.0053 85.0055 71.5024 87.5728 72.973 92.2323C69.9674 87.4144 67.4128 85.9743 67.4128 85.9743C69.414 83.588 70.9566 66.1336 70.9566 66.1336C70.9566 66.1336 77.2294 58.8012 76.6419 51.1295C76.4533 48.3339 75.7842 45.5911 74.6634 43.0205C75.6868 43.5332 76.7063 44.5624 77.5288 46.4699C79.458 50.9523 76.748 63.6228 74.4436 66.7292Z" fill="#08367E" fill-opacity="0.26"/>
<path d="M46.4756 117.906C50.2657 112.67 52.0699 102.355 51.0844 94.0088C50.099 85.6623 53.2221 83.5738 55.8562 80.2789C58.4904 76.9841 64.4106 64.5473 64.4106 61.5992C64.4106 58.6512 71.8166 51.4545 70.1717 43.2702C70.1717 43.2702 74.898 40.3561 77.5283 46.4708C79.4575 50.9569 76.7476 63.6237 74.4432 66.7338L70.0087 85.0063C70.0087 85.0063 74.7426 93.1304 75.6333 106.732C76.2018 115.422 72.1539 125.103 72.1539 125.103" stroke="#263238" stroke-linecap="round" stroke-linejoin="round"/>
<path d="M61.0908 132.054C61.0908 132.054 66.0673 135.1 68.9706 139.918" stroke="#263238" stroke-linecap="round" stroke-linejoin="round"/>
<path d="M75.0689 137.818C75.0689 137.818 70.7822 138.425 66.9087 133.814C64.4261 130.862 56.8875 129.528 55.1592 121.807" stroke="#263238" stroke-linecap="round" stroke-linejoin="round"/>
<path opacity="0.2" d="M137.371 160.648C126.398 155.427 133.043 151.242 117.946 144.762C102.85 138.281 102.699 132.743 104.518 120.009C106.337 107.274 104.897 93.7291 109.286 92.5793C113.675 91.4295 105.852 73.8657 110.969 67.6567L136.151 116.378L137.371 160.648Z" fill="black" fill-opacity="0.7"/>
<path d="M178.256 160.139C177.74 158.672 177.217 157.07 176.812 155.615C176.289 153.73 175.879 152.222 174.917 150.469C174.765 150.19 174.602 149.896 174.42 149.58C173.393 147.759 171.987 145.267 171.164 142.206C170.611 140.144 171.164 135.066 171.68 130.142C172.059 126.606 172.404 123.27 172.301 121.377L172.271 120.706C172.013 115.756 171.475 105.457 170.376 102.611C169.296 99.8663 168.288 99.4554 166.449 98.7241C166.26 98.6411 166.07 98.5657 165.851 98.4753C165.161 98.1887 163.986 97.5856 162.633 96.8881C159.582 95.3161 155.784 93.3596 153.855 93.1183C152.05 92.9166 150.225 93.0005 148.446 93.3671C146.07 91.5538 142.026 89.2202 140.82 89.1712C139.835 89.1222 137.682 89.7367 136.651 90.0571L136.132 90.223C135.479 89.7194 134.787 89.2681 134.063 88.8734C134.013 88.847 133.964 88.8282 133.922 88.8093C132.584 88.2627 130.564 88.2438 129.461 88.274C129.128 88.274 128.866 88.3079 128.749 88.3192C126.668 85.1337 124.621 81.9632 123.731 80.5722C121.873 77.6468 116.124 65.6096 116.067 65.4927C116.06 65.4772 116.05 65.4636 116.037 65.453C116.023 65.4425 116.008 65.4354 115.991 65.4324C115.973 65.43 115.956 65.43 115.938 65.4324C115.491 65.3042 112.197 64.4711 110.874 67.6453C109.427 71.1023 111.492 78.691 113.509 81.4468C114.479 82.7738 117.128 88.1873 119.815 93.7893C119.126 94.4264 113.607 99.4969 110.927 100.443C108.733 101.216 109.248 112.405 109.662 121.388C109.817 124.706 109.946 127.56 109.908 129.275C109.832 132.593 115.9 137.162 121.782 141.58C127.089 145.583 132.592 149.719 133.236 152.724C133.414 153.568 133.922 154.254 134.529 155.027C135.541 156.309 136.845 157.82 137.398 160.682C137.561 161.541 138.948 162.665 140.051 164.501H179.863C179.529 163.607 178.9 161.979 178.256 160.139ZM123.045 100.537C124.974 104.556 126.168 106.946 126.456 107.214C126.744 107.481 126.725 108.756 126.717 109.996C126.676 111.082 126.714 112.169 126.831 113.249C126.361 113.66 123.393 116.348 122.794 118.527L120.274 115.575L119.637 106.313C120.016 105.913 122.609 103.188 123.045 100.537Z" fill="white"/>
<path opacity="0.4" d="M166.831 126.362C167.767 135.051 167.779 139.763 168.829 142.278C170.602 146.523 173.214 147.382 173.214 147.382C172.345 145.737 171.656 144.004 171.156 142.214C170.606 140.152 171.156 135.074 171.671 130.15C172.05 126.614 172.399 123.274 172.3 121.382L172.266 120.71C172.009 115.764 171.47 105.465 170.371 102.615C169.295 99.8707 168.283 99.4598 166.445 98.7246C166.255 98.6455 166.066 98.5701 165.846 98.4796C165.156 98.1931 163.985 97.5899 162.628 96.8925C159.577 95.3205 155.779 93.3639 153.85 93.1226C152.045 92.9186 150.219 93.0026 148.441 93.3714C146.065 91.5581 142.021 89.2246 140.816 89.1756C139.83 89.1266 137.158 89.8994 136.12 90.2274C140.668 93.9181 147.217 98.5211 147.217 98.5211C152.398 99.5465 151.735 101.782 153.831 103.045C155.726 104.176 157.538 100.866 159.137 100.576C161.229 100.199 163.606 102.393 163.5 105.054C163.174 112.387 166.028 118.901 166.831 126.362Z" fill="#08367E" fill-opacity="0.26"/>
<path opacity="0.4" d="M140.642 99.4326C140.642 99.4326 136.537 96.0397 134.577 94.9087C132.618 93.7778 132.303 89.8797 133.85 88.9335C133.908 88.8985 133.975 88.8778 134.043 88.8732L133.903 88.8091C132.565 88.2625 130.545 88.2399 129.442 88.2738C131.716 92.4847 133.531 95.7155 134.02 96.4242C135.669 98.7917 140.642 99.4326 140.642 99.4326Z" fill="#92E3A9"/>
<path opacity="0.4" d="M134.414 152.196C134.589 151.295 133.095 148.656 132.44 147.585C130.95 145.143 113.655 129.942 116.161 125.886C118.666 121.83 120.955 124.831 122.54 125.094C123.677 125.283 126.8 123.432 126.785 123.277C126.428 120.152 129.328 118.12 129.328 118.12C129.328 118.12 129.062 105.68 128.395 105.891C127.728 106.102 119.746 87.2111 119.746 87.2111C119.746 87.2111 111.309 76.0523 111.787 70.8461C112.265 65.6399 115.926 65.5494 115.926 65.5494V65.4099C115.479 65.2817 112.185 64.4486 110.862 67.6228C109.414 71.0798 111.48 78.6685 113.496 81.4243C114.467 82.7513 117.116 88.1648 119.803 93.7669C119.113 94.404 113.595 99.4744 110.915 100.421C108.721 101.193 109.236 112.382 109.649 121.366C109.805 124.684 109.934 127.537 109.896 129.253C109.82 132.57 115.888 137.139 121.77 141.557C127.076 145.561 132.58 149.697 133.224 152.701C133.402 153.546 133.91 154.232 134.517 155.005C134.396 154.073 134.362 153.133 134.414 152.196ZM123.044 100.549C124.973 104.568 126.167 106.958 126.455 107.225C126.743 107.493 126.724 108.767 126.716 110.007C126.675 111.093 126.713 112.181 126.83 113.261C126.36 113.672 123.392 116.36 122.794 118.539L120.273 115.587L119.636 106.324C120.015 105.913 122.608 103.188 123.044 100.538V100.549Z" fill="#08367E" fill-opacity="0.26"/>
<path d="M138.288 99.3841C136.595 98.854 135.107 97.8165 134.028 96.4134C132.296 94.1063 125.493 83.5959 123.609 80.6328C121.725 77.6697 115.926 65.5495 115.926 65.5495C115.926 65.5495 112.364 64.362 110.976 67.672C109.589 70.9819 111.488 78.4613 113.599 81.3415C115.71 84.2217 125.743 106.4 126.539 107.116C127.335 107.832 126.141 113.751 127.737 115.184" stroke="#263238" stroke-linecap="round" stroke-linejoin="round"/>
<path d="M126.971 113.303C126.971 113.303 123.295 116.488 122.863 118.814L120.134 115.621L119.49 106.265C119.49 106.265 122.783 102.985 122.965 100.067" stroke="#263238" stroke-linecap="round" stroke-linejoin="round"/>
<path d="M119.956 93.7783C119.956 93.7783 113.85 99.5085 110.946 100.53C108.043 101.552 110.162 123.021 110.018 129.238C109.874 135.454 131.982 146.285 133.339 152.649C133.877 155.182 136.105 155.698 137.466 160.565" stroke="#263238" stroke-linecap="round" stroke-linejoin="round"/>
<path d="M128.646 88.4433C128.646 88.4433 131.97 88.1455 133.842 88.9221C135.715 89.6987 143.318 96.1942 145.152 97.4344C146.987 98.6747 149.746 99.146 150.269 100.484" stroke="#263238" stroke-linecap="round" stroke-linejoin="round"/>
<path d="M136.078 90.359C136.078 90.359 139.49 89.2281 140.793 89.2922C142.097 89.3563 147.002 92.2327 149.2 94.1553C150.884 95.6418 152.824 96.8141 154.927 97.616" stroke="#263238" stroke-linecap="round" stroke-linejoin="round"/>
<path d="M148.4 93.5034C150.18 93.1222 152.011 93.0343 153.82 93.2433C156.594 93.6203 163.561 97.6917 165.782 98.6116C168.003 99.5314 169.064 99.7011 170.231 102.672C171.399 105.642 171.933 116.937 172.168 121.4C172.403 125.864 170.065 138.648 171.031 142.244C171.998 145.84 173.741 148.615 174.799 150.538" stroke="#263238" stroke-linecap="round" stroke-linejoin="round"/>
<path d="M119.489 106.264C119.489 106.264 118.958 104.059 118.2 103.776" stroke="#263238" stroke-linecap="round" stroke-linejoin="round"/>
<path d="M120.133 115.621C120.389 116.906 120.734 118.172 121.168 119.409C121.714 120.748 120.865 122.685 120.865 122.685" stroke="#263238" stroke-linecap="round" stroke-linejoin="round"/>
<path d="M122.862 118.814C122.775 120.955 124.916 123.458 125.436 123.104" stroke="#263238" stroke-linecap="round" stroke-linejoin="round"/>
<path d="M133.767 106.264C133.767 106.264 136.067 102.562 138.273 102.381C140.479 102.2 143.026 105.314 144.387 105.02C145.747 104.726 147.46 102.736 149.75 102.381C152.039 102.027 153.112 103.113 154.927 103.203C156.743 103.294 156.928 100.881 159.096 100.564C161.264 100.248 162.003 101.318 163.459 101.597C164.914 101.876 165.278 100.734 166.457 100.089" stroke="#263238" stroke-linecap="round" stroke-linejoin="round"/>
</svg>
