<svg width="119" height="50" viewBox="0 0 119 50" fill="none" xmlns="http://www.w3.org/2000/svg">
<path d="M10.3004 0.302309C10.483 0.709601 10.1421 0.903264 9.92698 1.12488C8.64451 2.44458 7.8734 4.00387 7.57714 5.80674C7.49597 6.29788 7.65831 6.81898 7.38639 7.28417C7.18752 7.46386 6.9359 7.4419 6.69442 7.45188C4.56373 7.53573 2.73337 8.31238 1.17086 9.73391C0.923299 9.95752 0.716317 10.4047 0.243507 10.0653C0.0284092 9.68599 0.101461 9.57818 0 8.72566C0.0121754 7.42792 0.02638 6.14615 0.0385553 4.8484C0.176543 3.88807 0.316559 2.93174 0.620944 1.99936C0.704142 1.7438 0.903006 1.49823 1.12825 1.2866C1.57265 0.869323 2.13272 0.591806 2.73134 0.458038C3.65261 0.254393 4.7423 0.082691 5.97202 0.0227951C7.68671 -0.0610591 9.16196 0.0986633 10.3004 0.302309Z" fill="#72742E"/>
<path d="M10.4179 31.199C7.44307 31.8199 4.52707 31.6283 1.65571 30.642C1.25596 30.5042 0.927221 29.9053 0.927221 29.9053C0.578194 28.8451 0.225108 27.4456 0.0871204 25.7785C-0.0569547 24.0415 0.074945 22.5521 0.257576 21.422C0.671538 21.2423 0.870402 21.5758 1.09362 21.7894C2.39232 23.0312 3.94671 23.758 5.71214 24.0974C6.25597 24.2012 6.82821 24.0095 7.3477 24.2811C7.53641 24.4727 7.51409 24.7203 7.52424 24.9559C7.60744 27.0902 8.41101 28.923 9.91264 30.4643C10.1237 30.6779 10.4098 30.8496 10.4179 31.199Z" fill="#218438"/>
<path d="M29.5981 0.713424C30.6107 0.893111 31.0998 1.43816 31.3696 2.41447C32.092 5.02593 32.2442 7.63738 31.674 10.2848C31.4488 10.3087 31.2986 10.169 31.1627 10.0292C29.5474 8.35015 27.5425 7.54754 25.2191 7.44971C25.0222 7.44172 24.8193 7.43573 24.657 7.29797C24.385 6.90665 24.5149 6.45344 24.4703 6.03218C24.2653 4.09954 23.4435 2.47037 22.0717 1.08677C21.8607 0.875143 21.5056 0.651531 21.8607 0.276184C27.2787 -0.177028 28.7032 0.553702 29.5981 0.713424Z" fill="#B16B3C"/>
<path d="M92.4879 0.0749512C93.7339 0.522174 94.6957 1.24092 95.0366 2.58059C95.4891 4.3595 94.4867 6.11645 92.703 6.64153C90.964 7.15464 89.0991 6.23424 88.5005 4.56714C87.8816 2.84414 88.7257 0.999344 90.4384 0.296566C90.5886 0.234673 90.8037 0.274604 90.8869 0.0749512C91.4226 0.0749512 91.9563 0.0749512 92.4879 0.0749512Z" fill="white"/>
<path d="M119 29.9529C118.809 29.6913 118.779 29.4278 119 29.1663C119 29.4278 119 29.6913 119 29.9529Z" fill="#53607B"/>
<path d="M39.6671 19.8682C39.6184 13.7129 44.586 8.5299 50.8786 8.17851C54.4176 7.98085 57.4533 9.12286 59.9797 11.5586C61.1871 12.7226 61.2358 14.3697 60.1359 15.4638C59.03 16.5619 57.3762 16.516 56.1607 15.372C54.3039 13.623 52.1124 13.06 49.6631 13.8047C47.2321 14.5434 45.7588 16.2365 45.2353 18.6643C44.657 21.3416 46.0592 24.1487 48.5287 25.4525C51.0206 26.7682 54.0482 26.3469 56.0896 24.3963C57.3924 23.1525 59.0259 23.0946 60.1603 24.2486C61.1992 25.3067 61.1749 26.9179 60.1035 28.018C55.9192 32.3105 48.9163 32.7518 44.1903 29.0203C41.3148 26.7562 39.6975 23.4779 39.6671 19.8682Z" fill="white"/>
<path d="M94.909 21.1837C94.909 24.2185 94.9354 27.2532 94.9009 30.2879C94.8745 32.6139 94.1602 34.6982 92.2203 36.1617C90.6456 37.3496 88.8396 37.7589 86.8915 37.156C86.1407 36.9244 85.5603 36.4692 85.3635 35.6606C85.1687 34.854 85.4284 34.1532 86.1833 33.8837C87.9629 33.2468 88.4641 31.8851 88.4662 30.216C88.4723 24.3003 88.4662 18.3826 88.4723 12.4669C88.4723 11.858 88.4499 11.247 88.6184 10.6461C88.8903 9.67775 89.495 9.05483 90.4913 8.80926C91.2807 8.6136 92.0762 8.60162 92.8615 8.78929C94.2028 9.10874 94.8968 10.0691 94.9029 11.6264C94.9151 14.5513 94.907 17.4782 94.907 20.4031C94.909 20.6607 94.909 20.9222 94.909 21.1837Z" fill="white"/>
<path d="M31.7067 21.4439C32.2912 24.3349 32.0963 27.1719 31.098 29.9531C30.9884 30.2566 30.8646 30.4842 30.5237 30.602C27.6077 31.6022 24.645 31.8518 21.6194 31.1889C21.6154 30.9154 21.8163 30.7577 21.9867 30.592C23.6142 29.0187 24.4989 27.13 24.5111 24.8679C24.5111 24.7142 24.5334 24.5625 24.6105 24.4247C24.8053 24.1592 25.0975 24.1532 25.3837 24.1492C27.5651 24.1053 29.3954 23.2707 30.9437 21.7833C31.1446 21.5916 31.3171 21.2562 31.7067 21.4439Z" fill="#0079A1"/>
<path d="M24.7302 24.4366C24.7302 27.1499 23.6953 29.4019 21.6194 31.1908C19.5841 30.8135 17.7537 29.949 16.0106 28.8868C15.9741 28.8249 15.9741 28.761 16.0045 28.6972C16.5687 28.1182 17.2261 27.637 17.8532 27.1339C19.0484 26.1735 20.0143 24.4226 19.1052 22.6217C19.0179 22.45 18.9307 22.2624 19.0727 22.0707C19.3223 22.0128 19.505 22.1545 19.6714 22.2883C21.0147 23.3704 22.5569 23.9634 24.2736 24.1471C24.4055 24.161 24.5374 24.185 24.6531 24.2569C24.712 24.3028 24.7363 24.3627 24.7302 24.4366Z" fill="#ED6A60"/>
<path d="M16.0066 28.795C16.0086 28.825 16.0107 28.8569 16.0107 28.8869C14.2858 29.983 12.4453 30.8075 10.4201 31.1988C8.36046 29.366 7.27888 27.11 7.33773 24.3548C7.35599 24.3268 7.37426 24.2969 7.39252 24.2689C7.5853 24.1371 7.8146 24.1371 8.0297 24.1092C9.578 23.9055 10.9822 23.3665 12.2241 22.4221C12.3966 22.2923 12.5772 22.1486 12.8248 22.1985C13.0094 22.46 12.8471 22.7036 12.774 22.9472C12.3438 24.3927 12.6239 25.6565 13.7176 26.7386C14.2675 27.2837 14.8682 27.7628 15.479 28.236C15.6819 28.3917 15.9477 28.5015 16.0066 28.795Z" fill="#F8AC31"/>
<path d="M24.7302 24.4362C24.7058 24.3942 24.6835 24.3523 24.6591 24.3084C24.4461 24.0309 24.4501 23.6915 24.4035 23.374C24.2026 22.0104 23.6892 20.7785 22.841 19.6824C22.7091 19.5107 22.5427 19.351 22.6259 19.1015C22.8389 18.8699 23.0723 19.0016 23.3016 19.0635C24.7768 19.4688 26.035 19.1514 27.1368 18.0752C27.8653 17.3645 28.4721 16.5599 29.1397 15.8032C29.2026 15.7613 29.2635 15.7633 29.3243 15.8072C30.4465 17.5521 31.3028 19.4049 31.7067 21.4434C31.3536 21.4753 31.2095 21.7808 30.9924 21.9824C29.4157 23.4619 27.565 24.2924 25.3674 24.3204C25.1502 24.3244 24.925 24.2944 24.7302 24.4362Z" fill="#00B2B7"/>
<path d="M29.3243 15.8077C29.2919 15.8097 29.2614 15.8116 29.229 15.8136C28.9814 15.7657 28.8881 15.5501 28.7582 15.3784C28.3321 14.8194 27.8653 14.2963 27.3864 13.7792C26.1588 12.4475 24.7038 12.0861 22.9891 12.6791C22.841 12.731 22.285 13.5735 22.1348 13.4817C22.0414 13.292 22.1449 13.1343 22.2505 13.0025C23.3787 11.595 24.3588 9.17718 24.5617 7.41425C24.5902 7.35036 24.6348 7.30244 24.6977 7.2685C27.4798 7.25253 29.8174 8.23083 31.6722 10.2873C31.2805 12.2858 30.4181 14.0946 29.3243 15.8077Z" fill="#93C12F"/>
<path d="M73.7805 46.5836C73.0338 47.4042 72.1328 47.7496 71.0309 47.54C70.065 47.3563 69.4136 46.7613 69.3061 45.807C69.1458 44.3735 69.2371 42.93 69.2574 41.4905C69.2655 40.9335 69.649 40.6979 70.1969 40.6979C70.7935 40.6979 71.1243 40.9994 71.1385 41.5684C71.1649 42.5726 71.1466 43.5769 71.1507 44.5811C71.1527 45.5794 71.4997 46.0486 72.2404 46.0685C73.046 46.0885 73.671 45.4217 73.6791 44.5172C73.6872 43.6228 73.6771 42.7264 73.6831 41.8319C73.6892 40.9974 73.9368 40.7019 74.6146 40.6999C75.3025 40.6979 75.5663 41.0013 75.5683 41.8159C75.5703 43.3433 75.5642 44.8726 75.5724 46.4C75.5744 46.951 75.5602 47.4761 74.8439 47.5919C74.2797 47.6817 74.0017 47.4222 73.7805 46.5836Z" fill="white"/>
<path d="M50.1605 41.6406C50.5481 41.0816 51.0229 40.8161 51.583 40.7142C52.21 40.6004 52.6544 40.9319 52.7072 41.5188C52.762 42.1258 52.4251 42.4932 51.7778 42.5311C50.7226 42.593 50.4487 42.8086 50.3695 43.8448C50.2985 44.7991 50.3533 45.7635 50.2985 46.7198C50.2579 47.4545 49.6978 47.772 48.9856 47.5404C48.4844 47.3787 48.4093 46.9913 48.4093 46.5521C48.4093 44.9589 48.4154 43.3676 48.4073 41.7744C48.4052 41.2473 48.5128 40.7921 49.1337 40.7103C49.7648 40.6284 50.0793 40.9698 50.1605 41.6406Z" fill="white"/>
<path d="M79.4315 44.2323C79.4315 45.0389 79.4376 45.8455 79.4295 46.6501C79.4234 47.289 79.1252 47.5945 78.5206 47.6144C77.8958 47.6344 77.555 47.3169 77.5489 46.6461C77.5368 44.969 77.5368 43.2899 77.5489 41.6129C77.555 40.974 77.8634 40.7005 78.4943 40.7005C79.1353 40.6985 79.4173 40.966 79.4274 41.6189C79.4396 42.4873 79.4315 43.3598 79.4315 44.2323Z" fill="white"/>
<path d="M78.4924 40.1734C77.9528 40.1694 77.47 39.7002 77.4599 39.1711C77.4497 38.6181 77.9609 38.1409 78.5411 38.1609C79.0929 38.1808 79.5595 38.66 79.5392 39.1871C79.5189 39.7242 79.0381 40.1774 78.4924 40.1734Z" fill="white"/>
<path d="M119 28.643C118.72 27.9022 118.777 27.1176 118.769 26.3569C118.732 22.5815 118.738 18.8041 118.734 15.0286C118.73 11.8342 117.304 9.91951 114.191 9.00909C111.902 8.34026 109.554 8.30831 107.202 8.55388C105.347 8.74755 103.608 9.30059 102.099 10.4246C101.122 11.1534 100.364 12.0478 100.071 13.2497C99.7608 14.5275 100.191 15.5457 101.246 16.0908C102.423 16.6997 103.604 16.4941 104.497 15.5238C104.81 15.1844 105.104 14.827 105.426 14.4975C106.92 12.9762 109.737 12.5749 111.581 13.6091C112.541 14.1482 112.935 15.0146 112.736 16.1627C112.59 17.0132 111.997 17.5482 110.938 17.7459C110.504 17.8258 110.059 17.8637 109.619 17.8996C107.208 18.0893 104.801 18.2989 102.533 19.2173C99.8643 20.2975 98.5332 22.2181 98.5535 25.0432C98.5737 27.7725 99.8481 29.751 102.405 30.8591C104.402 31.7256 106.486 31.7975 108.592 31.3203C110.384 30.915 111.922 30.0705 113.166 28.5491C113.263 29.2 113.409 29.7151 113.734 30.1683C114.982 31.9173 117.888 32.0949 118.998 30.4798C118.998 30.3041 118.998 30.1304 118.998 29.9547C118.888 29.6931 118.888 29.4296 118.998 29.168C119 28.9923 119 28.8167 119 28.643ZM112.6 23.9551C111.816 26.7702 107.898 27.9701 105.619 26.0994C104.489 25.173 104.562 23.452 105.786 22.5196C106.672 21.8448 107.732 21.6172 108.807 21.4295C109.483 21.3117 110.153 21.1759 110.824 21.0402C111.498 20.9044 112.131 20.6648 112.801 20.2436C112.772 21.5473 112.931 22.7632 112.6 23.9551Z" fill="white"/>
<path d="M10.3229 0.396484C12.3806 0.787804 14.2535 1.61836 16.0108 2.72244C16.0494 2.78433 16.0514 2.84623 16.0129 2.90812C15.2925 3.58095 14.4666 4.13199 13.7543 4.8188C12.6078 5.92687 12.3501 7.2306 12.762 8.71203C12.8229 8.93364 12.9893 9.14927 12.8331 9.39684C12.6159 9.4767 12.4374 9.37487 12.2811 9.25309C10.9743 8.24085 9.50311 7.6359 7.8432 7.48416C7.69101 7.47019 7.53679 7.43425 7.40286 7.3484C7.38054 7.32244 7.35821 7.29649 7.33589 7.27053C7.27907 4.66107 8.23281 2.46688 10.1464 0.668012C10.2235 0.596137 10.2661 0.486328 10.3229 0.396484Z" fill="#F8AC31"/>
<path d="M2.71497 15.8093C1.58469 14.0244 0.708063 12.1397 0.32251 10.0573C0.535579 10.1851 0.641098 10.0214 0.760823 9.90158C2.56481 8.08474 4.75637 7.21226 7.33552 7.27016C7.35784 7.28613 7.38016 7.3021 7.40248 7.31608C7.56279 7.53969 7.59323 7.80922 7.61758 8.06478C7.75151 9.52624 8.95484 11.7943 9.83959 12.9523C9.99584 13.1579 10.1927 13.3556 10.1237 13.6531C10.0121 13.7549 9.26937 12.7546 9.14356 12.7067C6.90938 11.8642 5.32253 12.8045 3.99135 14.4956C3.64233 14.9388 3.32982 15.416 2.90775 15.8013C2.84484 15.8393 2.7799 15.8413 2.71497 15.8093Z" fill="#93C12F"/>
<path d="M2.71494 15.8092C2.74741 15.8092 2.77988 15.8112 2.81234 15.8132C3.06397 15.8571 3.15934 16.0707 3.28312 16.2444C3.8371 17.0131 4.47022 17.7159 5.18654 18.3348C6.23768 19.2432 7.45319 19.4549 8.78436 19.0376C9.02584 18.9617 9.25108 18.7481 9.52706 18.9517C9.62446 19.1694 9.50068 19.3311 9.37487 19.4828C8.35619 20.7107 7.74134 22.1023 7.59118 23.6875C7.57088 23.8991 7.54044 24.1208 7.39434 24.3004C7.37608 24.3184 7.35579 24.3364 7.33752 24.3543C5.19466 24.4043 3.29124 23.7574 1.59481 22.4756C1.15852 22.1462 0.87646 21.6391 0.342773 21.4254C0.74659 19.395 1.6151 17.5542 2.71494 15.8092Z" fill="#00B2B7"/>
<path d="M16.0044 2.81396C16.0064 2.78401 16.0085 2.75206 16.0105 2.72212C17.8327 1.62602 19.7402 0.737565 21.8648 0.366211C21.7552 0.533919 21.8465 0.641732 21.9683 0.755534C23.8879 2.51647 24.7402 4.71066 24.6996 7.26821L24.657 7.31413C24.4135 7.49182 24.1172 7.52177 23.8372 7.54772C22.3538 7.68349 21.0693 8.27446 19.8985 9.14894C19.657 9.32863 19.4358 9.56821 19.0868 9.53826C18.9082 9.32463 19.0421 9.12698 19.1253 8.93132C19.7625 7.4439 19.5068 6.14217 18.3279 5.00614C17.713 4.41317 17.1083 3.81022 16.4163 3.29911C16.2438 3.16934 16.0429 3.05753 16.0044 2.81396Z" fill="#ED6A60"/>
<path d="M87.6402 42.4251C87.1653 41.2252 85.964 40.5583 84.6633 40.7081C84.0464 40.778 83.5736 41.1094 83.1008 41.5606C82.9811 40.8977 82.6239 40.6142 82.0172 40.7061C81.3617 40.8059 81.3577 41.303 81.3597 41.8022C81.3638 44.178 81.3698 46.5539 81.3536 48.9298C81.3496 49.377 81.4733 49.7284 81.8305 49.9999C82.141 49.9999 82.4514 49.9999 82.7639 49.9999C83.1474 49.7084 83.2591 49.3231 83.2408 48.8579C83.2144 48.207 83.2347 47.5542 83.2347 46.7995C84.854 48.1631 86.9238 47.672 87.6463 45.8691C88.0988 44.7311 88.0907 43.5651 87.6402 42.4251ZM85.9823 44.8169C85.7895 45.6954 85.3208 46.1366 84.5943 46.1326C83.88 46.1286 83.3646 45.6615 83.2022 44.8069C83.1008 44.2699 83.1008 43.7288 83.2773 43.1938C83.4742 42.5988 83.8455 42.2035 84.4969 42.1675C85.1767 42.1296 85.6191 42.481 85.8646 43.0919C85.9965 43.4174 86.0655 43.7568 86.0756 44.2319C86.0594 44.3457 86.033 44.5833 85.9823 44.8169Z" fill="white"/>
<path d="M67.7253 41.5127C67.7253 41.1493 67.5832 40.8678 67.224 40.748C66.8953 40.6382 66.5645 40.6702 66.2764 40.8818C66.0511 41.0495 66.0836 41.353 65.9314 41.5646C64.8275 40.1071 62.291 40.5763 61.5564 42.1915C60.9923 43.4314 60.9659 44.6832 61.4671 45.929C61.8912 46.9772 62.7232 47.5362 63.8697 47.6021C64.6104 47.644 65.2618 47.3865 65.8442 46.7975C65.8442 47.4743 65.8604 48.0194 65.8401 48.5644C65.8178 49.0915 65.8361 49.5966 66.2439 49.9999C66.599 49.9999 66.9542 49.9999 67.3093 49.9999C67.4675 49.7304 67.7334 49.5288 67.7313 49.1594C67.7171 46.6118 67.7232 44.0623 67.7253 41.5127ZM65.9537 44.234C65.903 45.4219 65.349 46.1347 64.4744 46.1327C63.5795 46.1307 63.0296 45.384 63.0235 44.1621C63.0174 42.9302 63.608 42.1436 64.5252 42.1616C65.416 42.1795 66.0045 43.0321 65.9537 44.234Z" fill="white"/>
<path d="M84.0161 29.6993C83.9471 28.7849 83.8436 27.8725 83.8375 26.9581C83.8111 23.0269 83.8152 19.0978 83.8071 15.1666C83.801 11.7865 82.3075 9.85582 78.9816 8.94141C76.8549 8.35643 74.6796 8.32648 72.5083 8.51815C70.6597 8.68187 68.8943 9.18499 67.3561 10.2751C66.2847 11.0318 65.4365 11.9602 65.1098 13.2579C64.8764 14.1863 65.0042 15.0568 65.7551 15.7236C66.4957 16.3825 67.3906 16.5861 68.3565 16.3186C69.152 16.099 69.6086 15.4501 70.1118 14.8711C71.6155 13.1441 74.1824 12.5491 76.2725 13.4416C77.4231 13.9327 77.9588 14.8132 77.8188 15.9812C77.695 17.0034 77.0497 17.6044 75.7713 17.7721C74.497 17.9378 73.2104 18.0057 71.9361 18.1674C70.0388 18.405 68.1881 18.8103 66.4896 19.7406C62.7234 21.8011 62.8553 27.3853 65.5643 29.6873C69.0241 32.6302 75.1301 32.1351 78.1719 28.5813C78.667 31.1728 80.6963 31.9594 82.8412 31.3784C83.8111 31.1129 84.0912 30.6896 84.0161 29.6993ZM77.7153 23.6538C76.9868 27.1158 72.9243 27.6269 70.9276 26.2912C69.5457 25.3669 69.4868 23.554 70.8241 22.5238C71.7048 21.845 72.7701 21.6254 73.8395 21.4277C75.1788 21.1821 76.5546 21.0524 77.8493 20.2378C77.7722 21.4417 77.9467 22.5518 77.7153 23.6538Z" fill="white"/>
<path d="M12.8469 22.1865C14.31 20.2738 16.3433 20.2059 17.7556 20.9287C18.2954 21.2042 18.7215 21.6075 19.0807 22.0827C19.2593 22.6996 19.6083 23.2486 19.6327 23.9355C19.6773 25.2212 19.1254 26.2115 18.2163 27.0341C17.5202 27.663 16.8141 28.2939 16.0064 28.795C14.9634 28.1621 14.03 27.3875 13.2365 26.477C12.3498 25.4588 12.1915 24.2569 12.5567 22.9811C12.6339 22.7116 12.7495 22.452 12.8469 22.1865Z" fill="#DF000E"/>
<path d="M22.6361 19.056C21.656 18.2833 20.8971 17.3809 20.8118 16.0772C20.7165 14.6157 21.3983 13.5296 22.5225 12.6571C23.0379 12.5513 23.4985 12.2997 24.0444 12.2358C25.9478 12.0162 27.1065 13.1303 28.1901 14.3821C28.5736 14.8253 28.9774 15.2706 29.2291 15.8116C28.5574 16.9616 27.6727 17.9499 26.6134 18.7405C25.5846 19.5092 24.3812 19.617 23.1475 19.1818C22.9831 19.1259 22.8066 19.0979 22.6361 19.056Z" fill="#418836"/>
<path d="M94.893 46.7637C94.8909 45.3901 94.8808 44.0165 94.8625 42.6409C94.8504 41.7405 94.4689 41.1954 93.6105 40.9199C92.5472 40.5785 91.4717 40.5905 90.4206 40.9858C90.0675 41.1175 89.7529 41.3252 89.5196 41.6306C89.1523 42.1118 89.1198 42.6609 89.4871 42.9224C89.9782 43.2698 90.4023 43.1161 90.7513 42.6788C91.078 42.2715 91.5062 42.0799 92.0297 42.1178C92.5127 42.1517 92.9956 42.2296 93.0342 42.8385C93.0728 43.4794 92.5452 43.4894 92.115 43.5293C91.4088 43.5952 90.6986 43.6392 90.033 43.9067C89.1908 44.2441 88.7566 44.893 88.789 45.7315C88.8235 46.592 89.339 47.2589 90.2014 47.5104C91.2809 47.8259 92.255 47.6162 93.1215 46.8576C93.2777 47.0672 93.371 47.2469 93.5131 47.3747C93.8378 47.6642 94.2112 47.7061 94.6251 47.5464C95.0533 47.3826 94.895 47.0432 94.893 46.7637ZM91.5042 46.2107C91.1044 46.1508 90.7676 45.9811 90.7209 45.5438C90.6783 45.1405 90.936 44.881 91.2992 44.7732C91.8451 44.6135 92.4051 44.5017 92.9896 44.3619C93.2838 45.6956 92.4234 46.3504 91.5042 46.2107Z" fill="white"/>
<path d="M46.6904 42.4052C46.668 41.6685 46.2439 41.1893 45.554 40.9517C44.5171 40.5943 43.472 40.5883 42.429 40.9317C42.0008 41.0735 41.6173 41.2971 41.3575 41.6665C41.0795 42.0618 40.8807 42.513 41.3332 42.8963C41.7918 43.2856 42.2301 43.1439 42.5873 42.6967C42.9464 42.2474 43.4192 42.0698 43.9915 42.1217C44.4765 42.1656 44.8945 42.3333 44.9107 42.8704C44.927 43.3875 44.4968 43.4733 44.0787 43.5152C43.3543 43.5871 42.6197 43.6191 41.9318 43.8886C41.0491 44.234 40.6331 44.8449 40.6656 45.7494C40.696 46.6079 41.2033 47.2567 42.084 47.5123C43.1656 47.8238 44.1396 47.6101 45.0081 46.8295C45.1847 47.1849 45.3714 47.4464 45.7062 47.5742C46.1993 47.7639 46.7898 47.5263 46.7857 47.105C46.7675 45.5397 46.737 43.9724 46.6904 42.4052ZM43.3543 46.2106C42.9525 46.1507 42.6136 45.977 42.5649 45.5417C42.5203 45.1344 42.7963 44.8789 43.1575 44.7731C43.7236 44.6053 44.304 44.4876 44.8823 44.3498C45.0122 45.6635 44.4298 46.3703 43.3543 46.2106Z" fill="white"/>
<path d="M55.5033 44.4894C56.0979 44.5334 56.7005 44.4994 57.2992 44.4994C57.8755 44.4994 58.4518 44.5014 59.0301 44.4994C59.8073 44.4954 60.0122 44.2678 59.9311 43.5032C59.7424 41.6983 58.261 40.5683 56.2683 40.706C54.5901 40.8238 53.3746 41.9678 53.192 43.605C52.9729 45.5556 53.7744 46.9472 55.4181 47.4263C56.5017 47.7418 57.563 47.636 58.5898 47.1788C58.9388 47.023 59.2411 46.8014 59.4278 46.462C59.6287 46.1006 59.6348 45.7373 59.3081 45.4478C58.9854 45.1623 58.6182 45.1922 58.2752 45.4318C58.0946 45.5576 57.9404 45.7173 57.7557 45.8391C56.7837 46.478 55.4242 46.0867 55.0995 45.0784C54.9838 44.723 54.9513 44.4475 55.5033 44.4894ZM54.998 43.032C55.2517 42.451 55.832 42.0237 56.4936 42.0098C57.1774 41.9938 57.6746 42.2973 57.9952 42.8942C58.1798 43.2376 58.2143 43.4672 57.6908 43.4353C57.2931 43.4093 56.8933 43.4313 56.4956 43.4313C56.0979 43.4313 55.6981 43.4193 55.3004 43.4353C54.9798 43.4453 54.8438 43.3874 54.998 43.032Z" fill="white"/>
<path d="M18.8473 9.82557C17.3295 11.5606 14.4845 11.6404 12.8388 9.41429C12.7008 8.91516 12.4411 8.45595 12.3964 7.92288C12.2909 6.6471 12.6886 5.57297 13.6424 4.69449C14.3851 4.01168 15.1298 3.33286 16.0064 2.81177C16.9054 3.41073 17.7069 4.1175 18.4679 4.88017C19.726 6.13998 19.9756 7.54154 19.2085 9.15873C19.1943 9.18668 19.1822 9.21663 19.172 9.24658C19.0949 9.45622 18.9934 9.65786 18.8473 9.82557Z" fill="#DF000E"/>
<path d="M9.5182 12.6507C11.4723 14.1422 11.4805 15.977 10.9387 17.2587C10.6404 17.9635 10.0986 18.4706 9.52023 18.9498C8.69636 19.2393 7.89076 19.5547 6.97152 19.3651C6.3526 19.2373 5.75804 19.0596 5.29334 18.6583C4.33352 17.8257 3.45486 16.9153 2.80957 15.8132C3.46298 14.7391 4.27467 13.7828 5.25276 12.9961C6.4013 12.0698 7.71827 12.0298 9.07785 12.519C9.22396 12.5689 9.37209 12.6068 9.5182 12.6507Z" fill="#418836"/>
</svg>
