<svg width="1166" height="111" viewBox="0 0 1166 111" fill="none" xmlns="http://www.w3.org/2000/svg">
<rect width="1166" height="110" rx="8" fill="#65D2F4" fill-opacity="0.39"/>
<path d="M785.155 95.2637C785.686 93.1806 784.301 91.0975 782.752 89.5957C781.202 88.094 779.348 86.7557 778.536 84.7513C777.219 81.5237 778.939 77.3212 776.706 74.6386C775.395 73.0581 773.046 72.5373 771.887 70.8478C771.348 69.9123 770.988 68.8857 770.826 67.82C769.562 62.4567 766.87 57.5292 763.03 53.5532C762.802 58.3425 763.874 63.1046 766.135 67.3417C767.044 69.0372 768.154 70.6843 768.465 72.5736C768.965 75.6499 767.245 78.8229 768.032 81.8386C768.923 85.2902 772.845 87.5792 773.052 91.1338C773.223 94.1616 770.612 96.7897 770.814 99.7932C770.976 101.077 771.444 102.304 772.18 103.372C774.547 107.223 778 109.864 783.209 109.749L789.596 109.936L785.155 95.2637Z" fill="#65D2F4" fill-opacity="0.62"/>
<path d="M790.744 109.882C791.337 109.968 791.942 109.952 792.529 109.833C793.248 109.725 793.954 109.549 794.637 109.306C795.576 108.978 796.454 108.501 797.234 107.893C797.698 107.517 798.062 107.036 798.294 106.492C798.487 105.877 798.585 105.237 798.585 104.594C798.594 103.907 798.641 103.221 798.728 102.539C798.851 101.815 799.116 101.121 799.509 100.495C800.265 99.1733 801.53 97.9242 801.926 96.1355C802.323 94.3467 802.032 92.4973 801.722 90.5752C801.412 88.653 801.102 86.6036 801.839 84.6147C802.577 82.6259 803.935 80.825 804.629 78.5815C805.323 76.3379 804.982 73.8943 805.118 71.4932C805.157 70.2757 805.437 69.0773 805.943 67.9642C806.464 66.8363 807.183 65.7752 807.747 64.5928C808.881 62.1674 809.067 59.4812 809.371 56.8254C809.515 55.4874 809.662 54.1352 809.811 52.7689C809.9 51.3947 810.135 50.0332 810.511 48.7063C810.939 47.366 811.448 46.0519 812.036 44.771C812.342 44.1073 812.591 43.4197 812.78 42.7155C812.885 41.9918 812.951 41.2631 812.978 40.5326C813.039 39.0644 812.973 37.5938 812.78 36.1365C812.594 34.6752 812.315 33.226 812.16 31.7586C812.16 31.6677 812.16 31.5828 812.16 31.5039L812.123 31.2129L811.856 31.3463C810.485 32.0382 809.295 33.03 808.379 34.2447C807.49 35.4349 806.777 36.7412 806.259 38.1254C805.193 40.86 804.815 43.716 804.288 46.4506C803.761 49.1853 803.048 51.8654 801.666 54.1392C800.959 55.2731 800.11 56.31 799.36 57.4136C798.561 58.4959 798.019 59.7387 797.773 61.0517C797.401 63.7379 798.932 66.0905 798.629 68.4674C798.485 69.6356 798.087 70.7602 797.463 71.766C796.881 72.7847 796.224 73.7306 795.542 74.6765C794.877 75.6031 794.3 76.5875 793.819 77.6174C793.367 78.6247 793.103 79.7027 793.038 80.8007C792.895 82.9412 793.217 84.9725 793.069 86.8643C792.898 88.6905 792.363 90.4662 791.494 92.0911C790.719 93.6555 789.858 95.0683 789.133 96.4447C788.773 97.1029 788.448 97.7789 788.159 98.4699C787.904 99.1207 787.717 99.7952 787.602 100.483C787.424 101.69 787.424 102.915 787.602 104.121C787.776 105.795 788.42 107.39 789.461 108.73C789.618 108.93 789.794 109.115 789.988 109.281C790.117 109.414 790.26 109.532 790.416 109.633C790.657 109.809 790.788 109.888 790.788 109.888C790.333 109.526 789.917 109.12 789.548 108.675C788.541 107.334 787.925 105.753 787.763 104.097C787.608 102.91 787.629 101.707 787.825 100.526C787.938 99.8523 788.127 99.1935 788.389 98.5609C788.677 97.8778 789.002 97.2099 789.362 96.5599C790.093 95.2017 790.967 93.7889 791.761 92.2124C792.656 90.562 793.207 88.7547 793.385 86.8946C793.546 84.9361 793.23 82.9048 793.385 80.831C793.424 79.758 793.66 78.7006 794.079 77.7083C794.559 76.7007 795.129 75.7368 795.784 74.8281C796.434 73.8883 797.129 72.9424 797.73 71.8994C798.389 70.8552 798.812 69.685 798.97 68.4674C799.267 65.9329 797.73 63.5681 798.127 61.0699C798.368 59.8162 798.894 58.6312 799.664 57.6015C800.395 56.5161 801.257 55.4793 801.982 54.3151C803.439 51.9745 804.139 49.2399 804.66 46.4991C805.18 43.7584 805.571 40.9207 806.618 38.2466C807.123 36.8983 807.82 35.6265 808.689 34.469C809.562 33.3008 810.702 32.3478 812.017 31.6858L811.72 31.5221C811.72 31.607 811.72 31.6919 811.72 31.7829C811.887 33.2624 812.166 34.7176 812.34 36.1608C812.532 37.5957 812.599 39.0441 812.538 40.4901C812.501 41.1935 812.457 41.9393 812.352 42.6063C812.167 43.285 811.927 43.9481 811.633 44.5891C811.04 45.8847 810.525 47.2128 810.09 48.5668C809.71 49.916 809.474 51.2997 809.383 52.6961C809.24 54.0665 809.092 55.4186 808.949 56.7587C808.652 59.4267 808.466 62.0946 807.369 64.4109C806.829 65.563 806.129 66.6302 805.577 67.7883C805.057 68.9363 804.769 70.1716 804.728 71.4265C804.598 73.8519 804.939 76.2773 804.275 78.442C803.612 80.6067 802.211 82.4136 801.505 84.4631C800.798 86.5126 801.083 88.6773 801.406 90.5752C801.728 92.4731 802.056 94.3407 801.647 96.0324C801.238 97.7241 800.054 98.9793 799.279 100.331C798.877 100.999 798.615 101.74 798.511 102.508C798.426 103.198 798.383 103.893 798.381 104.588C798.384 105.204 798.296 105.816 798.12 106.407C797.905 106.929 797.56 107.389 797.116 107.747C796.358 108.352 795.504 108.831 794.587 109.166C793.914 109.416 793.219 109.605 792.511 109.73C792.075 109.808 791.633 109.851 791.19 109.857L790.744 109.882Z" fill="#65D2F4" stroke="#65D2F4"/>
<path d="M810.872 34.4045C810.84 34.4635 810.819 34.5277 810.81 34.5941C810.772 34.747 810.729 34.9365 810.666 35.175C810.541 35.6764 810.391 36.4407 810.153 37.3884C809.916 38.3361 809.316 39.4184 808.815 40.7391C808.315 42.0599 807.765 43.5762 807.284 45.2883C806.802 47.0003 806.364 48.8958 805.914 50.9258C805.526 53.0954 804.834 55.2023 803.857 57.187C803.326 58.2326 802.726 59.2904 802.257 60.4399C801.793 61.6203 801.482 62.8528 801.331 64.1086C801.017 66.7127 800.562 69.2986 799.968 71.8556L796.354 86.6649C795.216 91.2018 794.185 95.2924 793.322 98.7409C792.459 102.189 791.796 104.978 791.315 106.904C791.09 107.845 790.915 108.585 790.79 109.123C790.74 109.362 790.696 109.551 790.665 109.735C790.658 109.802 790.658 109.869 790.665 109.937C790.697 109.877 790.72 109.813 790.734 109.747L790.902 109.172C791.046 108.64 791.252 107.907 791.528 106.971C792.04 105.021 792.778 102.257 793.666 98.851C794.554 95.4452 795.617 91.3302 796.792 86.7994C797.968 82.2686 799.093 77.2119 800.381 71.9596C800.975 69.3923 801.43 66.7962 801.744 64.182C801.881 62.9539 802.178 61.7479 802.626 60.5928C803.082 59.4677 803.67 58.4161 804.201 57.3644C805.187 55.3493 805.877 53.2086 806.252 51.0053C806.69 48.9692 807.102 47.0737 807.571 45.3739C808.04 43.6741 808.534 42.1455 809.034 40.8308C809.534 39.5162 810.078 38.4218 810.285 37.4373C810.491 36.4529 810.629 35.7069 810.729 35.1933C810.766 34.961 810.797 34.7653 810.829 34.6124C810.852 34.5452 810.867 34.4754 810.872 34.4045Z" fill="#65D2F4"/>
<path d="M791.678 109.936C795.794 107.44 796.936 99.9227 795.189 95.4181C793.442 90.9136 790.402 86.7925 789.907 81.9775C789.526 78.2764 790.71 74.4719 789.834 70.856C788.625 65.9862 783.893 62.2182 783.923 57.1962C783.923 54.3778 785.513 51.7177 785.367 48.9054C785.192 45.4539 782.545 42.7268 780.901 39.6954C778.38 35.0569 778.187 29.5357 777.305 24.3372C776.422 19.1387 774.415 13.5384 769.804 11C769.151 15.4376 767.991 18.4813 768.408 24.4833C768.553 26.6382 771.061 30.7532 771.43 35.4769C771.647 38.2953 771.804 41.1259 771.992 43.9503C772.179 46.7748 772.36 49.5019 773.352 52.0586C774.113 54.0248 775.328 55.8083 775.896 57.8415C776.966 61.6643 775.612 65.8219 776.501 69.6995C777.238 72.9805 779.523 75.7867 779.994 79.1286C780.671 83.8097 777.685 88.6917 779.251 93.1293C780.03 95.339 781.85 97.1104 782.376 99.3931C782.787 101.171 782.376 103.045 782.732 104.835C783.337 107.708 788.776 109.906 791.696 109.705" fill="#65D2F4"/>
<path d="M771.517 15.2551C771.509 15.3384 771.509 15.4223 771.517 15.5056C771.517 15.695 771.57 15.9332 771.611 16.2387C771.705 16.8801 771.817 17.8208 772.03 19.0365C772.242 20.2522 772.879 21.6389 773.381 23.3127C773.882 24.9865 774.425 26.8864 774.891 29.0245C775.356 31.1626 775.758 33.5328 776.176 36.0863C776.595 38.6398 777.049 41.4132 778.288 44.0644C778.878 45.3961 779.503 46.7279 779.987 48.1451C780.465 49.6055 780.764 51.1221 780.877 52.6596C781.117 55.9134 781.524 59.1517 782.098 62.3604C783.366 68.9457 784.582 75.189 785.679 80.9252C786.776 86.6614 787.902 91.7561 788.781 96.0323C789.66 100.309 790.391 103.784 790.893 106.216L791.483 108.983C791.553 109.276 791.607 109.515 791.648 109.698C791.663 109.78 791.687 109.86 791.719 109.936C791.725 109.853 791.725 109.769 791.719 109.686C791.683 109.502 791.642 109.264 791.589 108.965C791.465 108.299 791.294 107.37 791.07 106.185C790.598 103.742 789.89 100.266 789.082 95.9712C788.274 91.6767 787.206 86.5331 786.08 80.8396C784.953 75.1462 783.791 68.8663 782.541 62.2871C781.963 59.0824 781.55 55.8483 781.302 52.5985C781.188 51.0316 780.883 49.4859 780.394 47.9985C779.898 46.5446 779.249 45.2068 778.671 43.8873C777.445 41.2788 777.002 38.5481 776.554 36.0069C776.106 33.4656 775.704 31.0831 775.215 28.9389C774.783 27.0088 774.257 25.1025 773.64 23.2272C773.121 21.5595 772.46 20.1727 772.236 18.9998C772.012 17.827 771.865 16.8495 771.741 16.2142C771.688 15.9149 771.64 15.6766 771.611 15.4934C771.586 15.4114 771.554 15.3317 771.517 15.2551Z" fill="white"/>
</svg>
